<?xml version="1.0" encoding="UTF-8"?>
<svg id="Capa_2" data-name="Capa 2" xmlns="http://www.w3.org/2000/svg" xmlns:xlink="http://www.w3.org/1999/xlink" viewBox="0 0 238.41 202">
  <defs>
    <style>
      .cls-1 {
        fill: url(#Nueva_muestra_de_degradado_1-4);
      }

      .cls-1, .cls-2, .cls-3, .cls-4, .cls-5, .cls-6, .cls-7, .cls-8, .cls-9, .cls-10, .cls-11, .cls-12, .cls-13, .cls-14, .cls-15, .cls-16, .cls-17, .cls-18, .cls-19, .cls-20, .cls-21, .cls-22 {
        stroke-width: 0px;
      }

      .cls-2 {
        fill: url(#Nueva_muestra_de_degradado_1-2);
      }

      .cls-3 {
        fill: url(#Degradado_sin_nombre_336-6);
      }

      .cls-4 {
        fill: url(#rojo-musedmx-4);
      }

      .cls-5 {
        fill: url(#Degradado_sin_nombre_336);
      }

      .cls-6 {
        fill: url(#Nueva_muestra_de_degradado_1-3);
      }

      .cls-7 {
        fill: url(#Degradado_sin_nombre_336-4);
      }

      .cls-8 {
        fill: url(#Degradado_sin_nombre_336-5);
      }

      .cls-9 {
        fill: url(#Nueva_muestra_de_degradado_1-5);
      }

      .cls-10 {
        fill: url(#Nueva_muestra_de_degradado_1-9);
      }

      .cls-11 {
        fill: url(#Degradado_sin_nombre_336-3);
      }

      .cls-12 {
        fill: url(#Degradado_sin_nombre_336-2);
      }

      .cls-13 {
        fill: url(#Nueva_muestra_de_degradado_1);
      }

      .cls-14 {
        fill: url(#rojo-musedmx-2);
      }

      .cls-15 {
        fill: url(#rojo-musedmx);
      }

      .cls-16 {
        fill: url(#rojo-musedmx-5);
      }

      .cls-17 {
        fill: url(#Degradado_sin_nombre_599);
      }

      .cls-18 {
        fill: url(#Nueva_muestra_de_degradado_1-8);
      }

      .cls-19 {
        fill: url(#rojo-musedmx-3);
      }

      .cls-20 {
        fill: url(#Nueva_muestra_de_degradado_1-7);
      }

      .cls-21 {
        fill: url(#Nueva_muestra_de_degradado_1-6);
      }

      .cls-22 {
        fill: url(#rojo-musedmx-6);
      }
    </style>
    <linearGradient id="rojo-musedmx" x1="150.41" y1="97.98" x2="150.41" y2="0" gradientUnits="userSpaceOnUse">
      <stop offset="0" stop-color="#e25111"/>
      <stop offset=".3" stop-color="#b74015"/>
      <stop offset=".97" stop-color="#4e1822"/>
      <stop offset="1" stop-color="#491623"/>
    </linearGradient>
    <linearGradient id="rojo-musedmx-2" data-name="rojo-musedmx" x1="88.6" y1="98.05" x2="88.6" y2=".17" xlink:href="#rojo-musedmx"/>
    <linearGradient id="Nueva_muestra_de_degradado_1" data-name="Nueva muestra de degradado 1" x1="77.89" y1="142.59" x2="77.89" y2="45.34" gradientUnits="userSpaceOnUse">
      <stop offset="0" stop-color="#062b4b"/>
      <stop offset=".48" stop-color="#1f434d"/>
      <stop offset="1" stop-color="#2581c4"/>
    </linearGradient>
    <linearGradient id="Nueva_muestra_de_degradado_1-2" data-name="Nueva muestra de degradado 1" x1="160.78" y1="142.36" x2="160.78" y2="47.29" xlink:href="#Nueva_muestra_de_degradado_1"/>
    <linearGradient id="Degradado_sin_nombre_336" data-name="Degradado sin nombre 336" x1="109.04" y1="37.43" x2="109.04" y2="65.41" gradientUnits="userSpaceOnUse">
      <stop offset=".12" stop-color="#ffef26"/>
      <stop offset=".25" stop-color="#fed019"/>
      <stop offset=".44" stop-color="#fdac0b"/>
      <stop offset=".59" stop-color="#fd9603"/>
      <stop offset=".68" stop-color="#fd8f00"/>
      <stop offset=".76" stop-color="#fd7500"/>
      <stop offset=".84" stop-color="#fd6300"/>
      <stop offset=".89" stop-color="#fd5d00"/>
    </linearGradient>
    <linearGradient id="Degradado_sin_nombre_336-2" data-name="Degradado sin nombre 336" x1="130.35" y1="37.1" x2="130.35" y2="65.82" xlink:href="#Degradado_sin_nombre_336"/>
    <linearGradient id="Nueva_muestra_de_degradado_1-3" data-name="Nueva muestra de degradado 1" x1="182.52" y1="134.03" x2="182.52" y2="122.67" xlink:href="#Nueva_muestra_de_degradado_1"/>
    <linearGradient id="Degradado_sin_nombre_336-3" data-name="Degradado sin nombre 336" x1="57.46" y1="122.85" x2="57.46" y2="134.21" xlink:href="#Degradado_sin_nombre_336"/>
    <linearGradient id="rojo-musedmx-3" data-name="rojo-musedmx" x1="119.21" y1="18.25" x2="119.21" y2="2.96" xlink:href="#rojo-musedmx"/>
    <linearGradient id="Nueva_muestra_de_degradado_1-4" data-name="Nueva muestra de degradado 1" x1="49.61" y1="24.73" x2="49.61" y2="13.5" xlink:href="#Nueva_muestra_de_degradado_1"/>
    <linearGradient id="Degradado_sin_nombre_336-4" data-name="Degradado sin nombre 336" x1="188.32" y1="14.36" x2="188.32" y2="24.92" xlink:href="#Degradado_sin_nombre_336"/>
    <linearGradient id="Nueva_muestra_de_degradado_1-5" data-name="Nueva muestra de degradado 1" x1="179.35" y1="201.89" x2="179.35" y2="160.84" xlink:href="#Nueva_muestra_de_degradado_1"/>
    <linearGradient id="Degradado_sin_nombre_599" data-name="Degradado sin nombre 599" x1="138.54" y1="160.69" x2="138.54" y2="201.73" gradientUnits="userSpaceOnUse">
      <stop offset=".37" stop-color="#ffef26"/>
      <stop offset=".4" stop-color="#fee522"/>
      <stop offset=".51" stop-color="#fec013"/>
      <stop offset=".62" stop-color="#fda508"/>
      <stop offset=".71" stop-color="#fd9402"/>
      <stop offset=".78" stop-color="#fd8f00"/>
      <stop offset=".94" stop-color="#fd5d00"/>
    </linearGradient>
    <linearGradient id="Degradado_sin_nombre_336-5" data-name="Degradado sin nombre 336" x1="108.48" y1="172.19" x2="108.48" y2="201.63" xlink:href="#Degradado_sin_nombre_336"/>
    <linearGradient id="rojo-musedmx-4" data-name="rojo-musedmx" x1="58.64" y1="171.82" x2="58.64" y2="201.77" xlink:href="#rojo-musedmx"/>
    <linearGradient id="Nueva_muestra_de_degradado_1-6" data-name="Nueva muestra de degradado 1" x1="83.94" y1="201.76" x2="83.94" y2="171.36" xlink:href="#Nueva_muestra_de_degradado_1"/>
    <linearGradient id="Nueva_muestra_de_degradado_1-7" data-name="Nueva muestra de degradado 1" x1="230.06" y1="201.31" x2="230.06" y2="160.45" xlink:href="#Nueva_muestra_de_degradado_1"/>
    <linearGradient id="rojo-musedmx-5" data-name="rojo-musedmx" x1="213.51" y1="160.49" x2="213.51" y2="188.73" xlink:href="#rojo-musedmx"/>
    <linearGradient id="Degradado_sin_nombre_336-6" data-name="Degradado sin nombre 336" x1="213.3" y1="184.21" x2="213.3" y2="201.36" xlink:href="#Degradado_sin_nombre_336"/>
    <linearGradient id="Nueva_muestra_de_degradado_1-8" data-name="Nueva muestra de degradado 1" x1="17.24" y1="201.62" x2="17.24" y2="160.59" xlink:href="#Nueva_muestra_de_degradado_1"/>
    <linearGradient id="rojo-musedmx-6" data-name="rojo-musedmx" x1="38.27" y1="160.92" x2="38.27" y2="202" xlink:href="#rojo-musedmx"/>
    <linearGradient id="Nueva_muestra_de_degradado_1-9" data-name="Nueva muestra de degradado 1" x1="149.82" y1="180.36" x2="149.82" y2="160.68" xlink:href="#Nueva_muestra_de_degradado_1"/>
  </defs>
  <g id="Capa_1-2" data-name="Capa 1">
    <g>
      <path class="cls-15" d="M142.3,0c22,4.99,42.28,27.86,35.67,57.82-6.59,29.86-28.96,43.33-56.38,39.54v-27.81c2.46-.95,4.91-1.83,7.3-2.85,17.43-7.43,22.27-22.68,21.14-38.49-.61-8.63-3.03-16.76-6.69-24.57-.49-1.04-1.26-2.03-1.05-3.64Z"/>
      <path class="cls-14" d="M95.71.17c-1.44,3.57-2.67,6.57-3.86,9.59-3.89,9.88-5.16,20.07-3.52,30.58,2.2,14.05,10.44,22.84,23.72,27.26,1.73.58,3.61.74,5.43,2.01.86,9.11.36,18.39.52,27.58-26.62,4.79-51.01-10.89-57.29-37.89C53.13,26.75,75.21,5.08,95.71.17Z"/>
      <path class="cls-13" d="M52.14,45.34c-.6,5.81-.31,10.84.81,15.83,4.43,19.82,17.03,32.36,35.39,39.72,4.5,1.8,9.33,1.33,14.05,1.43,4.95.11,9.91.02,15.18.02.22,9.49.89,18.19-2.37,26.47-2.92,7.4-8.58,11.84-16.33,13.43-10.23,2.09-19.17-5.56-19.99-17.11-.25-3.5-.04-7.04-.04-10.95-22.14-.38-35.26-12.01-40.07-33.07-3-13.13,2.98-28.93,13.37-35.78Z"/>
      <path class="cls-2" d="M121.45,101.84c7.59,0,14.8-.09,21.99.04,3.51.06,6.67-.71,9.81-2.29,7.9-3.97,15.69-8,21.48-14.98,7.75-9.37,11.52-20.2,12.01-32.25.07-1.69-.13-3.4.42-5.06,6.95,2.53,14.64,18.62,12.97,31.26-1.33,10.01-5.62,18.56-13.11,25.36-7.45,6.75-16.34,9.75-26.01,8.95-1.18,1.64-.62,2.76-.42,3.9.64,3.66.71,7.34-.18,10.96-4.32,17.57-20.13,17.55-29.79,9.29-4.56-3.9-7.41-8.92-8.36-14.81-1.03-6.35-1.28-12.78-.79-20.36Z"/>
      <path class="cls-5" d="M101.03,37.43c4.87,3.93,10.37,6.57,16.41,8.62.5,6.46-.21,12.87.72,19.16-7.42,1.39-16.48-4.74-17.71-11.66-.91-5.13-.69-12.58.57-16.12Z"/>
      <path class="cls-12" d="M121.59,65.58v-20.06c6-1.66,11.36-4.19,15.92-8.42,4.36,12.25-.5,24.36-10.83,27.93-1.6.55-3.21,1.13-5.09.56Z"/>
      <path class="cls-6" d="M188.46,128.28c.04,3.29-2.58,5.78-6.03,5.75-3.28-.03-5.81-2.46-5.83-5.59-.03-3.2,2.49-5.79,5.61-5.77,3.59.03,6.22,2.39,6.26,5.61Z"/>
      <path class="cls-11" d="M63.3,128.6c-.06,3.29-2.5,5.65-5.82,5.61-3.45-.04-5.82-2.29-5.86-5.57-.03-2.91,2.87-5.8,5.82-5.8,3.06,0,5.91,2.81,5.86,5.75Z"/>
      <path class="cls-19" d="M119.32,18.25c-4.85-2.57-6.16-10.41-2.34-14.07,1.76-1.69,3.54-1.58,5.14.17,3.04,3.32,1.29,11.85-2.8,13.91Z"/>
      <path class="cls-1" d="M49.27,13.5c3.27-.08,5.84,2.33,5.92,5.57.09,3.22-2.07,5.55-5.24,5.66-3.46.12-5.9-2.11-5.94-5.41-.03-3.09,2.36-5.74,5.25-5.81Z"/>
      <path class="cls-7" d="M188.07,24.92c-3.1.04-4.91-1.7-4.97-4.79-.07-3.18,2.18-5.68,5.18-5.76,2.87-.08,5.2,2.22,5.26,5.19.06,3.17-2.13,5.32-5.47,5.37Z"/>
      <path class="cls-9" d="M158.27,160.87c2.25,0,4.3-.01,6.34,0,.95,0,1.09.86,1.41,1.49,3.29,6.66,6.56,13.32,9.86,19.97,1.06,2.14,2.19,4.24,3.5,6.77,4.72-9.56,9.28-18.81,13.9-28.18,2.29-.15,4.62-.09,7.14,0v40.64c-2.53.23-5.07.21-7.75.05v-23.41c-.07-.01-.14-.02-.21-.03-1.7,3.74-3.36,7.5-5.1,11.23-1.71,3.68-3.54,7.29-5.2,11-.68,1.53-1.83,1.42-3.12,1.47-1.28.06-1.98-.33-2.61-1.53-3.67-7.01-7.15-14.11-10.45-21.31-.05-.12-.16-.22-.47-.64v23.17c-2.5.27-4.81.16-7.24.12v-40.83Z"/>
      <path class="cls-17" d="M146.25,173.77v-13.09h7.28c-.3,13.47.37,26.88-.14,40.23-1.32.43-4.45.52-6.47.21-.46-.25-.14-.85-.55-1.17-.11.01-.26,0-.38.05-3.71,1.4-7.46,2.27-11.45,1.28-4.76-1.18-8.04-4.1-9.83-8.6-2.45-6.15-1.06-11.68,3.43-16.3,2.93-3.01,6.64-4.51,11.02-3.97,1.97.24,3.89.48,5.68,1.4.37.19.85.16,1.42-.06ZM146.93,187.23c.29-4.44-4.07-8.15-7.83-8.01-4.83.18-8.18,3.19-8.22,7.89-.03,4.49,3.54,8.16,7.85,8.12,4.54-.04,8.21-3.63,8.2-8Z"/>
      <path class="cls-8" d="M121.6,189.21c-6.3.12-12.53-.07-18.94.3.56,2.32,1.78,3.99,3.74,4.92,3.86,1.83,7,.39,9.6-2.64,2.01,1.13,3.34,2.95,5.42,4.05-1.13,1.56-2.52,2.66-4.06,3.6-5.89,3.56-13.98,2.75-18.35-2.13-4.02-4.49-5.1-9.74-3.02-15.54,1.99-5.54,5.85-8.78,11.69-9.5,6.94-.85,14.05,5.32,14.3,12.31.05,1.46.03,2.92-.38,4.63ZM102.92,183.57c.99.23,11.01,0,11.84-.27-.47-2.73-2.63-4.33-5.89-4.27-2.64.05-5.87,1.9-5.95,4.54Z"/>
      <path class="cls-4" d="M46.4,171.82h6.65c.51.53.34,1.15.34,1.71.01,5.08,0,10.16,0,15.24,0,.93,0,1.85.31,2.75.83,2.4,2.7,3.65,5.3,3.49,2.17-.13,4.12-1.86,4.54-4.11.18-.95.26-1.94.27-2.91.04-4.74.04-9.48.05-14.21,0-.58,0-1.16,0-1.88h6.87c.32.36.26.77.26,1.15,0,5.67.07,11.33-.05,17-.12,5.74-4.15,10.39-9.71,11.46-6.06,1.17-11.58-1.51-14-6.8-.58-1.26-.94-2.58-.95-3.96-.04-5.96-.03-11.92-.03-17.88,0-.28.08-.57.14-1.04Z"/>
      <path class="cls-21" d="M74.01,194.85c1.54-1.21,3.09-2.44,4.69-3.7.79.9,1.35,1.82,2.15,2.55.99.9,2.11,1.36,3.46,1.32,1.06-.03,1.93-.34,2.35-1.39.42-1.06.05-2.5-.84-3.19-.89-.7-1.94-1.12-2.99-1.53-1.04-.41-2.07-.86-3.05-1.43-4.08-2.39-5.52-6.33-3.85-10.62,1.52-3.91,5.92-6.26,10.15-5.3,3.37.76,5.7,2.98,7.78,5.77-1.35,1.14-2.6,2.19-3.82,3.22-.73-.28-1.07-.84-1.53-1.27-1.2-1.13-2.59-1.71-4.26-1.57-1.22.11-2.18.84-2.36,1.83-.19,1.06.39,2,1.64,2.45.82.3,1.7.44,2.54.69,4.28,1.3,7.03,3.71,7.17,8.61.12,4.48-2.47,8.71-6.26,9.99-5.02,1.7-11.51-1.5-12.98-6.44Z"/>
      <path class="cls-20" d="M229.91,160.46c2.83-.01,8.02.01,8.17.02s-8.59,12.59-12.93,18.96c4.38,7.18,8.75,14.32,13.26,21.72-2.98.25-5.67.13-8.3.09-2.06-3.18-4.06-6.24-6.03-9.33-.58-.91-.64-1.3-.64-3.02.38-2.61.32-5.32.32-7.89,0-3.11-.19-5.41-1.75-7.78-.58-.88-.27-1.71.29-2.44,2.62-3.39,4.86-7.06,7.6-10.33Z"/>
      <path class="cls-16" d="M221.92,188.73c-5.88-9.23-11.78-18.47-17.55-28.23,2.78,0,5.19-.02,7.61.01.61,0,.87.58,1.15,1.03,3.02,4.73,6.03,9.46,9.05,14.19.33.52.45,1.08.45,1.67.01,3.51.08,7.03-.22,10.53-.02.29,0,.6-.49.79Z"/>
      <path class="cls-3" d="M216.62,184.21c1.75,1.74,2.79,3.88,4.29,5.74-.87,2.04-2.21,3.79-3.41,5.61-1.05,1.59-2.12,3.17-3.18,4.75-.3.44-.6.9-1.22.95-2.46.13-4.8.13-7.42.04.17-.63,10.13-16.16,10.94-17.09Z"/>
      <g>
        <path class="cls-18" d="M21.12,188.84c-1.31-2.53-2.44-4.63-3.5-6.77-3.3-6.65-6.57-13.32-9.86-19.97-.31-.63-.46-1.48-1.41-1.49-2.05-.02-4.09,0-6.34,0v40.83c2.44.04,4.74.15,7.24-.12v-23.17c.31.42.42.52.47.64,3.3,7.19,6.78,14.3,10.45,21.31.63,1.19,1.33,1.58,2.61,1.53,1.29-.06,2.44.05,3.12-1.47,1.65-3.7,3.49-7.32,5.2-11,1.73-3.73,3.4-7.48,5.1-11.23.07,0,.13.02.2.03l.08-17.02c-4.41,8.94-8.86,18.78-13.36,27.92Z"/>
        <path class="cls-22" d="M34.48,160.92v1.34l-.08,16.05v23.69h7.76v-41.06h-7.68Z"/>
      </g>
      <path class="cls-10" d="M153.53,180.36h0c-3.11,0-7.42-3.32-7.42-6.43l.12-13.25h7.3v19.68Z"/>
    </g>
  </g>
</svg>