<?xml version="1.0" encoding="UTF-8"?>
<svg version="1.1" xmlns="http://www.w3.org/2000/svg" width="512" height="512">
<path d="M0 0 C12.70268668 10.82439307 22.00891394 25.89773319 23.6875 42.68359375 C23.3125 45.93359375 23.3125 45.93359375 21.6875 48.30859375 C18.74971938 50.31865418 16.8728504 50.86093354 13.3125 50.93359375 C10.5315054 49.86531122 8.78903356 48.91881286 7.4621582 46.17553711 C6.70889637 43.94499436 6.06224847 41.7034283 5.4375 39.43359375 C1.45857451 26.43447652 -4.64697062 16.02668998 -16.80078125 9.1796875 C-37.53980296 -0.93393648 -54.38773811 4.61607898 -75.1875 11.55859375 C-77.34586358 12.26712122 -79.50471589 12.97416164 -81.6640625 13.6796875 C-85.92241154 15.07293171 -90.17879394 16.47193209 -94.43359375 17.87597656 C-100.58463169 19.90257614 -106.7409918 21.91160083 -112.90625 23.89453125 C-114.25716736 24.33425766 -114.25716736 24.33425766 -115.63537598 24.78286743 C-116.47693237 25.05223114 -117.31848877 25.32159485 -118.18554688 25.59912109 C-118.91350464 25.83384125 -119.6414624 26.0685614 -120.39147949 26.31039429 C-139.27409427 31.43562524 -160.66589475 26.58585718 -179.75007677 24.29887009 C-184.04813057 23.7863233 -188.34765991 23.28646903 -192.64706421 22.78540039 C-200.76938165 21.83705932 -208.89052101 20.87902988 -217.01119268 19.91670704 C-231.57197788 18.19138151 -246.13435821 16.47964514 -260.69771707 14.77618694 C-265.79913921 14.17904685 -270.89990167 13.57662825 -276.00018048 12.96980286 C-279.17089322 12.59335912 -282.34203725 12.22064793 -285.51329422 11.84881973 C-286.97757093 11.67630759 -288.44166124 11.50220429 -289.90554047 11.32635117 C-307.48349483 9.21646061 -322.87173883 9.37521023 -337.38671875 20.76171875 C-338.14597656 21.4784375 -338.90523438 22.19515625 -339.6875 22.93359375 C-340.19603516 23.41086914 -340.70457031 23.88814453 -341.22851562 24.37988281 C-347.56300068 30.90490573 -350.99888314 39.06075522 -354.8125 47.18359375 C-355.5655099 48.76308043 -356.31951182 50.34209452 -357.07446289 51.9206543 C-359.29822788 56.58258214 -361.49722261 61.25585376 -363.6875 65.93359375 C-363.98803284 66.57500305 -364.28856567 67.21641235 -364.59820557 67.8772583 C-367.50221464 74.08022502 -370.37845723 80.29578064 -373.24609375 86.515625 C-377.32992138 95.35158707 -381.51186335 104.14074913 -385.6875 112.93359375 C-394.75151002 132.03124103 -403.79225952 151.14164233 -412.4375 170.43359375 C-412.76121582 171.15192383 -413.08493164 171.87025391 -413.41845703 172.61035156 C-421.96784246 191.87617065 -415.6008183 218.03817496 -413.52249765 238.48159456 C-413.07295053 242.92477159 -412.6352777 247.3691207 -412.1960144 251.81332397 C-411.45840101 259.25893705 -410.71271935 266.70370468 -409.96142578 274.14794922 C-409.09599841 282.72352746 -408.24086449 291.30008108 -407.39174473 299.87728846 C-406.48156685 309.07111324 -405.56523209 318.26431572 -404.64639425 327.45727873 C-404.38424648 330.08329163 -404.12308602 332.70940125 -403.86209488 335.33552933 C-403.45066715 339.47132442 -403.03498557 343.60667203 -402.61613846 347.74172211 C-402.46403882 349.24914248 -402.31324135 350.75669497 -402.16391754 352.26439285 C-400.28357927 371.22594089 -398.43141283 388.05146191 -383.78125 401.7109375 C-372.64617126 410.67832673 -360.10704009 413.58571269 -346.11297607 412.37963867 C-340.8538073 411.6948213 -335.95705794 410.25721425 -330.9140625 408.65234375 C-329.83910522 408.3225502 -328.76414795 407.99275665 -327.65661621 407.65296936 C-325.37701789 406.95198035 -323.09926672 406.24495918 -320.82330322 405.53225708 C-317.27145826 404.42075024 -313.71458535 403.32697698 -310.15576172 402.23803711 C-304.36080335 400.46346003 -298.56919398 398.67828949 -292.77880859 396.88885498 C-285.79765017 394.73157117 -278.81222925 392.59234587 -271.8125 390.49609375 C-270.66604004 390.13773437 -269.51958008 389.779375 -268.33837891 389.41015625 C-256.72958668 385.95509662 -245.01327259 385.34999967 -233 386.62109375 C-232.14728516 386.68748047 -231.29457031 386.75386719 -230.41601562 386.82226562 C-226.54806483 387.20754386 -224.30030488 387.46402964 -221.1640625 389.8671875 C-219.36352485 392.38698754 -218.76152915 393.82436949 -218.6875 396.93359375 C-220.96460843 402.57214797 -220.96460843 402.57214797 -223.6875 403.93359375 C-225.43604412 403.92608691 -227.18451311 403.85094984 -228.9296875 403.7421875 C-229.99703125 403.68482422 -231.064375 403.62746094 -232.1640625 403.56835938 C-234.39099065 403.43909515 -236.61758399 403.30389495 -238.84375 403.16210938 C-239.92398438 403.10603516 -241.00421875 403.04996094 -242.1171875 402.9921875 C-243.08897949 402.93345459 -244.06077148 402.87472168 -245.06201172 402.81420898 C-255.64467966 403.16268876 -265.52191084 406.19542027 -275.55078125 409.36328125 C-276.95477211 409.80001715 -278.35900845 410.23596456 -279.76347351 410.6711731 C-283.43398947 411.81042147 -287.10169416 412.95844505 -290.76867676 414.10900879 C-296.62289366 415.94447665 -302.4810547 417.76728385 -308.33977318 419.58832169 C-310.35603535 420.21654978 -312.37089193 420.84911846 -314.38557434 421.48239136 C-320.78388496 423.48526963 -327.20101106 425.40639334 -333.66870117 427.17236328 C-334.83543869 427.49109406 -336.00217621 427.80982483 -337.20426941 428.13821411 C-353.78603913 431.92458474 -371.58226689 429.92079197 -386.14453125 420.8515625 C-401.68932121 410.66689294 -411.70291909 396.84842998 -416.16845322 378.60262871 C-417.37870218 372.37930375 -417.85061261 366.02929399 -418.47509766 359.72485352 C-418.64240641 358.07948076 -418.81020004 356.43415726 -418.97843933 354.78887939 C-419.43247975 350.33177925 -419.87882187 345.87394103 -420.32308245 341.4158566 C-420.6021869 338.61874243 -420.88297259 335.82180222 -421.1643486 333.0249157 C-422.14951433 323.23197443 -423.12843499 313.43843176 -424.1015625 303.64428711 C-425.00268847 294.57645746 -425.91733367 285.51006243 -426.83849108 276.44424778 C-427.63300102 268.61874021 -428.4177519 260.79229167 -429.19528043 252.96507877 C-429.65788755 248.30972471 -430.12413025 243.65481399 -430.60029984 239.00082588 C-434.44990791 201.30034238 -434.54854975 175.16525483 -417.46554565 140.60429382 C-414.34996667 134.28371956 -411.38336014 127.89737831 -408.4375 121.49609375 C-402.90039456 109.49803027 -397.25825593 97.55192442 -391.58978271 85.615448 C-386.6678691 75.24971768 -381.78073596 64.86920699 -376.94726562 54.46194458 C-374.53869742 49.28051555 -372.11586528 44.10577169 -369.6875 38.93359375 C-369.27290527 38.04945801 -368.85831055 37.16532227 -368.43115234 36.25439453 C-364.61125124 28.16393903 -360.74158339 20.62787906 -354.6875 13.93359375 C-354.15769531 13.32386719 -353.62789063 12.71414062 -353.08203125 12.0859375 C-342.10514085 0.22255238 -325.75155779 -6.46489493 -309.73169327 -7.15005493 C-301.86895538 -7.27397751 -294.15361729 -6.34454787 -286.36230469 -5.4140625 C-284.83682646 -5.23621037 -283.31128644 -5.05888752 -281.78569031 -4.88204956 C-278.51752624 -4.50220377 -275.24979479 -4.11889029 -271.98235321 -3.73287964 C-266.80331813 -3.12129845 -261.62322505 -2.51903349 -256.44293213 -1.91821289 C-243.57597399 -0.42447465 -230.71031467 1.08034242 -217.84515381 2.58947754 C-207.84287087 3.76272089 -197.84019989 4.93239393 -187.83620954 6.09100056 C-182.69944117 6.68631109 -177.56360735 7.28896733 -172.42837572 7.89738464 C-169.2172019 8.27614948 -166.00526849 8.64813958 -162.79310036 9.01836777 C-161.31831403 9.18969997 -159.84383722 9.36372452 -158.36973381 9.54083633 C-130.55791346 12.87682496 -108.6091599 4.73718998 -82.62451172 -4.01757812 C-80.03648545 -4.88910491 -77.44666209 -5.75488563 -74.85476685 -6.61483765 C-72.43983273 -7.41643732 -70.02756086 -8.22612297 -67.61862183 -9.04556274 C-43.91192819 -16.87807618 -20.32356189 -15.62669221 0 0 Z " fill="#000000" transform="translate(433.6875,48.06640625)"/>
<path d="M0 0 C5.13023006 4.32120275 7.44769032 10.4390402 10.28320312 16.36230469 C11.24704319 18.36884446 12.23190796 20.3640669 13.21875 22.359375 C13.83984512 23.6425991 14.45967962 24.92643427 15.078125 26.2109375 C15.91972168 27.94802979 15.91972168 27.94802979 16.77832031 29.72021484 C18.04810061 33.1291334 18.41211574 35.40004782 18 39 C15.54405875 42.32274404 14.0743356 43.77618008 10 44.625 C5.88702888 43.76813102 4.59830831 42.28207365 2 39 C0.51967124 36.39134248 -0.76156119 33.72956444 -2 31 C-5.86020877 42.21302362 -8.98623357 53.64756589 -12.1550293 65.07084942 C-13.17902016 68.76082851 -14.21492023 72.44655011 -15.27880859 76.12524414 C-16.31449174 79.70750363 -17.31974566 83.29702942 -18.30410767 86.89371681 C-18.68264289 88.25663559 -19.07185309 89.61663743 -19.47201538 90.97336388 C-21.89871929 98.03579543 -21.89871929 98.03579543 -21.14152527 105.13825989 C-19.70877227 107.01174361 -19.70877227 107.01174361 -17 109 C-16.37738281 109.59425781 -15.75476563 110.18851562 -15.11328125 110.80078125 C-14.22189453 111.54908203 -14.22189453 111.54908203 -13.3125 112.3125 C-9.19596833 115.81859541 -5.19417359 119.43828123 -1.19921875 123.08203125 C1.04822519 125.12519492 1.04822519 125.12519492 4 127 C4.268125 126.29875 4.53625 125.5975 4.8125 124.875 C6.0681449 121.8350176 7.50235123 118.9272226 9 116 C8.25878906 115.7421875 7.51757812 115.484375 6.75390625 115.21875 C0.67174107 112.52706839 -3.75496549 107.30077813 -6.5 101.3125 C-9.07161705 93.85021839 -9.38227428 85.58130555 -6.4375 78.1875 C-2.29868364 70.23161273 3.82932128 63.98872258 12.25 60.75 C21.81554958 58.83689008 29.65731243 60.06675977 38.1875 64.75 C45.73465061 70.78772049 49.79248887 77.68100398 51.3828125 87.3203125 C51.81901318 95.43364523 48.81239342 103.22760662 43.6875 109.4375 C40.45088007 112.83455584 37.23840368 115.00545709 33 117 C32.34 117 31.68 117 31 117 C31.99 121.95 31.99 121.95 33 127 C35.23578906 125.7804787 37.4715237 124.56085756 39.70703125 123.34082031 C41.66968024 122.27082192 43.63323887 121.20249052 45.59765625 120.13574219 C50.80358243 117.30564156 55.99146695 114.44972804 61.1484375 111.53125 C62.62062744 110.70608887 62.62062744 110.70608887 64.12255859 109.86425781 C66.0088255 108.80605344 67.88961475 107.73801186 69.76416016 106.65917969 C77.85027481 102.14958667 77.85027481 102.14958667 83 103 C85.875 104.5 85.875 104.5 88 107 C89.01822662 111.85615775 89.01822662 111.85615775 88 115 C81.8831608 121.92410705 71.13906371 125.87303419 63.0625 130.0625 C60.78737362 131.25073173 58.51329928 132.44095791 56.23934937 133.63143921 C54.78586623 134.39222022 53.33195696 135.15218771 51.87759399 135.9112854 C46.87193242 138.52774913 41.91707476 141.21981097 37 144 C37.39433439 149.94614754 37.88295979 155.77749213 39.0625 161.625 C41.51372614 174.55475009 41.51372614 174.55475009 38.375 179.625 C35.4123465 181.34022045 33.37068448 181.10158227 30 181 C30.00523682 181.69859131 30.01047363 182.39718262 30.01586914 183.11694336 C30.16799129 206.56493624 30.16799129 206.56493624 29.75 216.875 C29.70359375 218.17179688 29.6571875 219.46859375 29.609375 220.8046875 C28.90243291 224.51160177 27.95986344 225.73205269 25 228 C22.5625 228.9375 22.5625 228.9375 20 229 C16.51365399 227.37844371 15.15697806 226.23546708 13 223 C12.76953125 219.97265625 12.76953125 219.97265625 12.8125 216.0625 C12.81894531 215.349729 12.82539063 214.63695801 12.83203125 213.90258789 C12.99031429 201.93119626 13.5226878 189.96200216 14 178 C12.10207392 178.05686183 12.10207392 178.05686183 10 179 C8.11292921 181.57009387 8.11292921 181.57009387 6.4609375 184.84375 C6.13839493 185.44076218 5.81585236 186.03777435 5.48353577 186.65287781 C4.79370261 187.93279886 4.10974417 189.21590031 3.43112183 190.50180054 C2.37282612 192.50411302 1.29700273 194.49595795 0.21508789 196.4855957 C-2.40994216 201.31639329 -5.01406294 206.15828752 -7.60888672 211.00537109 C-8.90602173 213.41165701 -10.22907525 215.80120178 -11.5625 218.1875 C-11.91844238 218.868125 -12.27438477 219.54875 -12.64111328 220.25 C-14.61161621 223.73113024 -15.85722813 224.94053753 -19.6015625 226.5 C-23 227 -23 227 -25.8125 225.8125 C-28 224 -28 224 -30 221 C-29.73615108 215.64866418 -28.19178225 211.91583438 -25.578125 207.2890625 C-25.2362616 206.67662689 -24.89439819 206.06419128 -24.54217529 205.43319702 C-23.45504692 203.49114576 -22.35296535 201.55809191 -21.25 199.625 C-20.52502209 198.33651064 -19.80105515 197.04745191 -19.078125 195.7578125 C-17.68991133 193.28483413 -16.296167 190.81513745 -14.89648438 188.34863281 C-12.57296786 184.24598702 -10.28021575 180.12683032 -8 176 C-9.134375 175.54625 -10.26875 175.0925 -11.4375 174.625 C-15 173 -15 173 -16 171 C-16.77570883 163.73581002 -14.59001026 159.40209884 -11 153.1875 C-10.05723788 151.51728224 -9.11949081 149.8442208 -8.1875 148.16796875 C-7.55908203 147.07391724 -7.55908203 147.07391724 -6.91796875 145.95776367 C-5.78773244 143.90767621 -5.78773244 143.90767621 -6 141 C-7.35517144 139.46505633 -7.35517144 139.46505633 -9.25 138 C-13.62135595 134.34936941 -17.79883144 130.5283671 -21.96191406 126.64453125 C-24.76159016 124.01895086 -24.76159016 124.01895086 -28 122 C-28.09796875 123.05703125 -28.1959375 124.1140625 -28.296875 125.203125 C-29.05113158 131.18970698 -30.66056644 136.94011306 -32.25 142.75 C-32.53746094 143.87277344 -32.82492187 144.99554688 -33.12109375 146.15234375 C-33.41628906 147.23128906 -33.71148437 148.31023437 -34.015625 149.421875 C-34.27633789 150.39737305 -34.53705078 151.37287109 -34.80566406 152.37792969 C-36.30497636 155.66955153 -37.96236319 157.07711321 -41 159 C-44.4811251 158.9399806 -46.90130319 158.87120419 -49.68139648 156.66674805 C-51.59425383 154.24884819 -51.49237062 151.97758074 -51.39111328 148.98291016 C-50.48585112 142.07873219 -48.34030321 135.37220969 -46.4375 128.6875 C-45.77881634 126.36561 -45.12376161 124.04302697 -44.48072815 121.7167511 C-44.08275371 120.27728752 -43.67586123 118.84025144 -43.25889587 117.40617371 C-41.90405396 112.65680229 -41.90405396 112.65680229 -43 108 C-44.0209375 107.13375 -44.0209375 107.13375 -45.0625 106.25 C-47.53657303 103.37688293 -47.59285552 101.60550188 -47.37890625 97.90625 C-47 96 -47 96 -45.4375 93.5 C-42.17971981 91.49521219 -39.75217167 91.71137141 -36 92 C-35.89595856 91.43075806 -35.79191711 90.86151611 -35.6847229 90.27502441 C-34.30444533 83.0323745 -32.45988945 75.95526316 -30.5234375 68.84375 C-30.19332672 67.61966431 -29.86321594 66.39557861 -29.52310181 65.13439941 C-28.47679387 61.25543132 -27.42631763 57.37761207 -26.375 53.5 C-25.31658453 49.5938143 -24.25960037 45.68725334 -23.20547485 41.77990723 C-22.55131818 39.3553383 -21.89478866 36.93140812 -21.23568726 34.50817871 C-20.94183136 33.41944458 -20.64797546 32.33071045 -20.34521484 31.20898438 C-20.08477386 30.24875366 -19.82433289 29.28852295 -19.55599976 28.29919434 C-18.92165043 26.07024983 -18.92165043 26.07024983 -19 24 C-19.64066406 24.3609375 -20.28132813 24.721875 -20.94140625 25.09375 C-30.30394894 30.11687276 -30.30394894 30.11687276 -36 29 C-39 26.9375 -39 26.9375 -41 24 C-41.0683449 20.10434064 -40.8086306 17.94953779 -38.25708008 14.95336914 C-35.8705698 12.88798583 -33.67769487 11.64560871 -30.82421875 10.30859375 C-29.83099609 9.83873047 -28.83777344 9.36886719 -27.81445312 8.88476562 C-26.78255859 8.40716797 -25.75066406 7.92957031 -24.6875 7.4375 C-23.66720703 6.95603516 -22.64691406 6.47457031 -21.59570312 5.97851562 C-18.73788382 4.63550681 -15.8718005 3.31280047 -13 2 C-11.92165894 1.50028687 -11.92165894 1.50028687 -10.8215332 0.99047852 C-6.73037863 -0.85159227 -4.35391833 -1.45130611 0 0 Z M9.625 82.8125 C7.67367477 86.64009949 7.3934901 88.75443071 8 93 C10.42531458 97.75734783 13.15448563 100.71438001 18 103 C22.72066398 103.42375799 26.65269934 102.66494428 30.4375 99.75 C34.23148838 95.67840271 35.02610861 93.6448427 34.9375 88.0625 C34.19745017 83.4567781 32.35370717 81.20126594 29 78 C21.1902996 73.59452798 15.11001182 76.31709127 9.625 82.8125 Z M17 136 C12.71 143.92 8.42 151.84 4 160 C8.17673343 162.08836672 10.65211418 162.3695619 15.25 162.625 C16.51328125 162.69976562 17.7765625 162.77453125 19.078125 162.8515625 C20.04234375 162.90054688 21.0065625 162.94953125 22 163 C21.43708547 153.83808082 19.79203512 144.98271694 18 136 C17.67 136 17.34 136 17 136 Z " fill="#000000" transform="translate(377,159)"/>
<path d="M0 0 C2.625 2.0625 2.625 2.0625 4 5 C4.0625 8.5625 4.0625 8.5625 3 12 C-1.61696813 16.69812577 -7.33080104 17.86189619 -13.49414062 19.53515625 C-17.45607216 20.72537966 -19.64955114 21.6479843 -22.62109375 24.6328125 C-25.56471315 31.82091428 -22.49271105 39.28647129 -19.91015625 46.2421875 C-19.60556992 47.09120636 -19.30098358 47.94022522 -18.98716736 48.81497192 C-18.02155476 51.50510786 -17.04351556 54.19044621 -16.0625 56.875 C-8.78868506 76.80903856 -3.97047507 92.2726217 -12 113 C-2.49529109 122.7931547 -2.49529109 122.7931547 7.5625 132 C9.98283245 134.07608385 12.30301086 136.18631167 14.5 138.5 C14.9846875 139.0053125 15.469375 139.510625 15.96875 140.03125 C18.68897111 145.22439939 16.59611997 151.60982323 15.171875 156.98046875 C14.98159729 157.71574295 14.79131958 158.45101715 14.59527588 159.20857239 C14.19277396 160.75177998 13.78578286 162.29382306 13.37451172 163.8347168 C12.75006062 166.18727163 12.14982539 168.54516193 11.55078125 170.90429688 C11.15510089 172.40923748 10.75801338 173.91380898 10.359375 175.41796875 C10.18315613 176.11907272 10.00693726 176.8201767 9.82537842 177.54252625 C8.68346419 181.71832539 7.41938639 184.29995119 4 187 C1.23165449 187.7840041 -1.20357793 187.64048931 -4 187 C-6.5625 185.0625 -6.5625 185.0625 -8 182 C-7.54982675 173.71681226 -5.24912704 166.03358801 -2.99609375 158.08789062 C-2.59197266 156.6115918 -2.59197266 156.6115918 -2.1796875 155.10546875 C-1.92944824 154.22012451 -1.67920898 153.33478027 -1.42138672 152.42260742 C-0.97130965 149.83505541 -1.0416963 148.42968437 -2 146 C-3.791942 144.15278706 -5.55895907 142.48618889 -7.5 140.8125 C-8.59008344 139.84548521 -9.67860702 138.87670939 -10.765625 137.90625 C-11.30896484 137.42285156 -11.85230469 136.93945312 -12.41210938 136.44140625 C-16.08355688 133.10865316 -19.53449429 129.5442672 -23 126 C-23.99 126.495 -23.99 126.495 -25 127 C-24.45472656 127.60585938 -23.90945312 128.21171875 -23.34765625 128.8359375 C-21.75978934 130.60023407 -20.17819796 132.37019071 -18.6015625 134.14453125 C-16.91332438 135.99753735 -15.18031465 137.81107004 -13.3984375 139.57421875 C-12.58632812 140.39535156 -11.77421875 141.21648437 -10.9375 142.0625 C-10.18339844 142.79597656 -9.42929688 143.52945313 -8.65234375 144.28515625 C-6.1882209 148.33377416 -6.08757166 151.37953727 -7 156 C-8.74464806 160.64256276 -10.95364555 164.98389824 -13.25 169.375 C-13.83652344 170.54933594 -14.42304688 171.72367188 -15.02734375 172.93359375 C-20.00439753 182.67519788 -20.00439753 182.67519788 -24 185 C-27.88040089 185.48505011 -30.0761612 185.56851618 -33.4375 183.5 C-35.6078138 180.02749793 -35.592086 176.94469338 -35 173 C-33.76258805 169.77442602 -32.13296856 166.81798884 -30.4375 163.8125 C-27.17827206 158.34777428 -27.17827206 158.34777428 -25.921875 152.26171875 C-27.38534112 149.19162134 -29.33473391 147.32177203 -31.8125 145 C-35.16769732 141.82817388 -38.18989924 138.6681968 -41 135 C-45.56180075 135.63652022 -49.68907942 136.7919871 -54.04296875 138.28515625 C-54.69324539 138.50570175 -55.34352203 138.72624725 -56.01350403 138.95347595 C-58.07302359 139.65211085 -60.13047219 140.35656491 -62.1875 141.0625 C-64.90842551 141.99606711 -67.63128038 142.92365993 -70.35546875 143.84765625 C-71.55840576 144.26023682 -72.76134277 144.67281738 -74.00073242 145.09790039 C-77 146 -77 146 -80 146 C-80.18175781 146.99966797 -80.18175781 146.99966797 -80.3671875 148.01953125 C-80.53476563 148.94121094 -80.70234375 149.86289062 -80.875 150.8125 C-81.04128906 151.82183594 -81.20757812 152.83117187 -81.37890625 153.87109375 C-82 157 -82 157 -82.96484375 159.72265625 C-83.93895009 162.77066641 -84.3551175 164.80394253 -84 168 C-81.30854532 172.2832878 -78.05659091 175.80019276 -74.53808594 179.41552734 C-63.5003028 190.786196 -63.5003028 190.786196 -63.1875 196.4375 C-64 200 -64 200 -65.5625 202.5 C-68.96381375 204.59311615 -71.07072743 204.55147685 -75 204 C-78.66299552 201.43996668 -81.36315118 198.55419099 -84.125 195.0625 C-86.69624304 191.84736584 -89.27568785 188.65528032 -91.95703125 185.53125 C-92.70025635 184.66487915 -92.70025635 184.66487915 -93.45849609 183.78100586 C-94.42594344 182.65689529 -95.39621347 181.53520629 -96.36962891 180.41625977 C-102.09492088 173.74021605 -102.09492088 173.74021605 -101.8125 168.5625 C-100.89140747 162.64279558 -99.41023791 156.81834005 -98 151 C-99.98 150.67 -101.96 150.34 -104 150 C-104.11085937 150.99 -104.22171875 151.98 -104.3359375 153 C-105.03190108 157.88895972 -106.69166794 162.40851417 -108.359375 167.0390625 C-109.93876174 171.74091498 -110.3879349 175.09170914 -109 180 C-107.2329649 183.37601307 -105.17991703 186.5224411 -103.0625 189.6875 C-101.9686066 191.35712677 -100.87610566 193.02766686 -99.78515625 194.69921875 C-99.29926025 195.42971436 -98.81336426 196.16020996 -98.31274414 196.9128418 C-96.07202867 200.4754002 -94.97371195 202.2507905 -95.125 206.5625 C-96 210 -96 210 -97.625 211.9375 C-101.1210509 213.50152277 -103.20604883 213.65412951 -107 213 C-112.53714616 207.3442007 -116.65317134 200.72660744 -120.875 194.0625 C-121.90753906 192.49338867 -121.90753906 192.49338867 -122.9609375 190.89257812 C-123.610625 189.86712891 -124.2603125 188.84167969 -124.9296875 187.78515625 C-125.51991699 186.86613525 -126.11014648 185.94711426 -126.71826172 185.00024414 C-129.41574401 178.68608035 -127.99752439 172.99202304 -126.03125 166.65625 C-125.73160339 165.67440735 -125.73160339 165.67440735 -125.42590332 164.67272949 C-124.79433386 162.61177319 -124.14750872 160.55599711 -123.5 158.5 C-123.06538193 157.09146149 -122.63177893 155.68260935 -122.19921875 154.2734375 C-121.14450551 150.84525904 -120.07606912 147.42154365 -119 144 C-119.77794922 143.70883301 -120.55589844 143.41766602 -121.35742188 143.11767578 C-124.43641609 141.81541825 -126.15441289 140.24536444 -128.5 137.875 C-129.2321875 137.15054688 -129.964375 136.42609375 -130.71875 135.6796875 C-132.68172522 133.37386387 -133.75782537 131.53948578 -135.12109375 128.8984375 C-137.81424593 124.45635 -140.80568887 123.57741312 -145.70898438 122.359375 C-147.12147461 122.05773437 -147.12147461 122.05773437 -148.5625 121.75 C-160.25720466 119.07145824 -160.25720466 119.07145824 -163 115 C-163.56921855 111.01547016 -163.67149179 108.94506252 -161.3125 105.625 C-158.68140775 103.77612436 -157.18283583 103.35716482 -154 103 C-150.88671875 103.55859375 -150.88671875 103.55859375 -147.6875 104.4375 C-146.08455078 104.86869141 -146.08455078 104.86869141 -144.44921875 105.30859375 C-143.64097656 105.53675781 -142.83273438 105.76492188 -142 106 C-141.84144531 105.10539062 -141.68289062 104.21078125 -141.51953125 103.2890625 C-139.47224341 92.67936086 -136.51725089 83.92358877 -129 76 C-126.14675563 74.57337781 -124.16545451 74.68966132 -121 75 C-118.125 76.5625 -118.125 76.5625 -116 79 C-114.63423563 84.46305749 -116.64735712 87.48662206 -119.4375 92.25 C-120.07558594 93.26578125 -120.71367188 94.2815625 -121.37109375 95.328125 C-125.01101563 101.29864434 -124.87854713 107.95155985 -123.421875 114.6640625 C-120.83700937 122.25416795 -115.85625321 127.55541152 -108.6953125 131.16015625 C-100.0651029 134.37035532 -92.75720961 132.98441199 -84.3046875 130.11328125 C-83.39478058 129.81439499 -82.48487366 129.51550873 -81.5473938 129.20756531 C-78.65280939 128.25356998 -75.7640321 127.28316259 -72.875 126.3125 C-70.95867921 125.67929082 -69.04201492 125.04712021 -67.125 124.41601562 C-61.74066341 122.63785204 -56.36871079 120.82471147 -51 119 C-50.25989685 118.75074768 -49.5197937 118.50149536 -48.75726318 118.24468994 C-46.80931772 117.58677081 -44.86543075 116.91686953 -42.921875 116.24609375 C-41.87354492 115.88572021 -40.82521484 115.52534668 -39.74511719 115.15405273 C-33.58358429 112.56373203 -29.50184463 108.58678027 -26.5625 102.625 C-23.34933454 94.14740719 -23.55485726 87.39753543 -27 79 C-30.29709696 72.65003548 -35.47068318 68.72544378 -41.8125 65.625 C-53.29028812 63.37445331 -62.56432938 66.77350685 -73.25 70.5625 C-76.24944079 71.62313028 -79.25510677 72.66270776 -82.265625 73.69140625 C-82.9386969 73.93717911 -83.6117688 74.18295197 -84.30523682 74.43617249 C-88.90508263 76.00807749 -92.27454332 76.07032403 -97 75 C-98.9375 73.9375 -98.9375 73.9375 -100 72 C-100.61057692 66.50480769 -100.61057692 66.50480769 -100 64 C-96.84974013 60.06904916 -93.2298658 58.7133632 -88.56640625 57.23828125 C-87.85145493 57.00215622 -87.1365036 56.76603119 -86.39988708 56.52275085 C-84.12428307 55.77467445 -81.84355082 55.04377593 -79.5625 54.3125 C-78.03286087 53.81028603 -76.50355984 53.30704103 -74.97460938 52.80273438 C-73.50551228 52.32198684 -72.03612047 51.8421388 -70.56640625 51.36328125 C-69.88292618 51.14037918 -69.19944611 50.91747711 -68.49525452 50.68782043 C-62.31513791 48.70946594 -57.05588998 47.86192167 -50.5625 47.875 C-49.28503906 47.87242187 -48.00757813 47.86984375 -46.69140625 47.8671875 C-43.3607663 47.98702005 -40.26635544 48.36389369 -37 49 C-37.28875 48.18917969 -37.5775 47.37835938 -37.875 46.54296875 C-40.96832774 37.31668914 -43.18070346 28.19306115 -39.1015625 18.91015625 C-35.15736264 12.07074585 -30.29466888 7.826391 -23 5 C-21.90945312 4.55527344 -20.81890625 4.11054688 -19.6953125 3.65234375 C-12.97947995 1.05988796 -7.20759946 -1.16251604 0 0 Z " fill="#000000" transform="translate(233,165)"/>
<path d="M0 0 C4.15490906 3.22326708 5.10212046 6.8780019 6.20703125 11.8046875 C6.40483688 12.62952637 6.60264252 13.45436523 6.80644226 14.30419922 C7.24886311 16.15668489 7.68458385 18.01077937 8.11474609 19.8661499 C8.83483426 22.97130967 9.57151346 26.07212686 10.3125 29.17236328 C11.1737953 32.77606926 12.03396966 36.38001073 12.88955688 39.9850769 C15.69412423 51.79624969 18.58231225 63.58648812 21.48046875 75.375 C21.72334373 76.36293674 21.96621872 77.35087349 22.21645355 78.36874771 C22.46114632 79.36404369 22.70583908 80.35933968 22.95794678 81.38479614 C23.45782083 83.41814781 23.95767831 85.45150355 24.45751953 87.48486328 C24.70740883 88.50134005 24.95729813 89.51781681 25.21475983 90.5650959 C28.23820432 102.86975842 31.2362671 115.18061266 34.23432159 127.49148178 C36.7056772 137.63818895 39.18373204 147.7827798 41.72178841 157.91303444 C43.05729714 163.24354505 44.37213387 168.57890673 45.67675781 173.91705322 C46.171103 175.92041246 46.67404939 177.9216758 47.18701172 179.92034912 C51.97556422 198.59774679 53.43724255 216.53414609 47 235 C46.49638002 236.48696587 45.99280153 237.9739458 45.48925781 239.4609375 C43.75940811 244.4953224 41.94524282 249.49773856 40.125 254.5 C39.46240394 256.33209945 38.80030352 258.16437822 38.13867188 259.99682617 C37.11727943 262.82539334 36.09538551 265.65376803 35.07098389 268.48124695 C32.72592512 274.9602857 30.4266041 281.45420951 28.1484375 287.95703125 C27.22727065 290.57258091 26.30502775 293.187748 25.38226318 295.80273438 C24.80305223 297.45041021 24.22729434 299.09930479 23.65533447 300.74951172 C16.20170585 322.2329472 7.05302669 338.64843216 -13.8203125 349.4609375 C-22.62056102 353.70172579 -30.93795341 355.38220228 -40.67944336 355.33935547 C-41.65379554 355.33595091 -42.62814772 355.33254635 -43.63202572 355.32903862 C-58.95429052 355.0982187 -74.21619338 353.34883365 -89.45277143 351.83499765 C-93.996211 351.3856253 -98.54077844 350.94792907 -103.08518982 350.5085144 C-110.69126317 349.77129531 -118.29644752 349.02541928 -125.90112305 348.27392578 C-134.68059284 347.40642522 -143.46124899 346.5518622 -152.24265915 345.70424473 C-160.73452393 344.88436836 -169.22559234 344.05652275 -177.71629143 343.2246666 C-181.31439517 342.87222715 -184.91273646 342.52237544 -188.51129341 342.17459488 C-192.73680899 341.76578308 -196.96157424 341.3499275 -201.18586349 340.92863846 C-202.73279144 340.77546617 -204.27995576 340.62465941 -205.82736397 340.47641754 C-207.94201422 340.27342163 -210.05562711 340.06176755 -212.16920471 339.84793091 C-213.35056787 339.73178499 -214.53193102 339.61563908 -215.74909306 339.49597359 C-219.9442442 338.85594168 -223.69075235 338.14031247 -226.9375 335.3125 C-228.50767574 331.89505867 -227.91215899 329.58348175 -227 326 C-225.8125 324.125 -225.8125 324.125 -224 323 C-219.53971651 322.00206059 -215.68286454 322.03230866 -211.14901733 322.48716736 C-210.48421596 322.55164977 -209.81941459 322.61613218 -209.13446772 322.68256861 C-206.91875534 322.89935303 -204.70433879 323.12730718 -202.48974609 323.35522461 C-200.89578601 323.51341407 -199.30175412 323.67088137 -197.70765686 323.8276825 C-194.2778431 324.16647604 -190.84855974 324.51009872 -187.41959763 324.85740471 C-181.97890023 325.40816252 -176.53701282 325.94644992 -171.09487915 326.48280334 C-157.56581997 327.81812371 -144.03840523 329.16984754 -130.5112915 330.52471924 C-120.01765398 331.5755698 -109.52359567 332.62178733 -99.02818549 333.65480238 C-94.51436525 334.09950264 -90.00100946 334.54811155 -85.48853683 335.00629997 C-45.89403014 340.81345541 -45.89403014 340.81345541 -10 327 C0.31992981 318.01297698 4.92635469 303.25964095 9.21484375 290.6953125 C9.67812996 289.36006719 10.14222633 288.02510275 10.60707092 286.69039917 C11.81747221 283.20757134 13.01629818 279.72086998 14.21270752 276.23321533 C15.40692116 272.75958725 16.61331684 269.29019538 17.81835938 265.8203125 C19.23425934 261.7418408 20.64512785 257.66186453 22.0352478 253.57452393 C22.26007151 252.91349041 22.48489521 252.25245689 22.71653175 251.57139206 C23.16278568 250.25929081 23.60895252 248.94715994 24.05502892 247.63499832 C25.47001877 243.4929436 26.95283702 239.38079172 28.47314453 235.27636719 C28.84999893 234.22947723 29.22685333 233.18258728 29.61512756 232.10397339 C30.29362768 230.22106463 30.99218592 228.34515046 31.71873474 226.48025513 C36.93853381 211.72113369 33.79184342 196.50390822 30.03125 181.81640625 C29.60138499 180.07192213 29.17343087 178.32696623 28.74720764 176.58158875 C27.83184731 172.84977972 26.90379987 169.12145779 25.96536255 165.39538574 C24.47435455 159.47370241 23.0142204 153.54466251 21.55834961 147.61425781 C19.48332376 139.17319577 17.39636753 130.73517549 15.30029297 122.29931641 C10.49320346 102.94727637 5.72813999 83.58497331 1.00010872 64.2134676 C-0.61336439 57.60611907 -2.24008103 51.00222015 -3.87741756 44.40074635 C-4.89579643 40.28443813 -5.90363243 36.16560065 -6.90872383 32.04603004 C-7.37827307 30.13097063 -7.85221545 28.21698225 -8.33085442 26.30417442 C-8.98557635 23.68501152 -9.62439677 21.06244937 -10.25952148 18.43847656 C-10.45301933 17.68068185 -10.64651718 16.92288713 -10.8458786 16.14212894 C-12.07769043 10.95193717 -12.61572116 5.94631505 -9.9375 1.0625 C-6.80972014 -0.65273412 -3.41294798 -0.83194701 0 0 Z " fill="#000000" transform="translate(461,117)"/>
<path d="M0 0 C3.66797377 0.06986617 4.35186381 0.11907592 7.125 2.75 C12.55232274 13.30725794 11.61327297 26.98948205 8.7890625 38.1015625 C4.2950295 51.71115181 -3.95345704 62.29379786 -16.3125 69.4375 C-16.93640625 69.81648438 -17.5603125 70.19546875 -18.203125 70.5859375 C-30.82426004 77.63892473 -45.51461307 77.9241297 -59.2109375 74.41015625 C-73.3478134 69.97680348 -84.70498299 60.47073225 -91.75 47.5 C-94.30334586 42.1065689 -95.15741841 38.35192885 -94.3125 32.4375 C-92.71417031 30.24166388 -91.84363322 29.53564418 -89.15625 29.0390625 C-88.3828125 29.04679687 -87.609375 29.05453125 -86.8125 29.0625 C-86.0390625 29.05476563 -85.265625 29.04703125 -84.46875 29.0390625 C-81.72238146 29.54654364 -80.99163135 30.21915463 -79.3125 32.4375 C-78.35431131 34.30259405 -77.46188837 36.2024186 -76.625 38.125 C-75.96951172 39.61580078 -75.96951172 39.61580078 -75.30078125 41.13671875 C-74.97464844 41.89597656 -74.64851563 42.65523437 -74.3125 43.4375 C-73.88839844 42.83421875 -73.46429688 42.2309375 -73.02734375 41.609375 C-68.91860506 36.01065415 -65.43294841 31.35186579 -58.234375 30.06640625 C-54.86629485 29.86057913 -52.67780696 30.20918315 -49.8125 32 C-47.74398382 35.3613388 -47.82744989 37.55709911 -48.3125 41.4375 C-49.89102919 44.59455838 -51.02809246 45.31899686 -54.3125 46.6875 C-58.61609975 49.19793319 -58.92727278 51.74311887 -60.3125 56.4375 C-46.59425987 60.39740437 -35.89887195 60.76952557 -23.125 53.8125 C-17.4781027 50.24088199 -12.26744643 45.31731093 -10.62890625 38.66015625 C-10.52449219 37.92667969 -10.42007813 37.19320312 -10.3125 36.4375 C-13.7090273 33.72027816 -16.10004869 33.28660622 -20.3125 33.4375 C-23.44453868 33.51218349 -25.35569724 33.42339478 -28.375 32.4375 C-30.86104553 29.87125945 -31.33954685 27.962199 -31.5859375 24.44140625 C-31.3125 22.4375 -31.3125 22.4375 -29.0625 19.5 C-23.86855115 15.60453836 -18.56382558 16.05458405 -12.3125 16.4375 C-8.625 17.4375 -8.625 17.4375 -6.3125 18.4375 C-6.49167969 17.62925781 -6.67085938 16.82101563 -6.85546875 15.98828125 C-7.06816406 14.91964844 -7.28085938 13.85101563 -7.5 12.75 C-7.72042969 11.69425781 -7.94085938 10.63851562 -8.16796875 9.55078125 C-8.34008777 5.84324455 -7.49614076 4.3719325 -5.3125 1.4375 C-3.74340241 -0.13159759 -2.17203743 0.11731135 0 0 Z " fill="#000000" transform="translate(224.3125,94.5625)"/>
<path d="M0 0 C2.74917894 2.0860481 3.62721498 4.20253982 4.60546875 7.45703125 C4.99702148 8.75543945 4.99702148 8.75543945 5.39648438 10.08007812 C5.78803711 11.43262695 5.78803711 11.43262695 6.1875 12.8125 C6.46013672 13.70259766 6.73277344 14.59269531 7.01367188 15.50976562 C8.35986701 20.06118726 9.57405855 24.208819 9 29 C6.9375 31.875 6.9375 31.875 4 34 C0.4375 34.5625 0.4375 34.5625 -3 34 C-7.51723708 30.70924029 -8.41007294 26.4074551 -9.75 21.25 C-9.97042969 20.4765625 -10.19085938 19.703125 -10.41796875 18.90625 C-11.79865074 13.79515392 -12.34674964 9.29371114 -12 4 C-8.99732176 -1.00446374 -5.31746703 -0.59082967 0 0 Z " fill="#000000" transform="translate(84,372)"/>
<path d="M0 0 C2.96801241 2.26046078 5.39009643 4.91531015 7.875 7.6875 C8.55046875 8.39583984 9.2259375 9.10417969 9.921875 9.83398438 C13.45398903 13.67462644 16.06454594 16.51359488 16 22 C14.86220128 24.32731556 13.83159286 26.16840714 12 28 C8.08657217 28.54925303 5.46377055 28.86391164 2.0078125 26.82421875 C-0.16044911 24.99991832 -2.07420361 23.08000355 -4 21 C-4.82628906 20.10796875 -5.65257812 19.2159375 -6.50390625 18.296875 C-12.89911047 10.97091336 -12.89911047 10.97091336 -13.33203125 6.8046875 C-12.95182682 3.5930783 -12.27154002 2.27154002 -10 0 C-6.02211372 -1.32596209 -4.06964907 -1.11560195 0 0 Z " fill="#000000" transform="translate(66,391)"/>
<path d="M0 0 C3.35703211 0.93250892 4.32799955 1.28512383 6.375 3.9375 C7.6236415 10.1503667 5.74069226 16.04518245 3.5625 21.8125 C3.30146484 22.55757813 3.04042969 23.30265625 2.77148438 24.0703125 C1.43885233 27.72929232 0.4180906 30.37132973 -2.625 32.9375 C-4.78125 33.3359375 -4.78125 33.3359375 -7.125 33.3125 C-8.28515625 33.32410156 -8.28515625 33.32410156 -9.46875 33.3359375 C-12.1709507 32.83661781 -12.92340949 32.06366474 -14.625 29.9375 C-15.8463865 23.78439033 -14.04629864 17.86361341 -11.9375 12.125 C-11.69322266 11.38830078 -11.44894531 10.65160156 -11.19726562 9.89257812 C-9.12975378 4.09831076 -6.75440694 -0.11645529 0 0 Z " fill="#000000" transform="translate(110.625,382.0625)"/>
<path d="M0 0 C2.5 1.5625 2.5 1.5625 4 4 C4.34489043 9.33916909 3.54883461 13.99751112 2.25 19.125 C2.01410156 20.15947266 2.01410156 20.15947266 1.7734375 21.21484375 C0.66866908 25.6594121 -0.72722526 28.77036919 -4 32 C-8.33559692 32.78829035 -10.25799683 32.46375198 -14 30.125 C-16.48180311 26.24718265 -16.35388189 24.40514356 -15.65234375 19.96875 C-10.84261855 -1.91981978 -10.84261855 -1.91981978 0 0 Z " fill="#000000" transform="translate(283,378)"/>
<path d="M0 0 C3.15180293 2.03116189 4.69536055 3.64704246 5.53125 7.359375 C5.83188803 10.24884051 5.94057681 13.09569171 6 16 C6.061875 17.06992187 6.12375 18.13984375 6.1875 19.2421875 C6.50432127 27.34093115 6.50432127 27.34093115 4.23046875 30.3125 C1.25759228 32.5616815 -0.47740652 32.6560672 -4.09765625 32.43359375 C-6 32 -6 32 -8.4375 30.125 C-10.63513637 25.72972726 -10.82960878 21.86270327 -11 17 C-11.07476562 15.87851562 -11.14953125 14.75703125 -11.2265625 13.6015625 C-11.27554688 12.45429688 -11.32453125 11.30703125 -11.375 10.125 C-11.42398438 9.05507813 -11.47296875 7.98515625 -11.5234375 6.8828125 C-11 4 -11 4 -8.6640625 1.65234375 C-5.3763345 -0.38681893 -3.80176172 -0.71283032 0 0 Z " fill="#000000" transform="translate(253,373)"/>
<path d="M0 0 C4.29152493 3.22489349 5.62435159 7.41729272 7.3125 12.3125 C7.72725586 13.41368164 7.72725586 13.41368164 8.15039062 14.53710938 C9.85636801 19.38002251 10.27923083 22.8830767 9 28 C6.63506574 30.81972931 5.1719335 30.97850831 1.5 31.4375 C-2.70125284 30.91234339 -3.39355996 30.23719853 -6 27 C-7.06980744 24.55633458 -7.95617448 22.27677637 -8.75 19.75 C-8.96390381 19.08121826 -9.17780762 18.41243652 -9.39819336 17.72338867 C-10.87852264 12.87712167 -11.84954031 9.0028485 -11 4 C-8.16250305 -0.53999512 -5.10870514 -0.72981502 0 0 Z " fill="#000000" transform="translate(228,377)"/>
<path d="M0 0 C1.94140625 0.40234375 1.94140625 0.40234375 4.44140625 2.33984375 C6.50650439 6.55608579 6.29583236 9.7948043 5.94140625 14.40234375 C5.89757812 15.34335937 5.85375 16.284375 5.80859375 17.25390625 C5.21007662 26.90824784 5.21007662 26.90824784 1.94140625 30.40234375 C-1.40568278 32.07588826 -3.15634857 32.62790505 -6.80859375 31.71484375 C-9.05859375 30.40234375 -9.05859375 30.40234375 -11.05859375 27.40234375 C-11.73170011 19.79030276 -12.66128119 8.11762584 -7.73046875 1.6640625 C-5.31313062 -0.16023707 -2.95214931 -0.13591848 0 0 Z " fill="#000000" transform="translate(458.05859375,363.59765625)"/>
<path d="M0 0 C3.14333429 0.98843129 4.19488779 2.93591365 6 5.62890625 C7.484375 8.75 7.484375 8.75 8.75 12.06640625 C9.17796875 13.15824219 9.6059375 14.25007813 10.046875 15.375 C11.02010129 18.69753073 11.33943493 21.19091532 11 24.62890625 C8.54405875 27.95165029 7.0743356 29.40508633 3 30.25390625 C-0.03190802 29.62225875 -1.70438659 28.91374904 -3.765625 26.578125 C-7.70665965 20.3547823 -11.42523761 12.07181378 -10 4.62890625 C-7.41070178 0.42129664 -4.59743872 0.15264933 0 0 Z " fill="#000000" transform="translate(435,385.37109375)"/>
</svg>
