<?xml version="1.0" encoding="UTF-8"?>
<svg version="1.1" xmlns="http://www.w3.org/2000/svg" width="512" height="512">
<path d="M0 0 C6.75296751 6.24291628 13.3126575 12.66360395 19.81750965 19.16243076 C21.00278832 20.34306879 22.18825945 21.52351363 23.37390614 22.70378208 C26.56405961 25.88094161 29.75098468 29.06131906 32.9368813 32.24274659 C34.93157227 34.23448957 36.92684165 36.22565137 38.92228222 38.21664333 C45.17853261 44.45926185 51.4328095 50.70384742 57.68418676 56.95134598 C64.87827657 64.14094583 72.07887885 71.32393863 79.28515989 78.50131851 C84.87456926 84.06909292 90.45818257 89.64263677 96.03745288 95.22057098 C99.36219838 98.54427108 102.68930319 101.86552243 106.02247524 105.18077374 C109.15395478 108.29573804 112.27815054 111.41782965 115.39700031 114.54543781 C116.53881186 115.6880175 117.68316717 116.82806198 118.83030987 117.96528912 C134.28674337 133.29597182 134.28674337 133.29597182 134.77917957 144.42195225 C134.49192281 150.71467069 132.73096019 155.37087163 128.46667957 160.0352335 C123.80917587 164.25242697 118.92157059 166.22860967 112.65417957 166.5352335 C98.48791858 165.79109138 89.21221174 152.8681602 79.88025379 143.49983311 C78.84452438 142.4638208 77.80857309 141.42803026 76.77241993 140.39244175 C73.99193294 137.61223874 71.21451473 134.82898903 68.43768549 132.04513335 C65.52339246 129.12453965 62.60621974 126.206825 59.68936634 123.2887888 C54.18050264 117.77683141 48.67419044 112.26233258 43.16881669 106.74688965 C36.89500491 100.4618554 30.6183139 94.17969989 24.34139323 87.89777076 C11.44247518 74.98843283 -1.45286765 62.075529 -14.34582043 49.1602335 C-17.91857995 50.6775407 -20.19454434 52.76887457 -22.91779613 55.51188755 C-23.83032146 56.42599903 -24.74284679 57.34011051 -25.68302441 58.28192234 C-26.68699665 59.29775696 -27.69088482 60.31367467 -28.69469738 61.32966709 C-29.75735462 62.39780097 -30.82047679 63.46547248 -31.88402843 64.5327158 C-34.17255677 66.83095234 -36.45798858 69.13220946 -38.74113941 71.43578815 C-42.35420126 75.08068348 -45.97542881 78.71739112 -49.59806347 82.3527689 C-58.59656805 91.38535114 -67.5857865 100.42716 -76.57006359 109.47389317 C-83.54947315 116.5017983 -90.5320657 123.5264659 -97.52529019 130.54062808 C-101.12414124 134.15097986 -104.71594298 137.7681558 -108.30256712 141.39065242 C-110.54009321 143.64742746 -112.78390594 145.8978706 -115.02948284 148.14663219 C-116.06608695 149.18724127 -117.1001164 150.23042273 -118.1312952 151.2764082 C-131.29037231 164.61750672 -131.29037231 164.61750672 -141.59582043 165.4102335 C-149.34839144 164.89339543 -155.07840356 161.86078013 -160.34582043 156.1602335 C-163.851144 150.90224814 -164.97388295 145.08896503 -163.97863293 138.8633585 C-160.86232656 127.70621225 -150.0264473 119.6867261 -142.07995129 111.73323154 C-140.84710077 110.49574441 -139.61444519 109.25806304 -138.3819685 108.02020359 C-135.05402335 104.67922416 -131.72282387 101.34150909 -128.39058661 98.00481105 C-126.30673666 95.91801919 -124.22347039 93.83064632 -122.140378 91.74309826 C-115.61584451 85.20492101 -109.08933476 78.66872621 -102.55991262 72.13543099 C-95.03351064 64.6045389 -87.51371134 57.06713449 -79.99953073 49.52404851 C-74.17958718 43.68249711 -68.35390002 37.84671479 -62.5238114 32.01528865 C-59.0458871 28.53631681 -55.57043107 25.054962 -52.10093021 21.56758785 C-48.84151936 18.29170929 -45.57503682 15.02305204 -42.30299473 11.75979137 C-41.10474851 10.56231589 -39.90905758 9.3622771 -38.71614742 8.15948582 C-37.08552535 6.51615275 -35.44588131 4.88237253 -33.80369091 3.25061131 C-32.88914607 2.33459991 -31.97460123 1.4185885 -31.03234291 0.47481918 C-21.56546806 -7.68140998 -9.77970303 -7.66996903 0 0 Z " fill="#000000" transform="translate(271.3458204269409,175.83976650238037)"/>
</svg>
