<?xml version="1.0" encoding="UTF-8"?>
<svg version="1.1" xmlns="http://www.w3.org/2000/svg" width="512" height="512">
<path d="M0 0 C46.2 0 92.4 0 140 0 C136.50154114 58.30764771 136.50154114 58.30764771 134.24578857 83.90075684 C133.99784792 86.74047412 133.75888653 89.58092289 133.51949501 92.42137146 C132.28764542 106.99795851 130.92464006 121.56243263 129.3033123 136.10125732 C129.14345856 137.54567345 128.98753929 138.99053193 128.83607674 140.43585205 C126.59152992 161.68341388 119.29589623 179.97937031 102.65625 194.0546875 C84.37844024 207.44049524 65.90015643 208.59503814 44 208.25 C41.76043278 208.22988801 39.52084796 208.21164562 37.28125 208.1953125 C31.85377545 208.1517278 26.42697276 208.08519489 21 208 C20.91958969 209.051875 20.91958969 209.051875 20.83755493 210.125 C20.36258814 215.87563253 19.65486534 221.36984115 18.3984375 227 C18.24115173 227.71071152 18.08386597 228.42142303 17.92181396 229.15367126 C17.41361379 231.43751342 16.89476744 233.71876519 16.375 236 C16.01664076 237.59705887 15.65840659 239.1941458 15.30029297 240.79125977 C12.85470204 251.61895275 10.20441041 262.37984592 7.25927734 273.08398438 C3.82415333 285.76942133 2.70998292 297.95987054 2.69503975 311.03733826 C2.69132249 313.65268349 2.67445939 316.2676673 2.65428162 318.88293457 C2.59933049 326.30763043 2.56806072 333.7323735 2.54370117 341.15722656 C2.52782694 345.72403851 2.49763325 350.29058147 2.45893669 354.85725403 C2.44731084 356.58914846 2.44135655 358.32109085 2.44125557 360.05302429 C2.44106345 362.46727759 2.42279983 364.88078462 2.40063477 367.29492188 C2.40521194 368.00458099 2.40978912 368.71424011 2.414505 369.44540405 C2.35060106 373.82509234 1.71965655 376.54853451 -1 380 C-4.84847013 383.68342042 -7.22469343 384.50168366 -12.52122498 384.5146637 C-13.84044952 384.52738815 -15.15967407 384.54011261 -16.51887512 384.55322266 C-17.97409237 384.54704067 -19.42930788 384.54043467 -20.88452148 384.53344727 C-22.42231066 384.54050722 -23.96009289 384.54925256 -25.49786377 384.55955505 C-29.66943905 384.58205102 -33.84063497 384.57910887 -38.0122478 384.57023358 C-41.49638952 384.56512214 -44.98046004 384.57241755 -48.46459442 384.57970566 C-56.68487433 384.59670546 -64.90496862 384.59313821 -73.12524414 384.57641602 C-81.60223909 384.55949443 -90.0787191 384.57532934 -98.5556578 384.6076389 C-105.83735952 384.63434013 -113.11890099 384.64160938 -120.40064675 384.63312382 C-124.74810944 384.62819613 -129.09526231 384.63040144 -133.44268608 384.65091133 C-137.53131543 384.66927699 -141.61920454 384.66329963 -145.70779419 384.63871193 C-147.20656529 384.63370674 -148.70539286 384.63718637 -150.20411873 384.64986038 C-162.93647408 384.74899746 -162.93647408 384.74899746 -166.8575592 381.62339783 C-171.61190037 375.80175351 -171.57167458 368.90595594 -172.3125 361.6875 C-177.01792297 319.7314533 -177.01792297 319.7314533 -199 285 C-202.89591044 281.9441913 -206.91606921 279.12504348 -211.01416016 276.34912109 C-247.38732215 251.63826626 -270.7399172 226.15070724 -279.203125 181.921875 C-280.05673993 176.64954748 -280.51645015 171.31904836 -281 166 C-188.27 166 -95.54 166 0 166 C0 162.37 0 158.74 0 155 C-1.47174683 155.00368717 -2.94349365 155.00737434 -4.45983887 155.01117325 C-39.3991331 155.09781178 -74.33840999 155.16376562 -109.27778894 155.20426132 C-113.57858474 155.20926412 -117.87938032 155.21444141 -122.18017578 155.21972656 C-123.03638374 155.2207758 -123.89259169 155.22182505 -124.77474535 155.22290608 C-138.63684206 155.24030949 -152.49887239 155.27184683 -166.36092973 155.30861118 C-180.58556031 155.3460224 -194.81015614 155.36823623 -209.03483391 155.37635398 C-217.81165766 155.38184138 -226.58829379 155.39917043 -235.36505979 155.43166587 C-241.38430038 155.45281598 -247.40344402 155.45919893 -253.42271906 155.45400551 C-256.89514574 155.45144448 -260.36724463 155.45535958 -263.83961296 155.4768219 C-267.60744851 155.49671049 -271.37447999 155.49194208 -275.14233398 155.48101807 C-276.78243313 155.49849512 -276.78243313 155.49849512 -278.45566559 155.51632524 C-285.69413048 155.45956572 -291.47393381 154.49612083 -296.83984375 149.17578125 C-299.73485906 144.261467 -301.3635297 139.77370696 -301 134 C-299.37797102 129.13391305 -297.51706237 127.26750763 -293 125 C-290.50028294 124.62740451 -290.50028294 124.62740451 -287.80887127 124.63085651 C-286.77828112 124.62488337 -285.74769098 124.61891022 -284.68587083 124.61275607 C-283.56038718 124.6214946 -282.43490354 124.63023312 -281.27531433 124.63923645 C-280.07456137 124.63667318 -278.8738084 124.6341099 -277.63666898 124.63146895 C-274.30710695 124.62738194 -270.97807396 124.63675689 -267.6485759 124.65180314 C-264.05694667 124.66475853 -260.46533377 124.66037439 -256.87368774 124.65809631 C-250.65206723 124.65652326 -244.4305411 124.66593576 -238.20894432 124.68280983 C-229.21357559 124.70719098 -220.21825249 124.71500419 -211.22285429 124.7187738 C-196.62844275 124.72533968 -182.0340815 124.74530453 -167.43969727 124.77368164 C-153.26261649 124.80121869 -139.08554938 124.82245401 -124.90844727 124.83520508 C-124.03457118 124.83599325 -123.16069509 124.83678142 -122.26033791 124.83759347 C-117.87635829 124.84150859 -113.49237858 124.84529971 -109.1083988 124.84902918 C-72.73888785 124.88012933 -36.36946995 124.9354347 0 125 C0 83.75 0 42.5 0 0 Z " fill="#000000" transform="translate(330,118)"/>
<path d="M0 0 C0.64438558 -0.00623996 1.28877115 -0.01247993 1.95268357 -0.01890898 C4.11011509 -0.0348532 6.26641892 -0.02223046 8.42385864 -0.00964355 C9.9713507 -0.0150642 11.51883759 -0.02218654 13.0663147 -0.03088379 C17.26895453 -0.04913016 21.47120187 -0.04204354 25.67384863 -0.02936745 C30.07263595 -0.0192429 34.47138959 -0.02863194 38.87017822 -0.03491211 C46.25955234 -0.04219165 53.64876661 -0.03259442 61.03811646 -0.0135498 C69.57694673 0.00820348 78.11539474 0.00118013 86.65421569 -0.02085543 C93.98684675 -0.03901996 101.31936284 -0.04156213 108.65200913 -0.03110075 C113.03073331 -0.02486952 117.40927798 -0.02401961 121.78799057 -0.0372467 C125.90689688 -0.04881939 130.02531171 -0.04075389 134.14416504 -0.01766968 C135.65421865 -0.01238942 137.16431375 -0.01388472 138.67435074 -0.02272034 C140.7395097 -0.033688 142.80310421 -0.01990083 144.86816406 0 C146.02258436 0.0015081 147.17700466 0.0030162 148.36640739 0.00457001 C153.09481282 0.74959859 156.24410657 3.00932594 159.37356567 6.57043457 C161.86340922 10.63281088 162.2120424 14.86312765 161.56106567 19.50793457 C159.0268598 24.13941427 156.63008882 27.81826019 151.56106567 29.50793457 C149.54529488 29.60774947 147.52635833 29.64728592 145.50813293 29.65510559 C144.24214264 29.66226089 142.97615234 29.6694162 141.67179871 29.67678833 C140.26599146 29.67962855 138.86018394 29.68234029 137.45437622 29.68493652 C135.97600139 29.691202 134.49762813 29.69784888 133.01925659 29.70484924 C128.16211034 29.72588007 123.3049638 29.73624994 118.44778442 29.74621582 C116.77538346 29.75026358 115.10298267 29.75438051 113.43058205 29.7585659 C105.57424908 29.77761454 97.7179255 29.79184689 89.86157387 29.80017787 C80.79332261 29.80995287 71.72531527 29.8362805 62.65714997 29.87667876 C55.64728516 29.90683573 48.63749029 29.9216463 41.62756187 29.92495888 C37.44104268 29.92730965 33.25478418 29.93627347 29.06833458 29.96142006 C25.12924577 29.98469896 21.19058935 29.98893497 17.25144958 29.97865868 C15.80748875 29.97816317 14.36350665 29.98448802 12.91961098 29.99821472 C10.94480309 30.01593503 8.96980742 30.00644174 6.99494934 29.99568176 C5.89085063 29.99807012 4.78675192 30.00045847 3.64919567 30.0029192 C-0.78405684 29.29232999 -4.0865825 27.23079375 -6.86471558 23.69152832 C-9.26429532 18.96636469 -10.61501474 15.36207835 -10.75143433 10.07043457 C-10.78881714 9.12297363 -10.82619995 8.1755127 -10.86471558 7.19934082 C-9.87827495 0.96395006 -5.67230237 0.00741498 0 0 Z " fill="#000000" transform="translate(321.4389343261719,77.4920654296875)"/>
</svg>
