<?xml version="1.0" encoding="UTF-8"?>
<svg version="1.1" xmlns="http://www.w3.org/2000/svg" width="512" height="512">
<path d="M0 0 C0.70125 0.00515625 1.4025 0.0103125 2.125 0.015625 C2.82625 0.01046875 3.5275 0.0053125 4.25 0 C6.125 0.265625 6.125 0.265625 8.125 2.265625 C8.69020003 4.92099872 8.86288198 7.55707213 9.125 10.265625 C10.43694336 10.24991455 11.74888672 10.2342041 13.10058594 10.21801758 C17.96836202 10.16371468 22.83611132 10.12927346 27.70410156 10.10083008 C29.8109182 10.08574431 31.91770344 10.06527307 34.02441406 10.03930664 C37.0528132 10.00291447 40.08079709 9.9858965 43.109375 9.97265625 C44.05117615 9.95717239 44.99297729 9.94168854 45.96331787 9.92573547 C46.84392883 9.92550888 47.72453979 9.92528229 48.63183594 9.92504883 C49.40460876 9.91838699 50.17738159 9.91172516 50.97357178 9.90486145 C53.73825908 10.36845972 55.12355052 11.32583483 57.125 13.265625 C57.125 14.255625 57.125 15.245625 57.125 16.265625 C57.95225586 16.24467773 58.77951172 16.22373047 59.63183594 16.20214844 C63.3794337 16.11900881 67.12683749 16.06696969 70.875 16.015625 C72.17695313 15.98210938 73.47890625 15.94859375 74.8203125 15.9140625 C76.07070313 15.90117187 77.32109375 15.88828125 78.609375 15.875 C79.76147461 15.85405273 80.91357422 15.83310547 82.10058594 15.81152344 C85.125 16.265625 85.125 16.265625 87.52050781 18.09082031 C89.125 20.265625 89.125 20.265625 89.3125 23.453125 C87.89219862 28.01303997 85.64338398 30.59342165 82.42578125 34.0546875 C80.80763056 36.22287 80.80763056 36.22287 81.71875 38.796875 C83.0735363 41.17527761 84.5159298 43.08374415 86.3125 45.140625 C88.76583021 48.29234849 89.125 48.93845511 89.125 53.140625 C88.125 56.265625 88.125 56.265625 86.125 58.265625 C83.85462952 58.51959229 83.85462952 58.51959229 80.98852539 58.52441406 C79.91723892 58.53071838 78.84595245 58.53702271 77.74220276 58.54351807 C76.00002724 58.53744537 76.00002724 58.53744537 74.22265625 58.53125 C73.03401474 58.53316345 71.84537323 58.5350769 70.62071228 58.53704834 C68.10301502 58.53841141 65.58531077 58.53470654 63.06762695 58.52636719 C59.20703367 58.51567908 55.34690676 58.52625384 51.48632812 58.5390625 C49.0442698 58.53774074 46.60221177 58.53517801 44.16015625 58.53125 C43.00073013 58.53529846 41.84130402 58.53934692 40.64674377 58.54351807 C39.57230515 58.53721375 38.49786652 58.53090942 37.39086914 58.52441406 C36.44425919 58.52282288 35.49764923 58.52123169 34.52235413 58.51959229 C32.125 58.265625 32.125 58.265625 29.125 56.265625 C28.795 55.275625 28.465 54.285625 28.125 53.265625 C21.855 52.935625 15.585 52.605625 9.125 52.265625 C9.125 61.835625 9.125 71.405625 9.125 81.265625 C13.085 82.255625 17.045 83.245625 21.125 84.265625 C23.29283079 84.89071831 25.45511381 85.5360712 27.60620117 86.21655273 C28.73936264 86.57296844 29.87252411 86.92938416 31.0400238 87.29660034 C32.23724564 87.67696442 33.43446747 88.05732849 34.66796875 88.44921875 C35.97462295 88.86129174 37.28139427 89.27299348 38.58827209 89.68435669 C41.37611252 90.56243468 44.1633352 91.44243483 46.95007324 92.32400513 C54.45204399 94.69673047 61.95856286 97.05501599 69.46484375 99.4140625 C70.23570942 99.65643457 71.00657509 99.89880665 71.80080032 100.14852333 C87.26722221 105.01043981 102.75513342 109.80100262 118.25302124 114.56155396 C121.67274893 115.61204615 125.09187537 116.66447946 128.51080418 117.7175684 C139.92446681 121.23274753 151.33857614 124.74512608 162.78381348 128.15647888 C166.51581267 129.2689135 170.24518494 130.39000756 173.9744873 131.51144409 C176.41523037 132.24031068 178.86012318 132.95369202 181.30566406 133.66625977 C182.7326558 134.09443602 184.15943034 134.52333711 185.5859375 134.953125 C186.79040527 135.30761719 187.99487305 135.66210938 189.23583984 136.02734375 C192.39084409 137.3795646 193.55606213 138.24028473 195.125 141.265625 C195.46557617 143.46386719 195.46557617 143.46386719 195.41796875 145.8125 C195.40830078 146.65683594 195.39863281 147.50117188 195.38867188 148.37109375 C195.36353516 149.24378906 195.33839844 150.11648437 195.3125 151.015625 C195.29896484 151.90378906 195.28542969 152.79195312 195.27148438 153.70703125 C195.23621309 155.89385078 195.18692752 158.07942466 195.125 160.265625 C196.383125 160.20375 197.64125 160.141875 198.9375 160.078125 C201.45327306 159.95439846 202.7137541 160.00757022 204.86181641 161.35546875 C206.75590706 164.21966769 206.51400434 166.60890598 206.5234375 170.015625 C206.52630768 170.67014648 206.52917786 171.32466797 206.53213501 171.99902344 C206.53417368 173.38086819 206.52865746 174.76274193 206.51611328 176.14453125 C206.50005436 178.2584695 206.51596601 180.37049613 206.53515625 182.484375 C206.53317378 183.82812922 206.52933002 185.17188224 206.5234375 186.515625 C206.52005371 187.73765625 206.51666992 188.9596875 206.51318359 190.21875 C206.125 193.265625 206.125 193.265625 205.0559082 195.16918945 C202.09090957 196.85281682 199.14493052 196.6335363 195.83203125 196.55859375 C195.12600266 196.55434891 194.41997406 196.55010406 193.69255066 196.54573059 C191.44047697 196.52895534 189.18930258 196.49130743 186.9375 196.453125 C185.40951815 196.43807657 183.88152224 196.42438844 182.35351562 196.41210938 C178.61033128 196.37905589 174.86781804 196.32728332 171.125 196.265625 C171.13547363 196.85577393 171.14594727 197.44592285 171.15673828 198.05395508 C171.19832044 200.72863504 171.2243329 203.40324697 171.25 206.078125 C171.26675781 207.00689453 171.28351563 207.93566406 171.30078125 208.89257812 C171.30722656 209.78525391 171.31367188 210.67792969 171.3203125 211.59765625 C171.33078613 212.41983643 171.34125977 213.2420166 171.35205078 214.08911133 C171.125 216.265625 171.125 216.265625 169.125 219.265625 C166.155 219.265625 163.185 219.265625 160.125 219.265625 C160.125 225.535625 160.125 231.805625 160.125 238.265625 C162.435 238.595625 164.745 238.925625 167.125 239.265625 C199.47238331 249.66432457 226.71569936 273.41586659 242.359375 303.44140625 C257.79405305 334.41052481 260.99147506 370.34642048 250.23901367 403.40869141 C243.29747581 423.57691278 232.61399865 439.65202898 218.125 455.265625 C217.59648437 455.85988281 217.06796875 456.45414062 216.5234375 457.06640625 C201.57704549 473.12419664 180.04776125 483.65513272 159.125 489.265625 C157.8771875 489.60464844 156.629375 489.94367188 155.34375 490.29296875 C128.59956694 496.19082213 99.08573615 493.2347477 74.125 482.265625 C73.47080078 481.98235352 72.81660156 481.69908203 72.14257812 481.40722656 C44.83527265 469.35205024 22.45408522 446.88862635 9.125 420.265625 C8.4351768 417.93903246 7.76569536 415.60622286 7.125 413.265625 C6.00425174 413.26839038 4.88350348 413.27115576 3.72879314 413.27400494 C-23.51097835 413.34053194 -50.75073933 413.38986817 -77.99057484 413.42106152 C-91.16342362 413.43654639 -104.33621881 413.45766682 -117.5090332 413.49194336 C-128.98720592 413.52179615 -140.46533983 413.54118821 -151.94355029 413.54789048 C-158.02411525 413.55180973 -164.10456919 413.56105408 -170.18509865 413.58281517 C-175.90349472 413.60311524 -181.6217336 413.60947195 -187.34016228 413.60494804 C-189.44329812 413.60577615 -191.54643899 413.61178019 -193.64954376 413.62324142 C-196.51259601 413.63808412 -199.37504837 413.63460876 -202.2381134 413.62638855 C-203.07760161 413.63512707 -203.91708981 413.6438656 -204.78201705 413.65286893 C-210.43678793 413.60873667 -210.43678793 413.60873667 -212.58560485 411.92625409 C-215.46050356 408.22363397 -214.34982276 402.36095456 -214.32104492 397.86889648 C-214.31254133 395.83799681 -214.34128379 393.8099181 -214.37304688 391.77929688 C-214.37240234 390.49732422 -214.37175781 389.21535156 -214.37109375 387.89453125 C-214.37294678 386.71963135 -214.3747998 385.54473145 -214.37670898 384.33422852 C-213.875 381.265625 -213.875 381.265625 -212.12817383 378.87573242 C-209.56803797 377.04627137 -208.43260429 376.79109515 -205.328125 376.875 C-204.06162109 376.89433594 -204.06162109 376.89433594 -202.76953125 376.9140625 C-201.46048828 376.96433594 -201.46048828 376.96433594 -200.125 377.015625 C-199.23683594 377.03367187 -198.34867188 377.05171875 -197.43359375 377.0703125 C-195.24629152 377.11735126 -193.06120184 377.18305491 -190.875 377.265625 C-190.89594727 376.71100586 -190.91689453 376.15638672 -190.93847656 375.58496094 C-191.02183548 373.06203477 -191.07371868 370.53939851 -191.125 368.015625 C-191.17527344 366.70658203 -191.17527344 366.70658203 -191.2265625 365.37109375 C-191.28375362 361.62507562 -191.27333097 359.01702205 -189.5 355.671875 C-185.32806915 353.43691204 -181.27114155 353.84643777 -176.625 354.015625 C-175.68914062 354.03367187 -174.75328125 354.05171875 -173.7890625 354.0703125 C-171.48332985 354.11736827 -169.17969055 354.18308787 -166.875 354.265625 C-166.89071045 353.38040161 -166.89071045 353.38040161 -166.90673828 352.47729492 C-166.94832044 349.80261496 -166.9743329 347.12800303 -167 344.453125 C-167.01675781 343.52435547 -167.03351563 342.59558594 -167.05078125 341.63867188 C-167.06044922 340.2996582 -167.06044922 340.2996582 -167.0703125 338.93359375 C-167.08602295 337.70032349 -167.08602295 337.70032349 -167.10205078 336.44213867 C-166.875 334.265625 -166.875 334.265625 -164.875 331.265625 C-161.905 331.265625 -158.935 331.265625 -155.875 331.265625 C-155.875 294.305625 -155.875 257.345625 -155.875 219.265625 C-158.845 219.265625 -161.815 219.265625 -164.875 219.265625 C-167.01104308 216.06156038 -167.11708908 215.26961753 -167.0703125 211.59765625 C-167.06386719 210.70498047 -167.05742187 209.81230469 -167.05078125 208.89257812 C-167.03402344 207.96380859 -167.01726562 207.03503906 -167 206.078125 C-166.99097656 205.13775391 -166.98195312 204.19738281 -166.97265625 203.22851562 C-166.94909056 200.90729532 -166.91619116 198.58658856 -166.875 196.265625 C-168.30549683 196.28919067 -168.30549683 196.28919067 -169.76489258 196.31323242 C-173.30386913 196.36754178 -176.84280886 196.40197833 -180.38208008 196.43041992 C-181.91371861 196.44550436 -183.44531398 196.46597478 -184.97680664 196.49194336 C-187.17865654 196.52834347 -189.37993533 196.54535413 -191.58203125 196.55859375 C-192.26650833 196.57407761 -192.95098541 196.58956146 -193.65620422 196.60551453 C-196.36835872 196.60647411 -198.42038778 196.52376933 -200.8059082 195.16918945 C-202.42805253 192.28089091 -202.26431732 189.80931345 -202.2734375 186.515625 C-202.27774277 185.53384277 -202.27774277 185.53384277 -202.28213501 184.53222656 C-202.28417368 183.15038181 -202.27865746 181.76850807 -202.26611328 180.38671875 C-202.25005436 178.2727805 -202.26596601 176.16075387 -202.28515625 174.046875 C-202.28317378 172.70312078 -202.27933002 171.35936776 -202.2734375 170.015625 C-202.27005371 168.79359375 -202.26666992 167.5715625 -202.26318359 166.3125 C-201.875 163.265625 -201.875 163.265625 -200.61181641 161.35546875 C-197.48647201 159.39433052 -194.47807784 160.08842445 -190.875 160.265625 C-190.89071045 159.71100586 -190.9064209 159.15638672 -190.92260742 158.58496094 C-190.98512862 156.06195348 -191.02404342 153.53910924 -191.0625 151.015625 C-191.08763672 150.14292969 -191.11277344 149.27023438 -191.13867188 148.37109375 C-191.14833984 147.52675781 -191.15800781 146.68242187 -191.16796875 145.8125 C-191.1836792 145.03745117 -191.19938965 144.26240234 -191.21557617 143.46386719 C-190.76892367 140.58095744 -189.85241921 139.41121832 -187.875 137.265625 C-185.27638245 136.0907135 -185.27638245 136.0907135 -182.09594727 135.12524414 C-180.89159027 134.75207062 -179.68723328 134.37889709 -178.44638062 133.99441528 C-177.11145895 133.59630318 -175.77646509 133.19843309 -174.44140625 132.80078125 C-173.03995257 132.37208461 -171.6388888 131.94211151 -170.2381897 131.51095581 C-167.22489049 130.58633376 -164.20908836 129.6705866 -161.19100952 128.76168823 C-156.39376398 127.31698009 -151.60239114 125.85345629 -146.81176758 124.38696289 C-140.99503247 122.60779199 -135.17688399 120.83338923 -129.35679531 119.06521893 C-119.06516129 115.93842753 -108.78343973 112.78053786 -98.5078125 109.6015625 C-97.77395451 109.37454021 -97.04009651 109.14751793 -96.2840004 108.91361618 C-93.36049293 108.00909247 -90.43704032 107.10439193 -87.51369667 106.19933891 C-82.52777022 104.65585316 -77.540827 103.11569142 -72.55322266 101.57763672 C-60.16052947 97.75572044 -47.77018232 93.92682305 -35.390625 90.0625 C-33.38519234 89.4375178 -31.37974065 88.81259665 -29.37426758 88.18774414 C-25.78411102 87.06910666 -22.19564935 85.94525475 -18.6081543 84.81811523 C-17.06045156 84.33555838 -15.51268597 83.85320302 -13.96484375 83.37109375 C-13.27783386 83.15350403 -12.59082397 82.93591431 -11.88299561 82.71173096 C-9.08562098 81.8448816 -6.82539934 81.265625 -3.875 81.265625 C-3.87944122 80.28034821 -3.88388245 79.29507141 -3.88845825 78.27993774 C-3.92894432 69.00940413 -3.95895547 59.73888837 -3.97862434 50.46828651 C-3.98907612 45.70180206 -4.00326064 40.93538879 -4.02587891 36.16894531 C-4.04755773 31.57187573 -4.05955812 26.97487476 -4.06475449 22.37775803 C-4.06845919 20.62101536 -4.07569322 18.86427659 -4.08646011 17.10756302 C-4.10090924 14.65316812 -4.10298073 12.19905927 -4.10205078 9.74462891 C-4.10924133 9.01311111 -4.11643188 8.28159332 -4.12384033 7.52790833 C-4.09522223 0.58015648 -4.09522223 0.58015648 0 0 Z M9.125 23.265625 C9.125 28.875625 9.125 34.485625 9.125 40.265625 C19.025 40.595625 28.925 40.925625 39.125 41.265625 C39.785 42.585625 40.445 43.905625 41.125 45.265625 C50.365 45.265625 59.605 45.265625 69.125 45.265625 C68.135 43.615625 67.145 41.965625 66.125 40.265625 C65.528669 35.49497701 66.59155369 33.23335043 69.125 29.265625 C68.49932129 29.24056885 67.87364258 29.2155127 67.22900391 29.18969727 C64.40245381 29.07387227 61.57624831 28.95108515 58.75 28.828125 C57.76515625 28.78880859 56.7803125 28.74949219 55.765625 28.70898438 C54.82460938 28.66708984 53.88359375 28.62519531 52.9140625 28.58203125 C51.61009521 28.52704468 51.61009521 28.52704468 50.27978516 28.47094727 C48.125 28.265625 48.125 28.265625 46.125 27.265625 C45.465 25.945625 44.805 24.625625 44.125 23.265625 C32.575 23.265625 21.025 23.265625 9.125 23.265625 Z M-8.51098633 95.42675781 C-9.25731134 95.65837773 -10.00363636 95.88999765 -10.77257729 96.12863636 C-13.25330134 96.90068847 -15.73006541 97.68473215 -18.20703125 98.46875 C-19.97209337 99.02050581 -21.73740376 99.57146792 -23.50294495 100.12168884 C-27.27073242 101.29758584 -31.03684365 102.47865195 -34.80169678 103.66390991 C-40.71047501 105.52407572 -46.62267065 107.37319142 -52.53564453 109.2199707 C-58.5290901 111.09225385 -64.52242023 112.96489151 -70.5145874 114.84126282 C-82.74106393 118.66899286 -94.97540767 122.46972613 -107.22265625 126.23046875 C-107.96274492 126.45776043 -108.7028336 126.68505211 -109.4653492 126.91923141 C-115.70009795 128.83352585 -121.93585663 130.74451919 -128.17202759 132.6541748 C-144.77836247 137.74094154 -161.3464454 142.93123702 -177.875 148.265625 C-177.875 152.225625 -177.875 156.185625 -177.875 160.265625 C-59.075 160.265625 59.725 160.265625 182.125 160.265625 C182.125 156.305625 182.125 152.345625 182.125 148.265625 C163.17627761 142.15631986 144.1800456 136.20857609 125.16546631 130.30836487 C122.78168164 129.56856056 120.39802322 128.82835085 118.0144043 128.0880127 C93.72416895 120.54373232 69.42700227 113.02190962 45.125 105.515625 C44.39388882 105.28976841 43.66277763 105.06391182 42.90951157 104.83121109 C38.70857076 103.53346016 34.50747964 102.23619798 30.30614281 100.93972969 C28.44933308 100.3666903 26.59262253 99.79332957 24.73591614 99.21995544 C22.53380722 98.54079446 20.33087297 97.86430124 18.12695312 97.19104004 C16.17856156 96.59040746 14.23419714 95.97649062 12.29492188 95.3470459 C11.42931641 95.07106567 10.56371094 94.79508545 9.671875 94.51074219 C8.93291992 94.26910339 8.19396484 94.0274646 7.43261719 93.77850342 C1.72790099 92.51060429 -3.05984582 93.67999586 -8.51098633 95.42675781 Z M-188.875 173.265625 C-188.875 176.565625 -188.875 179.865625 -188.875 183.265625 C-62.815 183.265625 63.245 183.265625 193.125 183.265625 C193.125 179.965625 193.125 176.665625 193.125 173.265625 C67.065 173.265625 -58.995 173.265625 -188.875 173.265625 Z M-153.875 196.265625 C-153.875 199.895625 -153.875 203.525625 -153.875 207.265625 C-137.375 207.265625 -120.875 207.265625 -103.875 207.265625 C-103.875 203.635625 -103.875 200.005625 -103.875 196.265625 C-120.375 196.265625 -136.875 196.265625 -153.875 196.265625 Z M-90.875 196.265625 C-91.205 203.195625 -91.535 210.125625 -91.875 217.265625 C-92.875 218.265625 -92.875 218.265625 -100.875 219.265625 C-100.875 256.225625 -100.875 293.185625 -100.875 331.265625 C-98.235 331.595625 -95.595 331.925625 -92.875 332.265625 C-87.66816688 337.47245812 -91.2252495 346.91038554 -90.875 354.265625 C-72.725 354.265625 -54.575 354.265625 -35.875 354.265625 C-35.545 347.335625 -35.215 340.405625 -34.875 333.265625 C-32.47129915 330.86192415 -28.25355504 331.64102 -24.875 331.265625 C-24.875 294.305625 -24.875 257.345625 -24.875 219.265625 C-27.845 218.935625 -30.815 218.605625 -33.875 218.265625 C-37.16809041 211.67944418 -35.50728066 203.62001177 -35.875 196.265625 C-54.025 196.265625 -72.175 196.265625 -90.875 196.265625 Z M-22.875 196.265625 C-22.875 199.895625 -22.875 203.525625 -22.875 207.265625 C-6.375 207.265625 10.125 207.265625 27.125 207.265625 C27.125 203.635625 27.125 200.005625 27.125 196.265625 C10.625 196.265625 -5.875 196.265625 -22.875 196.265625 Z M40.125 196.265625 C39.795 203.195625 39.465 210.125625 39.125 217.265625 C36.72129915 219.66932585 32.50355504 218.89023 29.125 219.265625 C29.125 238.075625 29.125 256.885625 29.125 276.265625 C33.08229869 272.8736547 36.87058891 269.57959495 40.625 266.015625 C58.86082839 249.6254167 82.00783492 239.21925862 106.125 235.265625 C106.125 229.985625 106.125 224.705625 106.125 219.265625 C104.660625 219.12125 103.19625 218.976875 101.6875 218.828125 C97.25 218.390625 97.25 218.390625 96.125 217.265625 C95.63 206.870625 95.63 206.870625 95.125 196.265625 C76.975 196.265625 58.825 196.265625 40.125 196.265625 Z M108.125 196.265625 C108.125 199.895625 108.125 203.525625 108.125 207.265625 C124.625 207.265625 141.125 207.265625 158.125 207.265625 C158.125 203.635625 158.125 200.005625 158.125 196.265625 C141.625 196.265625 125.125 196.265625 108.125 196.265625 Z M-142.875 219.265625 C-142.875 256.225625 -142.875 293.185625 -142.875 331.265625 C-133.305 331.265625 -123.735 331.265625 -113.875 331.265625 C-113.875 294.305625 -113.875 257.345625 -113.875 219.265625 C-123.445 219.265625 -133.015 219.265625 -142.875 219.265625 Z M-11.875 219.265625 C-11.875 256.225625 -11.875 293.185625 -11.875 331.265625 C-7.585 331.265625 -3.295 331.265625 1.125 331.265625 C1.52589844 329.94691406 1.92679688 328.62820313 2.33984375 327.26953125 C2.91320383 325.45545755 3.4874732 323.64167107 4.0625 321.828125 C4.32095703 320.96896484 4.57941406 320.10980469 4.84570312 319.22460938 C6.28356473 314.74946707 7.63500888 310.96004138 10.36743164 307.08764648 C20.51009821 292.59276418 18.14319496 274.67784065 17.74298096 257.79473877 C17.6498331 253.44363733 17.60958199 249.09205181 17.56445312 244.74023438 C17.46879534 236.24723379 17.31091752 227.75712948 17.125 219.265625 C7.555 219.265625 -2.015 219.265625 -11.875 219.265625 Z M119.125 219.265625 C119.125 223.885625 119.125 228.505625 119.125 233.265625 C120.39214844 233.32621094 121.65929687 233.38679687 122.96484375 233.44921875 C124.66406964 233.53371065 126.363288 233.61835419 128.0625 233.703125 C129.30870117 233.76209961 129.30870117 233.76209961 130.58007812 233.82226562 C136.12865014 234.10293269 141.60871637 234.60322565 147.125 235.265625 C147.125 229.985625 147.125 224.705625 147.125 219.265625 C137.885 219.265625 128.645 219.265625 119.125 219.265625 Z M43.125 281.265625 C42.49078125 281.82507813 41.8565625 282.38453125 41.203125 282.9609375 C23.33734822 299.21028686 11.21200987 327.4246812 9.96386719 351.35498047 C9.54714306 383.88369047 15.03362741 413.17736078 37.125 438.265625 C38.15367187 439.49152344 38.15367187 439.49152344 39.203125 440.7421875 C58.73805516 463.43924664 87.20198197 477.21000107 116.93432617 479.8581543 C138.70063284 481.46871616 159.73907081 477.28040117 179.125 467.265625 C180.50365234 466.59080078 180.50365234 466.59080078 181.91015625 465.90234375 C198.57974706 457.38766068 214.42765214 443.3155779 224.125 427.265625 C224.77855469 426.20988281 225.43210937 425.15414062 226.10546875 424.06640625 C241.68993575 398.28645931 247.76358423 366.92472284 240.67285156 337.37060547 C232.25101522 305.01183856 213.40818127 278.65488298 184.58203125 261.50390625 C137.31333428 234.65757747 81.59409845 244.25880223 43.125 281.265625 Z M-153.875 343.265625 C-153.875 346.895625 -153.875 350.525625 -153.875 354.265625 C-137.375 354.265625 -120.875 354.265625 -103.875 354.265625 C-103.875 350.635625 -103.875 347.005625 -103.875 343.265625 C-120.375 343.265625 -136.875 343.265625 -153.875 343.265625 Z M-22.875 343.265625 C-22.875 346.895625 -22.875 350.525625 -22.875 354.265625 C-16.275 354.265625 -9.675 354.265625 -2.875 354.265625 C-2.545 350.635625 -2.215 347.005625 -1.875 343.265625 C-8.805 343.265625 -15.735 343.265625 -22.875 343.265625 Z M-177.875 367.265625 C-177.875 370.565625 -177.875 373.865625 -177.875 377.265625 C-120.125 377.265625 -62.375 377.265625 -2.875 377.265625 C-2.875 373.965625 -2.875 370.665625 -2.875 367.265625 C-60.625 367.265625 -118.375 367.265625 -177.875 367.265625 Z M-200.875 390.265625 C-200.875 393.565625 -200.875 396.865625 -200.875 400.265625 C-133.885 400.265625 -66.895 400.265625 2.125 400.265625 C1.47793184 394.79741157 1.47793184 394.79741157 -0.875 390.265625 C-3.45479267 390.16784717 -6.00779328 390.13567612 -8.58802795 390.14537048 C-9.40559285 390.14451606 -10.22315775 390.14366163 -11.06549734 390.14278132 C-13.82632011 390.14112401 -16.58708315 390.14665196 -19.34790039 390.15209961 C-21.31846617 390.15238145 -23.28903206 390.1522238 -25.25959778 390.1516571 C-30.62714509 390.15136902 -35.99467027 390.1572675 -41.36221242 390.16423106 C-46.96497947 390.1704628 -52.56774698 390.17106826 -58.17051697 390.17225647 C-68.78819558 390.17537032 -79.40586396 390.18358443 -90.02353805 390.19360596 C-102.10797324 390.20476543 -114.19240891 390.21027713 -126.27684796 390.21530139 C-151.14290433 390.225767 -176.00895159 390.24336747 -200.875 390.265625 Z " fill="#000000" transform="translate(234.875,9.734375)"/>
<path d="M0 0 C2.24412094 1.82574819 2.24412094 1.82574819 4.203125 1.46875 C6.85060113 0.49620775 9.25692186 -0.80479473 11.72802734 -2.15625 C29.69371002 -11.87446521 47.91697477 -12.05806442 67.36328125 -6.56640625 C74.20956238 -4.1096068 79.9002519 0.04501433 85.5 4.625 C86.20008682 5.10392197 86.90017365 5.58284393 87.62147522 6.07627869 C90.64713014 10.18138885 90.04799721 14.43701932 90.00170898 19.40454102 C90.00981346 21.05141907 90.00981346 21.05141907 90.01808167 22.73156738 C90.03059927 26.36428702 90.01405793 29.99621892 89.99609375 33.62890625 C89.99624866 36.14949078 89.99773622 38.67007555 90.00050354 41.19065857 C90.00188887 46.47414576 89.98973913 51.75735426 89.96655273 57.04077148 C89.93992971 63.14958151 89.93820055 69.25801179 89.9499411 75.36685997 C89.96071805 81.24446463 89.95443262 87.12195335 89.94038582 92.99955559 C89.93586099 95.50067685 89.93554347 98.00180929 89.93945122 100.50293159 C89.94235228 103.9938075 89.9259091 107.48405667 89.90405273 110.97485352 C89.91080521 112.53419868 89.91080521 112.53419868 89.91769409 114.12504578 C89.90778946 115.07418854 89.89788483 116.0233313 89.88768005 117.00123596 C89.88403521 118.23924627 89.88403521 118.23924627 89.88031673 119.50226688 C89.40681465 122.14511287 88.62918267 123.02944878 86.5 124.625 C82.68630307 125.22743839 81.02543888 124.97151788 77.78125 122.83203125 C76.40453125 121.64673828 76.40453125 121.64673828 75 120.4375 C64.67640813 112.11328731 52.43504008 108.93691095 39.28515625 109.84765625 C27.04624265 111.34659573 16.29645275 115.82854725 7.5 124.625 C4.66568883 125.16774044 3.2467206 125.32671694 0.5 124.625 C-1.765625 123.015625 -1.765625 123.015625 -4.1875 120.9375 C-14.64558797 112.05205684 -27.46962134 109.17571092 -40.98828125 109.78125 C-52.43663978 111.20715334 -61.69612799 115.19390935 -70.1484375 123.05078125 C-73.20685141 125.09819123 -74.88724647 125.21123837 -78.5 124.625 C-80.65370178 123.24949646 -80.65370178 123.24949646 -82.5 120.625 C-83.104559 117.13909133 -83.0356235 113.68277115 -83.00170898 110.15258789 C-83.00981346 108.55441978 -83.00981346 108.55441978 -83.01808167 106.92396545 C-83.03059972 103.39824739 -83.01405554 99.87334105 -82.99609375 96.34765625 C-82.99624868 93.89912371 -82.9977366 91.45059092 -83.00050354 89.00205994 C-83.00188896 83.86820649 -82.98930603 78.73463192 -82.96655273 73.60083008 C-82.93818308 67.01876523 -82.94089967 60.43716444 -82.95364285 53.85506535 C-82.96059716 48.79788752 -82.95281323 43.740817 -82.94038582 38.68365288 C-82.93586788 36.25675302 -82.93553749 33.82984166 -82.93945122 31.40294075 C-82.94236052 28.01065582 -82.92586832 24.61901074 -82.90405273 21.22680664 C-82.91080521 19.72032562 -82.91080521 19.72032562 -82.91769409 18.18341064 C-82.86445196 13.20222651 -82.81773812 9.62505929 -79.5 5.625 C-58.08792516 -12.60335526 -23.69484545 -17.07683375 0 0 Z M-65.5 11.625 C-66.19816833 11.97351517 -66.89633667 12.32203033 -67.61566162 12.68110657 C-70.08261488 15.22602859 -69.97280002 17.26456032 -69.99768066 20.70977783 C-69.98329956 21.54055847 -69.96891846 22.37133911 -69.95410156 23.22729492 C-69.95468567 24.10555435 -69.95526978 24.98381378 -69.95587158 25.88868713 C-69.95308251 28.79468162 -69.92195179 31.69965324 -69.890625 34.60546875 C-69.88316554 36.61899759 -69.87747122 38.63253369 -69.87347412 40.64607239 C-69.85819463 45.94811006 -69.81889271 51.24971007 -69.7746582 56.55157471 C-69.7337555 61.9607552 -69.71547379 67.37000634 -69.6953125 72.77929688 C-69.65240083 83.39472364 -69.58412138 94.00982544 -69.5 104.625 C-68.35547363 104.20855225 -67.21094727 103.79210449 -66.03173828 103.36303711 C-64.50302289 102.81338004 -62.97420902 102.2639968 -61.4453125 101.71484375 C-60.69419189 101.44071655 -59.94307129 101.16658936 -59.16918945 100.88415527 C-39.52178192 93.85810618 -21.34701226 97.01889873 -2.5 104.625 C-2.29138203 92.9944298 -2.13151163 81.36430522 -2.03369045 69.73224449 C-1.98673772 64.33075207 -1.92306736 58.93054039 -1.82104492 53.52978516 C-1.72318336 48.31661041 -1.66942795 43.10466649 -1.64610481 37.89064407 C-1.62948703 35.90257002 -1.59703373 33.9145627 -1.54842949 31.9270134 C-0.81443576 21.46526179 -0.81443576 21.46526179 -4.40969849 12.11993408 C-6.75418521 10.51720399 -8.82554334 9.55167933 -11.5 8.625 C-12.96365707 7.88544332 -14.42284417 7.1368921 -15.875 6.375 C-32.37410603 -0.52358092 -50.68834563 1.98487241 -65.5 11.625 Z M10.5 14.625 C10.40480632 17.4248972 10.37446056 20.20006174 10.38647461 23.00024414 C10.38632858 23.87821152 10.38618256 24.75617889 10.3860321 25.66075134 C10.38673156 28.57724435 10.39452545 31.49367433 10.40234375 34.41015625 C10.40420782 36.42654892 10.40563177 38.44294204 10.40663147 40.45933533 C10.41045756 45.77765138 10.42028861 51.0959403 10.43133545 56.41424561 C10.44154762 61.83670688 10.44612867 67.25917252 10.45117188 72.68164062 C10.4619108 83.32943903 10.47898831 93.97721726 10.5 104.625 C11.56653809 104.20855225 12.63307617 103.79210449 13.73193359 103.36303711 C15.16230474 102.81330054 16.59281346 102.26392184 18.0234375 101.71484375 C18.72267334 101.44071655 19.42190918 101.16658936 20.14233398 100.88415527 C39.1468954 93.63255919 58.25692176 96.71601829 76.5 104.625 C76.68543936 92.9943567 76.82754701 81.36406554 76.91449738 69.73224449 C76.95623205 64.33089321 77.01282879 58.93055395 77.10351562 53.52978516 C77.19050323 48.31663717 77.23828708 43.10446183 77.25901794 37.89064407 C77.273789 35.9026114 77.30263519 33.91463142 77.34584045 31.9270134 C77.40401859 29.13946734 77.4119098 26.35592753 77.40820312 23.56787109 C77.43696533 22.74787628 77.46572754 21.92788147 77.49536133 21.08303833 C77.44376157 17.49118483 77.28864257 15.45267037 74.74995422 12.78834915 C56.91580917 -0.82032389 27.11981574 -1.99481574 10.5 14.625 Z " fill="#000000" transform="translate(357.5,315.375)"/>
<path d="M0 0 C5.97072728 4.46255049 10.39381251 9.38458216 12.2578125 16.6875 C13.23603954 25.95491408 12.94558088 34.03695009 7.2578125 41.6875 C1.24295599 48.40242295 -5.9994215 51.17264041 -14.90625 51.74609375 C-23.03974061 51.57804642 -29.99717473 48.40697938 -35.7421875 42.6875 C-41.9621287 34.51802499 -42.61244315 26.71567854 -41.7421875 16.6875 C-39.23606994 7.79898026 -33.24213771 2.47746913 -25.6171875 -2.25 C-17.3466374 -5.25919329 -7.53320878 -4.37572523 0 0 Z M-27.1171875 15.8125 C-29.53260887 20.0859378 -29.48110349 23.89224312 -28.7421875 28.6875 C-26.56021422 33.59693988 -23.6197753 35.93217814 -18.82421875 38.05859375 C-15.4444454 39.0795009 -13.09333911 38.68043381 -9.7421875 37.6875 C-5.43189364 35.36657254 -2.54566197 33.29637921 -0.7421875 28.6875 C0.1121887 24.10709428 0.28086273 20.35711797 -2.20703125 16.296875 C-6.0857089 11.73758373 -8.40494779 9.87907703 -14.5546875 9.375 C-20.09511573 9.45632739 -23.10894997 12.22618221 -27.1171875 15.8125 Z " fill="#000000" transform="translate(251.7421875,114.3125)"/>
<path d="M0 0 C3.40761303 2.32787518 6.57622193 4.63663389 9 8 C9.39504932 11.65190945 9.43384008 13.32320947 7.4375 16.4375 C5 18 5 18 1.625 18.0625 C-2.60532518 16.8225771 -4.73532852 14.90981588 -8 12 C-12.13927866 9.7125039 -16.3556889 9.29735515 -21 10 C-25.0992907 11.46727379 -28.33186456 13.3970485 -31.5625 16.3125 C-34 18 -34 18 -37.6875 17.9375 C-41 17 -41 17 -43 14 C-43.13879553 10.39131618 -42.79702442 8.01535824 -40.53125 5.12890625 C-29.37729375 -5.49935124 -13.48942926 -7.18633285 0 0 Z " fill="#000000" transform="translate(420,333)"/>
<path d="M0 0 C3.26977225 2.61930246 5.25260415 4.6209697 6.88671875 8.51171875 C6.57421875 11.38671875 6.57421875 11.38671875 4.51171875 14.32421875 C1.57421875 16.38671875 1.57421875 16.38671875 -1.36328125 16.51171875 C-5.12179564 15.13103999 -7.42203097 13.00701154 -10.42578125 10.38671875 C-14.83908855 7.88186866 -19.47359836 7.70879054 -24.42578125 8.38671875 C-28.56304941 9.82255063 -31.77056587 11.8095052 -35.05078125 14.69921875 C-37.42578125 16.38671875 -37.42578125 16.38671875 -40.61328125 16.26171875 C-43.42578125 15.38671875 -43.42578125 15.38671875 -45.42578125 13.38671875 C-45.86437449 9.51247844 -45.87893594 7.17973945 -43.92578125 3.76171875 C-31.83478559 -7.72472713 -13.9768621 -9.29540104 0 0 Z " fill="#000000" transform="translate(339.42578125,387.61328125)"/>
<path d="M0 0 C3.2298571 2.45319163 6.13616195 5.13616195 9 8 C9.26293056 12.03160191 9.29404844 13.55892734 7 17 C4.19921875 17.8984375 4.19921875 17.8984375 1 18 C-1.66796875 16.6015625 -1.66796875 16.6015625 -4.1875 14.625 C-10.11809054 10.051795 -14.61301845 9.35363911 -22 10 C-25.46806397 11.30870339 -27.71818334 12.76629838 -30.5625 15.125 C-33.20131453 17.15485733 -34.69386367 17.83045455 -38 18 C-40.70637529 17.02269781 -41.70256222 16.59487555 -43 14 C-43.5 11.3125 -43.5 11.3125 -43 8 C-33.53488485 -5.36081804 -13.72342532 -8.20087247 0 0 Z " fill="#000000" transform="translate(420,386)"/>
<path d="M0 0 C2.98417493 2.84207136 3.86877806 4.06270043 4.4375 8.125 C4 11 4 11 2.9375 12.875 C-0.26473478 14.73436213 -2.36286103 14.54557085 -6 14 C-7.90524186 12.62165025 -9.54322762 11.08427554 -11.25390625 9.47265625 C-15.10312201 6.22622596 -19.07285161 5.98528336 -23.9375 6.0625 C-29.46911745 6.94669616 -34.09199666 10.09199666 -38 14 C-44.05240175 14.55021834 -44.05240175 14.55021834 -46.9375 12.875 C-48.53773673 10.05105282 -48.44734094 8.19529239 -48 5 C-44.64391472 -1.10197324 -37.78318806 -4.71841706 -31.359375 -6.89453125 C-19.94755517 -9.48054305 -9.22618095 -7.13656607 0 0 Z " fill="#000000" transform="translate(425,363)"/>
<path d="M0 0 C4.90499737 5.04954543 4.90499737 5.04954543 4.98828125 9.546875 C3.92578125 12.171875 3.92578125 12.171875 1.92578125 14.171875 C-1.52124091 14.72339855 -3.98576263 14.90652654 -6.9609375 12.8984375 C-7.59644531 12.36992187 -8.23195313 11.84140625 -8.88671875 11.296875 C-13.29978119 7.71019684 -17.37758107 6.29552295 -23.07421875 6.171875 C-27.92269484 6.93701293 -31.63244171 8.56003223 -35.26171875 11.859375 C-38.07421875 14.171875 -38.07421875 14.171875 -41.26171875 14.671875 C-44.07421875 14.171875 -44.07421875 14.171875 -45.94921875 13.109375 C-47.89402438 9.75998752 -47.82488865 7.98778035 -47.07421875 4.171875 C-42.5314863 -1.40422677 -37.0385969 -5.11960811 -30.07421875 -6.828125 C-29.02234375 -7.09625 -27.97046875 -7.364375 -26.88671875 -7.640625 C-17.1756015 -8.11822093 -7.42898643 -6.54758126 0 0 Z " fill="#000000" transform="translate(341.07421875,362.828125)"/>
<path d="M0 0 C6.79841775 5.06080299 6.79841775 5.06080299 8.4453125 9.3828125 C8.2435802 12.13982058 7.74001679 13.89163868 6.3203125 16.2578125 C4.4453125 17.3828125 4.4453125 17.3828125 1.2578125 17.4453125 C-2.99509842 16.26007503 -5.41049539 14.54278033 -8.7578125 11.7578125 C-12.58664287 8.82792491 -16.93834723 8.91349879 -21.5546875 9.3828125 C-25.65667036 10.75014012 -28.75771097 12.48796146 -32.1171875 15.1328125 C-34.80959253 17.15211627 -35.30568549 17.38751065 -38.8671875 17.3203125 C-41.5546875 16.3828125 -41.5546875 16.3828125 -43.5546875 14.3828125 C-44.10818859 10.1920185 -44.15386775 8.16923658 -41.5546875 4.7578125 C-29.34412888 -4.90887974 -14.02903462 -8.88076503 0 0 Z " fill="#000000" transform="translate(337.5546875,333.6171875)"/>
</svg>
