<?xml version="1.0" encoding="UTF-8"?>
<svg version="1.1" xmlns="http://www.w3.org/2000/svg" width="512" height="512">
<path d="M0 0 C1.29090546 -0.0112793 2.58181091 -0.02255859 3.91183472 -0.03417969 C5.34068522 -0.02640224 6.76953352 -0.01820955 8.19837952 -0.00964355 C9.70495785 -0.0150647 11.21153088 -0.02218732 12.71809387 -0.03088379 C16.81170645 -0.04913531 20.90491616 -0.04203853 24.99853587 -0.02936745 C29.29128137 -0.01923244 33.58399262 -0.02863607 37.8767395 -0.03491211 C45.09550651 -0.04219413 52.31411 -0.03259371 59.53285217 -0.0135498 C67.85228461 0.00814592 76.1713238 0.00122326 84.49074644 -0.02085543 C91.64769292 -0.03908256 98.80452179 -0.04152999 105.96148401 -0.03110075 C110.22920916 -0.02489623 114.49675044 -0.0239441 118.76446342 -0.0372467 C122.78736342 -0.04890874 126.80976431 -0.04059339 130.83261108 -0.01766968 C132.29941039 -0.01243406 133.76625257 -0.01380668 135.23303413 -0.02272034 C148.10793865 -0.09366927 158.85571142 2.01551417 169.60096741 9.33605957 C171.90170992 10.83032698 171.90170992 10.83032698 175.72206116 10.50793457 C177.91826704 9.33755066 177.91826704 9.33755066 180.15956116 7.75793457 C190.97470089 1.04709631 201.87062794 -0.08555949 214.3629303 -0.00964355 C215.88543869 -0.01507802 217.40794181 -0.02220804 218.93043518 -0.03088379 C223.02291261 -0.04894903 227.11498185 -0.04212385 231.20746541 -0.02936745 C235.5043688 -0.01916844 239.80123962 -0.02865059 244.09814453 -0.03491211 C251.30089033 -0.04216152 258.5034713 -0.0326649 265.70619202 -0.0135498 C274.03110267 0.00828834 282.35562247 0.00110666 290.68052393 -0.02085543 C297.84515449 -0.03899816 305.00966739 -0.04157554 312.17431349 -0.03110075 C316.44664804 -0.02486915 320.71879859 -0.02402248 324.99112129 -0.0372467 C328.99934142 -0.04879088 333.00705528 -0.04080637 337.01522064 -0.01766968 C338.48580776 -0.01237804 339.95643746 -0.0139042 341.42700768 -0.02272034 C343.43269714 -0.0336376 345.43847969 -0.01752432 347.44412231 0 C349.12779954 0.00226215 349.12779954 0.00226215 350.84549046 0.00457001 C354.38600706 0.62411695 355.57538076 1.67111487 357.72206116 4.50793457 C358.11268616 7.52355957 358.11268616 7.52355957 357.97206116 10.75793457 C357.93596741 11.83559082 357.89987366 12.91324707 357.86268616 14.02355957 C357.81627991 14.84340332 357.76987366 15.66324707 357.72206116 16.50793457 C358.54931702 16.4869873 359.37657288 16.46604004 360.22889709 16.44445801 C363.97649486 16.36131838 367.72389865 16.30927926 371.47206116 16.25793457 C372.77401428 16.22441895 374.07596741 16.19090332 375.41737366 16.15637207 C376.66776428 16.14348145 377.91815491 16.13059082 379.20643616 16.11730957 C380.35853577 16.0963623 381.51063538 16.07541504 382.69764709 16.05383301 C386.44537137 16.6165362 387.37676494 17.59214879 389.72206116 20.50793457 C390.22345781 22.89808655 390.22345781 22.89808655 390.22542572 25.61169434 C390.23585671 26.64827682 390.2462877 27.68485931 390.25703478 28.75285339 C390.24811189 29.89019424 390.239189 31.0275351 390.22999573 32.19934082 C390.23935567 34.01333122 390.23935567 34.01333122 390.24890471 35.8639679 C390.26211662 39.22238931 390.25733878 42.5799183 390.24495983 45.93828583 C390.23592385 49.55935262 390.24987181 53.18034041 390.26087952 56.8013916 C390.27868495 63.89561535 390.27481581 70.98967002 390.26322895 78.08390045 C390.25420283 83.84846893 390.25296706 89.61298996 390.25732422 95.37756348 C390.25793715 96.19737355 390.25855008 97.01718363 390.25918159 97.86183643 C390.26046046 99.52715939 390.26175732 101.19248233 390.26307195 102.85780525 C390.27448368 118.48099534 390.26135478 134.10409161 390.23987049 149.72726631 C390.22199896 163.13857772 390.2251029 176.54975066 390.24354553 189.96105957 C390.26494181 205.52756532 390.27338499 221.0939888 390.26109648 236.6605072 C390.25982225 238.31977334 390.25856477 239.9790395 390.25732422 241.63830566 C390.25639857 242.86295642 390.25639857 242.86295642 390.25545421 244.1123476 C390.25199758 249.87134586 390.25783639 255.63029203 390.26724243 261.38928223 C390.27845002 268.40566804 390.27544865 275.42187481 390.25411946 282.43824005 C390.24359215 286.01953488 390.23951541 289.60053098 390.25271606 293.18182373 C390.26679587 297.06022828 390.25000768 300.93814148 390.22999573 304.81652832 C390.24338006 306.5225396 390.24338006 306.5225396 390.25703478 308.26301575 C390.24660379 309.29959824 390.2361728 310.33618073 390.22542572 311.4041748 C390.22477631 312.29966537 390.2241269 313.19515594 390.22345781 314.11778259 C389.55943283 317.2831819 388.19603156 318.49502449 385.72206116 320.50793457 C383.57063293 320.98895264 383.57063293 320.98895264 381.22889709 320.96203613 C380.34828613 320.96173401 379.46767517 320.96143188 378.56037903 320.96112061 C377.61857788 320.94047546 376.67677673 320.91983032 375.70643616 320.89855957 C374.73546997 320.89289978 373.76450378 320.88723999 372.76411438 320.88140869 C369.66625946 320.85903768 366.56956582 320.8088393 363.47206116 320.75793457 C361.37051537 320.73787054 359.26895144 320.7196196 357.16737366 320.70324707 C352.01848946 320.65917037 346.87047212 320.59013715 341.72206116 320.50793457 C341.72206116 315.22793457 341.72206116 309.94793457 341.72206116 304.50793457 C352.28206116 304.50793457 362.84206116 304.50793457 373.72206116 304.50793457 C373.72206116 214.74793457 373.72206116 124.98793457 373.72206116 32.50793457 C368.44206116 32.50793457 363.16206116 32.50793457 357.72206116 32.50793457 C357.72574833 33.80298794 357.7294355 35.09804131 357.73323441 36.43233871 C357.81982547 67.15940767 357.88580296 97.88644374 357.92632248 128.61360537 C357.93132543 132.39381167 357.93650271 136.17401771 357.94178772 139.95422363 C357.94283696 140.70680931 357.9438862 141.45939499 357.94496724 142.2347863 C357.96238272 154.42799292 357.99392666 166.62112427 358.03067234 178.8142862 C358.06805004 191.32127807 358.09029028 203.82823046 358.09841514 216.33527589 C358.10390952 224.05571659 358.12127624 231.77594456 358.15372702 239.4963198 C358.17732754 245.41168031 358.17988902 251.32693105 358.17449188 257.24234009 C358.17559561 259.67240969 358.18359548 262.10248708 358.19888306 264.53250885 C358.21868841 267.84198044 358.21403433 271.15053052 358.20307922 274.46002197 C358.21473059 275.42888958 358.22638196 276.39775718 358.23838639 277.39598441 C358.18014346 283.87377965 358.18014346 283.87377965 355.84544373 287.10586548 C353.20038685 288.85239601 351.65265689 288.99269764 348.49452209 288.96203613 C347.45374512 288.96173401 346.41296814 288.96143188 345.34065247 288.96112061 C343.66546539 288.93015289 343.66546539 288.93015289 341.95643616 288.89855957 C340.80790161 288.89289978 339.65936707 288.88723999 338.47602844 288.88140869 C334.80761541 288.85901788 331.14017899 288.80881399 327.47206116 288.75793457 C324.9850961 288.73787318 322.49811573 288.71962179 320.01112366 288.70324707 C313.91439319 288.65914381 307.81839275 288.59009537 301.72206116 288.50793457 C301.72206116 283.22793457 301.72206116 277.94793457 301.72206116 272.50793457 C314.92206116 272.50793457 328.12206116 272.50793457 341.72206116 272.50793457 C341.72206116 188.02793457 341.72206116 103.54793457 341.72206116 16.50793457 C320.18956116 16.63168457 298.65706116 16.75543457 276.47206116 16.88293457 C269.68998108 16.91693359 262.907901 16.95093262 255.92030334 16.98596191 C249.80521282 17.02590088 249.80521282 17.02590088 243.69013977 17.06838989 C240.98062453 17.08599784 238.27126017 17.10056148 235.5617218 17.11062622 C231.44155333 17.12614467 227.32162727 17.15715043 223.20155334 17.18908691 C222.0081068 17.19125906 220.81466026 17.19343121 219.58504868 17.19566917 C209.81293506 17.29254594 199.92891602 17.75651421 191.15956116 22.44543457 C190.18889709 22.94945801 189.21823303 23.45348145 188.21815491 23.97277832 C185.93485648 25.37706045 184.40966806 26.45364529 182.72206116 28.50793457 C182.27212751 30.48291101 182.27212751 30.48291101 182.3373003 32.68771648 C182.32784376 33.54363815 182.31838722 34.39955982 182.30864412 35.2814185 C182.31591548 36.69239779 182.31591548 36.69239779 182.32333374 38.13188171 C182.31668691 39.13083176 182.31004009 40.12978181 182.30319184 41.15900308 C182.28447088 44.52175368 182.28717327 47.88415132 182.28968811 51.24694824 C182.28067652 53.65130622 182.2703508 56.05565958 182.25880432 58.46000671 C182.23687576 63.64432175 182.22412825 68.8285739 182.21967506 74.01292992 C182.21322071 81.50865681 182.19029601 89.00426186 182.16333177 96.49993972 C182.12003394 108.66070929 182.09008433 120.82147374 182.0684967 132.9822998 C182.04749597 144.79645302 182.02022882 156.61056432 181.98451233 168.42468262 C181.9823135 169.15272137 181.98011468 169.88076012 181.97784922 170.63086065 C181.9667798 174.28316245 181.95558695 177.93546386 181.94433272 181.5877651 C181.85110522 211.89445395 181.78034833 242.20115719 181.72206116 272.50793457 C192.28206116 272.50793457 202.84206116 272.50793457 213.72206116 272.50793457 C213.67565491 268.63043457 213.62924866 264.75293457 213.58143616 260.75793457 C213.55021051 256.98825387 213.5259397 253.21858776 213.50233459 249.44885254 C213.48226182 246.83583084 213.45499758 244.22285382 213.42030334 241.60998535 C213.37159681 237.84668935 213.34904805 234.08398908 213.33143616 230.32043457 C213.31079102 229.15866699 213.29014587 227.99689941 213.26887512 226.79992676 C213.26668972 218.83923074 214.29334911 213.42061989 219.68690491 207.26574707 C220.33788147 206.72691895 220.98885803 206.18809082 221.65956116 205.63293457 C222.30795959 205.0786377 222.95635803 204.52434082 223.62440491 203.95324707 C230.12563673 199.4738136 237.09347032 199.83329729 244.72206116 200.50793457 C251.38165449 202.1887904 255.90753563 206.97171779 259.72206116 212.50793457 C261.6236282 216.45655277 261.99006227 219.67803044 262.04090881 224.0423584 C262.07071335 225.99381523 262.07071335 225.99381523 262.10112 227.98469543 C262.11299467 229.39478384 262.12465763 230.80487404 262.13612366 232.21496582 C262.15484476 233.6651468 262.17441888 235.11531699 262.19480896 236.56547546 C262.24603685 240.37118153 262.2857123 244.17692287 262.32295227 247.98278809 C262.36305073 251.87081564 262.41411635 255.75869762 262.46424866 259.64660645 C262.5608972 267.26694911 262.6453371 274.88736248 262.72206116 282.50793457 C263.71206116 281.84793457 264.70206116 281.18793457 265.72206116 280.50793457 C269.66422936 280.01779973 273.62769309 280.09142418 277.59706116 280.07043457 C278.68631897 280.03756348 279.77557678 280.00469238 280.89784241 279.9708252 C288.83682166 279.91738041 288.83682166 279.91738041 292.64393616 282.45715332 C294.82382663 285.65733087 296.75980453 288.93067739 298.66712952 292.29821777 C302.50498253 299.46885912 302.50498253 299.46885912 308.66004944 304.3560791 C311.97649814 304.97604404 315.03482138 304.78136963 318.37440491 304.43371582 C321.72206116 304.50793457 321.72206116 304.50793457 324.32752991 306.41027832 C326.77987537 309.58272523 328.69579104 312.81765627 330.66712952 316.29821777 C334.50498253 323.46885912 334.50498253 323.46885912 340.66004944 328.3560791 C343.97649814 328.97604404 347.03482138 328.78136963 350.37440491 328.43371582 C353.72206116 328.50793457 353.72206116 328.50793457 355.95228577 330.37609863 C370.59175596 346.15914526 376.53140156 361.23442142 376.09706116 382.57043457 C376.09632599 383.76183044 376.09559082 384.95322632 376.09483337 386.1807251 C375.93662902 409.20012421 368.89275573 427.42583386 359.02796936 447.92077637 C350.98327559 464.72167117 347.35241977 477.77050531 349.72206116 496.50793457 C344.44206116 496.50793457 339.16206116 496.50793457 333.72206116 496.50793457 C330.47846282 472.53351209 334.87777908 455.74735889 345.22206116 433.94543457 C356.50997189 409.91170565 363.38224202 386.30431632 355.68495178 359.95812988 C353.35243925 353.9822556 350.36554757 348.83171477 344.72206116 345.50793457 C340.80238408 344.14571496 337.19262432 344.15295481 333.06971741 344.58215332 C329.72206116 344.50793457 329.72206116 344.50793457 327.11659241 342.60559082 C324.66424694 339.43314391 322.74833128 336.19821288 320.7769928 332.71765137 C316.93913979 325.54701002 316.93913979 325.54701002 310.78407288 320.65979004 C307.46762418 320.0398251 304.40930094 320.23449951 301.06971741 320.58215332 C297.72206116 320.50793457 297.72206116 320.50793457 295.15174866 318.60949707 C291.44994995 313.88404985 288.347691 308.81140799 285.27088928 303.66223145 C284.77137756 302.87268066 284.27186584 302.08312988 283.75721741 301.26965332 C283.31772766 300.54737549 282.87823792 299.82509766 282.4254303 299.08093262 C280.73496677 297.2374298 280.73496677 297.2374298 277.76966858 296.97424316 C274.62090731 297.22729097 274.62090731 297.22729097 272.69569397 299.51159668 C272.11142639 300.42691162 271.52715881 301.34222656 270.92518616 302.28527832 C270.27678772 303.27334473 269.62838928 304.26141113 268.96034241 305.27941895 C267.97614319 306.84659668 267.97614319 306.84659668 266.97206116 308.44543457 C265.64743522 310.49847765 264.3194801 312.54937781 262.98768616 314.59777832 C262.4079303 315.51422119 261.82817444 316.43066406 261.23085022 317.37487793 C259.72206116 319.50793457 259.72206116 319.50793457 257.72206116 320.50793457 C250.54485116 321.08674183 250.54485116 321.08674183 247.62480164 319.03257751 C244.90660123 315.42594511 245.16558556 312.02703667 245.207901 307.68786621 C245.19721336 306.35304451 245.19721336 306.35304451 245.18630981 304.99125671 C245.16701282 302.04997625 245.17531179 299.10941369 245.18299866 296.16809082 C245.17309414 294.12311246 245.16115383 292.07814303 245.14726257 290.03318787 C245.11486508 284.64775812 245.10450551 279.26253177 245.10041809 273.87701416 C245.0916702 265.26034469 245.05616939 256.64384268 245.00824356 248.02731133 C244.9956539 245.01770171 244.99641705 242.00830312 244.9985199 238.99867249 C244.99193873 237.15157916 244.98493231 235.30448728 244.97743225 233.45739746 C244.98155624 232.62139008 244.98568024 231.78538269 244.9899292 230.92404175 C244.96068377 226.71234424 244.81559357 223.28929504 242.72206116 219.50793457 C239.92336089 218.10858444 237.81707324 218.25528052 234.72206116 218.50793457 C232.16256569 220.36136232 231.74287318 221.4454985 230.72206116 224.50793457 C230.55308795 227.51035618 230.43929646 230.49264277 230.37049866 233.49768066 C230.34625824 234.42069977 230.32201782 235.34371887 230.29704285 236.29470825 C230.08234296 244.96865525 229.95975662 253.64424447 229.86274719 262.32022667 C229.79675484 268.11503886 229.70349115 273.90602391 229.53553772 279.69885254 C228.65765485 310.74990636 231.68358551 336.74340225 243.46084595 365.67596817 C245.72206116 371.23150037 245.72206116 371.23150037 245.72206116 374.50793457 C243.45497791 375.37343927 241.18431036 376.22552772 238.90956116 377.07043457 C238.2669635 377.31729004 237.62436584 377.56414551 236.96229553 377.81848145 C232.06190491 379.62121582 232.06190491 379.62121582 228.72206116 378.50793457 C227.77284241 376.54699707 227.77284241 376.54699707 227.03456116 374.13293457 C226.78319397 373.3414502 226.53182678 372.54996582 226.27284241 371.73449707 C225.72206116 369.50793457 225.72206116 369.50793457 225.72206116 366.50793457 C225.16776428 366.86887207 224.61346741 367.22980957 224.04237366 367.60168457 C223.31792053 368.06574707 222.59346741 368.52980957 221.84706116 369.00793457 C221.12776428 369.47199707 220.40846741 369.93605957 219.66737366 370.41418457 C217.72206116 371.50793457 217.72206116 371.50793457 215.72206116 371.50793457 C219.14618581 394.90567436 219.14618581 394.90567436 228.41444397 416.3795166 C229.99097388 418.94564576 231.49230184 421.55052581 232.99549866 424.16027832 C233.58250549 425.17388428 234.16951233 426.18749023 234.77430725 427.23181152 C235.99169136 429.33638917 237.20554913 431.44301046 238.41590881 433.55163574 C241.05657069 438.11372001 243.68197646 442.56193893 246.84706116 446.78137207 C257.27679515 461.41167247 254.55341593 479.38202618 253.72206116 496.50793457 C248.44206116 496.50793457 243.16206116 496.50793457 237.72206116 496.50793457 C237.82389709 494.72773926 237.92573303 492.94754395 238.03065491 491.11340332 C238.57753506 471.89049983 234.37822752 460.09518281 223.82801819 443.79650879 C221.02268282 439.41581468 218.41385859 434.93279454 215.80873108 430.43103027 C214.61849363 428.3747341 213.41746854 426.32462939 212.20375061 424.28210449 C211.65807434 423.36147217 211.11239807 422.44083984 210.55018616 421.49230957 C210.07484436 420.69534668 209.59950256 419.89838379 209.10975647 419.07727051 C206.04802604 413.40843676 204.14018372 407.82090045 202.89784241 401.51965332 C202.74671494 400.77641312 202.59558746 400.03317291 202.43988037 399.26741028 C202.12442051 397.70423068 201.81285368 396.14026082 201.50502014 394.57556152 C201.03739097 392.20975105 200.5514562 389.84821541 200.06385803 387.4864502 C196.52326614 370.00614629 196.52326614 370.00614629 197.72206116 364.50793457 C201.37610301 359.40646643 207.32290558 356.39632861 212.63417053 353.17004395 C214.85924567 351.79884608 214.85924567 351.79884608 217.72206116 349.50793457 C217.72206116 345.55668868 217.12895783 343.67072222 215.72206116 340.07043457 C213.36991837 333.35357612 213.41438372 327.58451566 213.72206116 320.50793457 C208.11206116 320.50793457 202.50206116 320.50793457 196.72206116 320.50793457 C196.06206116 322.15793457 195.40206116 323.80793457 194.72206116 325.50793457 C191.16710497 330.62932264 187.08608247 335.34981762 180.72206116 336.50793457 C172.82976577 337.25195764 165.15877202 337.68029151 158.72206116 332.50793457 C154.87050521 328.83692031 151.88799561 325.76593609 150.72206116 320.50793457 C149.75169292 320.51162174 148.78132469 320.51530891 147.78155136 320.51910782 C124.18830085 320.60784112 100.59507194 320.67360668 77.00168991 320.71518326 C65.59217657 320.73582295 54.18277335 320.76397046 42.77333069 320.80969238 C32.83076762 320.84951703 22.88828428 320.87535714 12.94564366 320.88428855 C7.67933233 320.8895107 2.41324914 320.9018139 -2.8529892 320.9308548 C-7.80728976 320.95795479 -12.76126766 320.96639053 -17.7156353 320.9603653 C-19.53616271 320.96146796 -21.35670064 320.96945402 -23.17716408 320.98475647 C-25.65909199 321.0046 -28.13979481 320.99989494 -30.62174988 320.98895264 C-31.34548774 321.000604 -32.0692256 321.01225537 -32.81489491 321.02425981 C-36.03800822 320.98573587 -37.89018337 320.81188017 -40.46172071 318.7961576 C-42.62630817 316.06902985 -42.7788082 314.84488731 -42.78130341 311.4041748 C-42.7917344 310.36759232 -42.80216538 309.33100983 -42.81291246 308.26301575 C-42.80398958 307.1256749 -42.79506669 305.98833405 -42.78587341 304.81652832 C-42.79211338 303.60720139 -42.79835334 302.39787445 -42.80478239 301.15190125 C-42.81799431 297.79347983 -42.81321646 294.43595084 -42.80083752 291.07758331 C-42.79180153 287.45651652 -42.8057495 283.83552873 -42.8167572 280.21447754 C-42.83456263 273.12025379 -42.8306935 266.02619912 -42.81910664 258.93196869 C-42.81008052 253.16740021 -42.80884475 247.40287918 -42.8132019 241.63830566 C-42.81381484 240.81849559 -42.81442777 239.99868551 -42.81505927 239.15403271 C-42.81633815 237.48870975 -42.817635 235.82338681 -42.81894964 234.15806389 C-42.83036136 218.5348738 -42.81723247 202.91177753 -42.79574817 187.28860283 C-42.77787664 173.87729142 -42.78098058 160.46611848 -42.79942322 147.05480957 C-42.8208195 131.48830382 -42.82926267 115.92188034 -42.81697416 100.35536194 C-42.81569994 98.6960958 -42.81444246 97.03682964 -42.8132019 95.37756348 C-42.8125848 94.56112964 -42.8119677 93.7446958 -42.8113319 92.90352154 C-42.80787526 87.14452328 -42.81371408 81.38557711 -42.82312012 75.62658691 C-42.8343277 68.6102011 -42.83132633 61.59399433 -42.80999714 54.57762909 C-42.79946984 50.99633426 -42.7953931 47.41533816 -42.80859375 43.83404541 C-42.82267356 39.95564086 -42.80588536 36.07772766 -42.78587341 32.19934082 C-42.7947963 31.06199997 -42.80371919 29.92465912 -42.81291246 28.75285339 C-42.80248147 27.7162709 -42.79205049 26.67968842 -42.78130341 25.61169434 C-42.780654 24.71620377 -42.78000459 23.8207132 -42.7793355 22.89808655 C-42.11094514 19.71187756 -40.79856706 18.50497823 -38.27793884 16.50793457 C-35.25352478 16.05383301 -35.25352478 16.05383301 -31.76231384 16.11730957 C-30.51192322 16.1302002 -29.26153259 16.14309082 -27.97325134 16.15637207 C-26.02032166 16.20664551 -26.02032166 16.20664551 -24.02793884 16.25793457 C-22.71051697 16.27598145 -21.39309509 16.29402832 -20.03575134 16.31262207 C-16.78241577 16.35977186 -13.53054259 16.42557413 -10.27793884 16.50793457 C-10.32434509 15.68809082 -10.37075134 14.86824707 -10.41856384 14.02355957 C-10.47270447 12.4070752 -10.47270447 12.4070752 -10.52793884 10.75793457 C-10.57434509 9.69059082 -10.62075134 8.62324707 -10.66856384 7.52355957 C-9.84375357 1.15602425 -5.84920734 0.00785887 0 0 Z M5.72206116 16.50793457 C5.72206116 100.98793457 5.72206116 185.46793457 5.72206116 272.50793457 C58.52206116 272.50793457 111.32206116 272.50793457 165.72206116 272.50793457 C165.92592563 229.2872762 165.92592563 229.2872762 166.06385803 186.06652832 C166.07756321 180.24084333 166.0917066 174.41515966 166.10658264 168.58947754 C166.10842888 167.8593199 166.11027512 167.12916225 166.11217731 166.37687862 C166.14262532 154.58790281 166.19781326 142.79916592 166.26213073 131.01033179 C166.32758421 118.91240496 166.36647102 106.81460323 166.38068062 94.7165066 C166.3902872 87.25075874 166.42063036 79.78568588 166.47747643 72.3201458 C166.51884204 66.59617043 166.52324938 60.87262789 166.51381493 55.14853287 C166.5157434 52.79990225 166.52970367 50.45124649 166.55649948 48.10276794 C166.59127216 44.89844885 166.58297915 41.69702984 166.56384277 38.49264526 C166.58423266 37.56073093 166.60462255 36.62881659 166.62563032 35.66866243 C166.55043287 30.77714494 166.55043287 30.77714494 164.21257794 26.6179173 C160.75529558 23.57949208 157.12390074 21.42819207 152.84706116 19.69543457 C151.90088928 19.29711426 150.95471741 18.89879395 149.97987366 18.48840332 C141.74820505 16.01100665 133.09768408 16.36896889 124.58314514 16.39440918 C122.61890516 16.39422838 122.61890516 16.39422838 120.61498356 16.39404392 C117.09747228 16.3938197 113.57999555 16.399583 110.06249237 16.40665436 C106.75244241 16.41238194 103.4423938 16.41261925 100.13233948 16.41333008 C90.47474219 16.41856133 80.81715123 16.43252259 71.15956116 16.44543457 C38.76799866 16.47637207 38.76799866 16.47637207 5.72206116 16.50793457 Z M-26.27793884 32.50793457 C-26.27793884 122.26793457 -26.27793884 212.02793457 -26.27793884 304.50793457 C31.80206116 304.50793457 89.88206116 304.50793457 149.72206116 304.50793457 C149.72206116 299.22793457 149.72206116 293.94793457 149.72206116 288.50793457 C147.77434311 288.50206833 145.82662506 288.49620209 143.81988525 288.49015808 C125.49913458 288.43304126 107.17850269 288.36051656 88.85787487 288.27221966 C79.43818466 288.2272188 70.01853262 288.18781412 60.59877014 288.16149902 C52.39026406 288.1385536 44.18187834 288.10519451 35.97346765 288.05923301 C31.62556523 288.03525398 27.27778237 288.01655597 22.92981529 288.01032066 C18.83974026 288.00429086 14.74997131 287.98436792 10.66000938 287.95365906 C9.15677512 287.94484491 7.65350092 287.9411632 6.15024185 287.94292641 C4.10185556 287.94457082 2.05348209 287.92616619 0.00518799 287.90666199 C-1.14244428 287.90205302 -2.29007654 287.89744406 -3.47248554 287.89269543 C-6.68111 287.45264066 -7.34269154 287.011816 -9.27793884 284.50793457 C-9.65694636 282.51950771 -9.65694636 282.51950771 -9.6626997 280.20321369 C-9.67215624 279.31942486 -9.68161278 278.43563603 -9.69135588 277.52506572 C-9.68650831 276.55328527 -9.68166073 275.58150483 -9.67666626 274.58027649 C-9.6866365 273.03284879 -9.6866365 273.03284879 -9.69680816 271.45415992 C-9.71553161 267.98085631 -9.71282656 264.50789437 -9.71031189 261.0345459 C-9.71932333 258.55137135 -9.72964901 256.06820128 -9.74119568 253.58503723 C-9.76312549 248.23046105 -9.77587198 242.87598247 -9.78032494 237.52137184 C-9.78677895 229.77949403 -9.80970305 222.03773421 -9.83666823 214.29590388 C-9.87996739 201.73581936 -9.90991624 189.1757398 -9.9315033 176.61560059 C-9.95250363 164.41342735 -9.97977043 152.2112947 -10.01548767 140.00915527 C-10.01878591 138.8812532 -10.01878591 138.8812532 -10.02215078 137.73056523 C-10.03322019 133.95839087 -10.04441305 130.18621688 -10.05566728 126.41404307 C-10.14889667 95.11204072 -10.22025221 63.81002356 -10.27793884 32.50793457 C-15.55793884 32.50793457 -20.83793884 32.50793457 -26.27793884 32.50793457 Z M165.72206116 288.50793457 C165.64094766 292.38335734 165.58150065 296.25707339 165.53456116 300.13293457 C165.50942444 301.22734863 165.48428772 302.3217627 165.45838928 303.44934082 C165.35257546 311.40817214 165.35257546 311.40817214 168.72206116 318.50793457 C171.56289757 319.92835278 173.57683393 319.82245729 176.72206116 319.50793457 C179.56986735 317.27587026 180.57203782 315.95800458 181.72206116 312.50793457 C181.80445284 310.66182925 181.82949475 308.81288293 181.81971741 306.96496582 C181.81488342 305.35524902 181.81488342 305.35524902 181.80995178 303.7130127 C181.80157288 302.59346191 181.79319397 301.47391113 181.78456116 300.32043457 C181.78004944 299.18928223 181.77553772 298.05812988 181.77088928 296.8927002 C181.75909627 294.09775581 181.74116073 291.30283858 181.72206116 288.50793457 C176.44206116 288.50793457 171.16206116 288.50793457 165.72206116 288.50793457 Z M197.72206116 288.50793457 C197.72206116 293.78793457 197.72206116 299.06793457 197.72206116 304.50793457 C203.00206116 304.50793457 208.28206116 304.50793457 213.72206116 304.50793457 C213.72206116 299.22793457 213.72206116 293.94793457 213.72206116 288.50793457 C208.44206116 288.50793457 203.16206116 288.50793457 197.72206116 288.50793457 Z " fill="#000000" transform="translate(82.27793884277344,7.4920654296875)"/>
<path d="M0 0 C3.12578143 1.6720747 5.39281175 3.7856235 7 7 C7.51512617 11.09157355 7.94367269 15.23589546 5.953125 18.95703125 C3.55501226 21.85592636 1.60351712 23.79811835 -2.171875 24.2734375 C-9.98876369 24.58137554 -9.98876369 24.58137554 -13.5625 21.625 C-17.3057723 17.59378368 -17.39037018 14.90519941 -17.359375 9.55078125 C-16.78039966 5.44131496 -15.00085071 3.78650423 -12 1 C-8.27533151 -0.86233425 -4.05504687 -0.57130829 0 0 Z " fill="#000000" transform="translate(145,240)"/>
<path d="M0 0 C3.12578143 1.6720747 5.39281175 3.7856235 7 7 C7.51512617 11.09157355 7.94367269 15.23589546 5.953125 18.95703125 C3.55501226 21.85592636 1.60351712 23.79811835 -2.171875 24.2734375 C-9.98876369 24.58137554 -9.98876369 24.58137554 -13.5625 21.625 C-17.3057723 17.59378368 -17.39037018 14.90519941 -17.359375 9.55078125 C-16.78039966 5.44131496 -15.00085071 3.78650423 -12 1 C-8.27533151 -0.86233425 -4.05504687 -0.57130829 0 0 Z " fill="#000000" transform="translate(113,240)"/>
<path d="M0 0 C3.12578143 1.6720747 5.39281175 3.7856235 7 7 C7.51512617 11.09157355 7.94367269 15.23589546 5.953125 18.95703125 C3.55501226 21.85592636 1.60351712 23.79811835 -2.171875 24.2734375 C-9.98876369 24.58137554 -9.98876369 24.58137554 -13.5625 21.625 C-17.3057723 17.59378368 -17.39037018 14.90519941 -17.359375 9.55078125 C-16.78039966 5.44131496 -15.00085071 3.78650423 -12 1 C-8.27533151 -0.86233425 -4.05504687 -0.57130829 0 0 Z " fill="#000000" transform="translate(113,208)"/>
<path d="M0 0 C3.12578143 1.6720747 5.39281175 3.7856235 7 7 C7.51512617 11.09157355 7.94367269 15.23589546 5.953125 18.95703125 C3.55501226 21.85592636 1.60351712 23.79811835 -2.171875 24.2734375 C-9.98876369 24.58137554 -9.98876369 24.58137554 -13.5625 21.625 C-17.3057723 17.59378368 -17.39037018 14.90519941 -17.359375 9.55078125 C-16.78039966 5.44131496 -15.00085071 3.78650423 -12 1 C-8.27533151 -0.86233425 -4.05504687 -0.57130829 0 0 Z " fill="#000000" transform="translate(113,176)"/>
<path d="M0 0 C3.12578143 1.6720747 5.39281175 3.7856235 7 7 C7.51512617 11.09157355 7.94367269 15.23589546 5.953125 18.95703125 C3.55501226 21.85592636 1.60351712 23.79811835 -2.171875 24.2734375 C-9.98876369 24.58137554 -9.98876369 24.58137554 -13.5625 21.625 C-17.3057723 17.59378368 -17.39037018 14.90519941 -17.359375 9.55078125 C-16.78039966 5.44131496 -15.00085071 3.78650423 -12 1 C-8.27533151 -0.86233425 -4.05504687 -0.57130829 0 0 Z " fill="#000000" transform="translate(409,168)"/>
<path d="M0 0 C3.12578143 1.6720747 5.39281175 3.7856235 7 7 C7.51512617 11.09157355 7.94367269 15.23589546 5.953125 18.95703125 C3.55501226 21.85592636 1.60351712 23.79811835 -2.171875 24.2734375 C-9.98876369 24.58137554 -9.98876369 24.58137554 -13.5625 21.625 C-17.3057723 17.59378368 -17.39037018 14.90519941 -17.359375 9.55078125 C-16.78039966 5.44131496 -15.00085071 3.78650423 -12 1 C-8.27533151 -0.86233425 -4.05504687 -0.57130829 0 0 Z " fill="#000000" transform="translate(377,168)"/>
<path d="M0 0 C3.12578143 1.6720747 5.39281175 3.7856235 7 7 C7.51512617 11.09157355 7.94367269 15.23589546 5.953125 18.95703125 C3.55501226 21.85592636 1.60351712 23.79811835 -2.171875 24.2734375 C-9.98876369 24.58137554 -9.98876369 24.58137554 -13.5625 21.625 C-17.3057723 17.59378368 -17.39037018 14.90519941 -17.359375 9.55078125 C-16.78039966 5.44131496 -15.00085071 3.78650423 -12 1 C-8.27533151 -0.86233425 -4.05504687 -0.57130829 0 0 Z " fill="#000000" transform="translate(329,168)"/>
<path d="M0 0 C3.12578143 1.6720747 5.39281175 3.7856235 7 7 C7.51512617 11.09157355 7.94367269 15.23589546 5.953125 18.95703125 C3.55501226 21.85592636 1.60351712 23.79811835 -2.171875 24.2734375 C-9.98876369 24.58137554 -9.98876369 24.58137554 -13.5625 21.625 C-17.3057723 17.59378368 -17.39037018 14.90519941 -17.359375 9.55078125 C-16.78039966 5.44131496 -15.00085071 3.78650423 -12 1 C-8.27533151 -0.86233425 -4.05504687 -0.57130829 0 0 Z " fill="#000000" transform="translate(297,168)"/>
<path d="M0 0 C3.12578143 1.6720747 5.39281175 3.7856235 7 7 C7.51512617 11.09157355 7.94367269 15.23589546 5.953125 18.95703125 C3.55501226 21.85592636 1.60351712 23.79811835 -2.171875 24.2734375 C-9.98876369 24.58137554 -9.98876369 24.58137554 -13.5625 21.625 C-17.3057723 17.59378368 -17.39037018 14.90519941 -17.359375 9.55078125 C-16.78039966 5.44131496 -15.00085071 3.78650423 -12 1 C-8.27533151 -0.86233425 -4.05504687 -0.57130829 0 0 Z " fill="#000000" transform="translate(193,168)"/>
<path d="M0 0 C3.12578143 1.6720747 5.39281175 3.7856235 7 7 C7.51512617 11.09157355 7.94367269 15.23589546 5.953125 18.95703125 C3.55501226 21.85592636 1.60351712 23.79811835 -2.171875 24.2734375 C-9.98876369 24.58137554 -9.98876369 24.58137554 -13.5625 21.625 C-17.3057723 17.59378368 -17.39037018 14.90519941 -17.359375 9.55078125 C-16.78039966 5.44131496 -15.00085071 3.78650423 -12 1 C-8.27533151 -0.86233425 -4.05504687 -0.57130829 0 0 Z " fill="#000000" transform="translate(409,136)"/>
<path d="M0 0 C3.12578143 1.6720747 5.39281175 3.7856235 7 7 C7.51512617 11.09157355 7.94367269 15.23589546 5.953125 18.95703125 C3.55501226 21.85592636 1.60351712 23.79811835 -2.171875 24.2734375 C-9.98876369 24.58137554 -9.98876369 24.58137554 -13.5625 21.625 C-17.3057723 17.59378368 -17.39037018 14.90519941 -17.359375 9.55078125 C-16.78039966 5.44131496 -15.00085071 3.78650423 -12 1 C-8.27533151 -0.86233425 -4.05504687 -0.57130829 0 0 Z " fill="#000000" transform="translate(329,136)"/>
<path d="M0 0 C3.12578143 1.6720747 5.39281175 3.7856235 7 7 C7.51512617 11.09157355 7.94367269 15.23589546 5.953125 18.95703125 C3.55501226 21.85592636 1.60351712 23.79811835 -2.171875 24.2734375 C-9.98876369 24.58137554 -9.98876369 24.58137554 -13.5625 21.625 C-17.3057723 17.59378368 -17.39037018 14.90519941 -17.359375 9.55078125 C-16.78039966 5.44131496 -15.00085071 3.78650423 -12 1 C-8.27533151 -0.86233425 -4.05504687 -0.57130829 0 0 Z " fill="#000000" transform="translate(297,136)"/>
<path d="M0 0 C3.12578143 1.6720747 5.39281175 3.7856235 7 7 C7.51512617 11.09157355 7.94367269 15.23589546 5.953125 18.95703125 C3.55501226 21.85592636 1.60351712 23.79811835 -2.171875 24.2734375 C-9.98876369 24.58137554 -9.98876369 24.58137554 -13.5625 21.625 C-17.3057723 17.59378368 -17.39037018 14.90519941 -17.359375 9.55078125 C-16.78039966 5.44131496 -15.00085071 3.78650423 -12 1 C-8.27533151 -0.86233425 -4.05504687 -0.57130829 0 0 Z " fill="#000000" transform="translate(225,136)"/>
<path d="M0 0 C3.12578143 1.6720747 5.39281175 3.7856235 7 7 C7.51512617 11.09157355 7.94367269 15.23589546 5.953125 18.95703125 C3.55501226 21.85592636 1.60351712 23.79811835 -2.171875 24.2734375 C-9.98876369 24.58137554 -9.98876369 24.58137554 -13.5625 21.625 C-17.3057723 17.59378368 -17.39037018 14.90519941 -17.359375 9.55078125 C-16.78039966 5.44131496 -15.00085071 3.78650423 -12 1 C-8.27533151 -0.86233425 -4.05504687 -0.57130829 0 0 Z " fill="#000000" transform="translate(145,136)"/>
<path d="M0 0 C3.12578143 1.6720747 5.39281175 3.7856235 7 7 C7.51512617 11.09157355 7.94367269 15.23589546 5.953125 18.95703125 C3.55501226 21.85592636 1.60351712 23.79811835 -2.171875 24.2734375 C-9.98876369 24.58137554 -9.98876369 24.58137554 -13.5625 21.625 C-17.3057723 17.59378368 -17.39037018 14.90519941 -17.359375 9.55078125 C-16.78039966 5.44131496 -15.00085071 3.78650423 -12 1 C-8.27533151 -0.86233425 -4.05504687 -0.57130829 0 0 Z " fill="#000000" transform="translate(113,136)"/>
<path d="M0 0 C3.12578143 1.6720747 5.39281175 3.7856235 7 7 C7.51512617 11.09157355 7.94367269 15.23589546 5.953125 18.95703125 C3.55501226 21.85592636 1.60351712 23.79811835 -2.171875 24.2734375 C-9.98876369 24.58137554 -9.98876369 24.58137554 -13.5625 21.625 C-17.3057723 17.59378368 -17.39037018 14.90519941 -17.359375 9.55078125 C-16.78039966 5.44131496 -15.00085071 3.78650423 -12 1 C-8.27533151 -0.86233425 -4.05504687 -0.57130829 0 0 Z " fill="#000000" transform="translate(377,104)"/>
<path d="M0 0 C3.12578143 1.6720747 5.39281175 3.7856235 7 7 C7.51512617 11.09157355 7.94367269 15.23589546 5.953125 18.95703125 C3.55501226 21.85592636 1.60351712 23.79811835 -2.171875 24.2734375 C-9.98876369 24.58137554 -9.98876369 24.58137554 -13.5625 21.625 C-17.3057723 17.59378368 -17.39037018 14.90519941 -17.359375 9.55078125 C-16.78039966 5.44131496 -15.00085071 3.78650423 -12 1 C-8.27533151 -0.86233425 -4.05504687 -0.57130829 0 0 Z " fill="#000000" transform="translate(225,104)"/>
<path d="M0 0 C3.12578143 1.6720747 5.39281175 3.7856235 7 7 C7.51512617 11.09157355 7.94367269 15.23589546 5.953125 18.95703125 C3.55501226 21.85592636 1.60351712 23.79811835 -2.171875 24.2734375 C-9.98876369 24.58137554 -9.98876369 24.58137554 -13.5625 21.625 C-17.3057723 17.59378368 -17.39037018 14.90519941 -17.359375 9.55078125 C-16.78039966 5.44131496 -15.00085071 3.78650423 -12 1 C-8.27533151 -0.86233425 -4.05504687 -0.57130829 0 0 Z " fill="#000000" transform="translate(193,104)"/>
<path d="M0 0 C3.12578143 1.6720747 5.39281175 3.7856235 7 7 C7.51512617 11.09157355 7.94367269 15.23589546 5.953125 18.95703125 C3.55501226 21.85592636 1.60351712 23.79811835 -2.171875 24.2734375 C-9.98876369 24.58137554 -9.98876369 24.58137554 -13.5625 21.625 C-17.3057723 17.59378368 -17.39037018 14.90519941 -17.359375 9.55078125 C-16.78039966 5.44131496 -15.00085071 3.78650423 -12 1 C-8.27533151 -0.86233425 -4.05504687 -0.57130829 0 0 Z " fill="#000000" transform="translate(145,104)"/>
<path d="M0 0 C3.12578143 1.6720747 5.39281175 3.7856235 7 7 C7.51512617 11.09157355 7.94367269 15.23589546 5.953125 18.95703125 C3.55501226 21.85592636 1.60351712 23.79811835 -2.171875 24.2734375 C-9.98876369 24.58137554 -9.98876369 24.58137554 -13.5625 21.625 C-17.3057723 17.59378368 -17.39037018 14.90519941 -17.359375 9.55078125 C-16.78039966 5.44131496 -15.00085071 3.78650423 -12 1 C-8.27533151 -0.86233425 -4.05504687 -0.57130829 0 0 Z " fill="#000000" transform="translate(113,104)"/>
<path d="M0 0 C3.12578143 1.6720747 5.39281175 3.7856235 7 7 C7.51512617 11.09157355 7.94367269 15.23589546 5.953125 18.95703125 C3.55501226 21.85592636 1.60351712 23.79811835 -2.171875 24.2734375 C-9.98876369 24.58137554 -9.98876369 24.58137554 -13.5625 21.625 C-17.3057723 17.59378368 -17.39037018 14.90519941 -17.359375 9.55078125 C-16.78039966 5.44131496 -15.00085071 3.78650423 -12 1 C-8.27533151 -0.86233425 -4.05504687 -0.57130829 0 0 Z " fill="#000000" transform="translate(297,96)"/>
<path d="M0 0 C3.12578143 1.6720747 5.39281175 3.7856235 7 7 C7.51512617 11.09157355 7.94367269 15.23589546 5.953125 18.95703125 C3.55501226 21.85592636 1.60351712 23.79811835 -2.171875 24.2734375 C-9.98876369 24.58137554 -9.98876369 24.58137554 -13.5625 21.625 C-17.3057723 17.59378368 -17.39037018 14.90519941 -17.359375 9.55078125 C-16.78039966 5.44131496 -15.00085071 3.78650423 -12 1 C-8.27533151 -0.86233425 -4.05504687 -0.57130829 0 0 Z " fill="#000000" transform="translate(297,64)"/>
<path d="M0 0 C3.12578143 1.6720747 5.39281175 3.7856235 7 7 C7.51512617 11.09157355 7.94367269 15.23589546 5.953125 18.95703125 C3.55501226 21.85592636 1.60351712 23.79811835 -2.171875 24.2734375 C-9.98876369 24.58137554 -9.98876369 24.58137554 -13.5625 21.625 C-17.3057723 17.59378368 -17.39037018 14.90519941 -17.359375 9.55078125 C-16.78039966 5.44131496 -15.00085071 3.78650423 -12 1 C-8.27533151 -0.86233425 -4.05504687 -0.57130829 0 0 Z " fill="#000000" transform="translate(113,64)"/>
<path d="M0 0 C3.12578143 1.6720747 5.39281175 3.7856235 7 7 C7.51512617 11.09157355 7.94367269 15.23589546 5.953125 18.95703125 C3.55501226 21.85592636 1.60351712 23.79811835 -2.171875 24.2734375 C-9.98876369 24.58137554 -9.98876369 24.58137554 -13.5625 21.625 C-17.3057723 17.59378368 -17.39037018 14.90519941 -17.359375 9.55078125 C-16.78039966 5.44131496 -15.00085071 3.78650423 -12 1 C-8.27533151 -0.86233425 -4.05504687 -0.57130829 0 0 Z " fill="#000000" transform="translate(329,32)"/>
<path d="M0 0 C3.12578143 1.6720747 5.39281175 3.7856235 7 7 C7.51512617 11.09157355 7.94367269 15.23589546 5.953125 18.95703125 C3.55501226 21.85592636 1.60351712 23.79811835 -2.171875 24.2734375 C-9.98876369 24.58137554 -9.98876369 24.58137554 -13.5625 21.625 C-17.3057723 17.59378368 -17.39037018 14.90519941 -17.359375 9.55078125 C-16.78039966 5.44131496 -15.00085071 3.78650423 -12 1 C-8.27533151 -0.86233425 -4.05504687 -0.57130829 0 0 Z " fill="#000000" transform="translate(297,32)"/>
<path d="M0 0 C3.12578143 1.6720747 5.39281175 3.7856235 7 7 C7.51512617 11.09157355 7.94367269 15.23589546 5.953125 18.95703125 C3.55501226 21.85592636 1.60351712 23.79811835 -2.171875 24.2734375 C-9.98876369 24.58137554 -9.98876369 24.58137554 -13.5625 21.625 C-17.3057723 17.59378368 -17.39037018 14.90519941 -17.359375 9.55078125 C-16.78039966 5.44131496 -15.00085071 3.78650423 -12 1 C-8.27533151 -0.86233425 -4.05504687 -0.57130829 0 0 Z " fill="#000000" transform="translate(225,32)"/>
<path d="M0 0 C3.12578143 1.6720747 5.39281175 3.7856235 7 7 C7.51512617 11.09157355 7.94367269 15.23589546 5.953125 18.95703125 C3.55501226 21.85592636 1.60351712 23.79811835 -2.171875 24.2734375 C-9.98876369 24.58137554 -9.98876369 24.58137554 -13.5625 21.625 C-17.3057723 17.59378368 -17.39037018 14.90519941 -17.359375 9.55078125 C-16.78039966 5.44131496 -15.00085071 3.78650423 -12 1 C-8.27533151 -0.86233425 -4.05504687 -0.57130829 0 0 Z " fill="#000000" transform="translate(193,32)"/>
<path d="M0 0 C3.12578143 1.6720747 5.39281175 3.7856235 7 7 C7.51512617 11.09157355 7.94367269 15.23589546 5.953125 18.95703125 C3.55501226 21.85592636 1.60351712 23.79811835 -2.171875 24.2734375 C-9.98876369 24.58137554 -9.98876369 24.58137554 -13.5625 21.625 C-17.3057723 17.59378368 -17.39037018 14.90519941 -17.359375 9.55078125 C-16.78039966 5.44131496 -15.00085071 3.78650423 -12 1 C-8.27533151 -0.86233425 -4.05504687 -0.57130829 0 0 Z " fill="#000000" transform="translate(145,32)"/>
<path d="M0 0 C3.12578143 1.6720747 5.39281175 3.7856235 7 7 C7.51512617 11.09157355 7.94367269 15.23589546 5.953125 18.95703125 C3.55501226 21.85592636 1.60351712 23.79811835 -2.171875 24.2734375 C-9.98876369 24.58137554 -9.98876369 24.58137554 -13.5625 21.625 C-17.3057723 17.59378368 -17.39037018 14.90519941 -17.359375 9.55078125 C-16.78039966 5.44131496 -15.00085071 3.78650423 -12 1 C-8.27533151 -0.86233425 -4.05504687 -0.57130829 0 0 Z " fill="#000000" transform="translate(113,32)"/>
</svg>
