<?xml version="1.0" encoding="UTF-8"?>
<svg version="1.1" xmlns="http://www.w3.org/2000/svg" width="512" height="512">
<path d="M0 0 C1.83076486 -0.00483667 1.83076486 -0.00483667 3.69851488 -0.00977105 C5.04974531 -0.00829995 6.40097563 -0.00673224 7.75220585 -0.00507832 C9.19022416 -0.0069467 10.62824197 -0.00924752 12.06625897 -0.01194364 C16.01849026 -0.01806509 19.97070041 -0.01792762 23.92293537 -0.01674926 C28.18559876 -0.01654533 32.44825534 -0.02206344 36.71091557 -0.02680683 C45.06428426 -0.03511691 53.4176459 -0.03786187 61.77101838 -0.03841921 C68.56425888 -0.0388944 75.35749705 -0.04094932 82.15073681 -0.04411983 C101.41841291 -0.05292903 120.68608344 -0.05753904 139.95376157 -0.05678936 C140.99270488 -0.0567494 142.03164819 -0.05670945 143.10207462 -0.05666828 C144.14228994 -0.0566274 145.18250526 -0.05658652 146.25424225 -0.0565444 C163.09624403 -0.05613833 179.93822341 -0.06569743 196.78021871 -0.07980665 C214.08093605 -0.09418548 231.38164249 -0.10107594 248.68236595 -0.10021287 C258.39219359 -0.09988132 268.10199778 -0.10260978 277.81182003 -0.11339092 C286.08314414 -0.12251597 294.35443417 -0.12465491 302.62576114 -0.1178815 C306.84213393 -0.11462579 311.05844143 -0.11452501 315.27480793 -0.12323475 C319.14338151 -0.1311434 323.01183849 -0.12962417 326.88040937 -0.12095062 C328.92473295 -0.11870875 330.96906027 -0.12621007 333.0133695 -0.13419026 C356.67150389 -0.04672988 378.05090024 6.11742743 395.95778751 22.12863445 C396.79052189 22.86726727 397.62325626 23.60590008 398.48122501 24.3669157 C413.88374204 38.8452817 423.20473126 59.18724973 424.27419376 80.30050945 C425.02872387 104.84315969 418.1690604 126.70309325 401.13356876 144.85519695 C400.05655704 145.98054852 400.05655704 145.98054852 398.95778751 147.12863445 C398.3944672 147.75511883 397.83114689 148.3816032 397.25075626 149.02707195 C382.24935924 165.15996121 360.22145592 171.62325242 338.83278751 172.4450407 C336.20790595 172.53077804 333.58289791 172.61271539 330.95778751 172.69113445 C329.59709962 172.7344158 328.23642237 172.77803284 326.87575626 172.82199383 C323.56985594 172.92750128 320.26388752 173.02961701 316.95778751 173.12863445 C316.64664005 173.7520573 316.33549259 174.37548016 316.01491642 175.01779461 C309.79604238 187.40305312 303.54384007 199.22548493 294.95778751 210.12863445 C294.22044376 211.08640789 293.48310001 212.04418133 292.72341251 213.0309782 C288.81268368 217.97486057 284.65253604 222.53863796 280.17263126 226.9606657 C279.66856754 227.46134563 279.16450382 227.96202557 278.64516544 228.47787762 C277.41777018 229.69654215 276.18802563 230.91283983 274.95778751 232.12863445 C275.60179005 232.13228008 276.24579258 232.13592571 276.90931034 232.13968182 C283.64238269 232.18165391 290.3747827 232.25110244 297.10744572 232.33615398 C299.61649173 232.36429282 302.12562522 232.3855424 304.63478947 232.39963055 C308.25202332 232.42115743 311.8682132 232.46786086 315.48513126 232.51925945 C317.15441936 232.52110241 317.15441936 232.52110241 318.85743046 232.5229826 C326.71254173 232.66904926 332.9737319 234.03592687 339.26247501 238.91769695 C344.54397762 245.09258805 347.44941071 251.49861965 346.89528751 259.75363445 C345.90481785 265.71752627 343.67308373 270.90504723 339.08278751 274.94113445 C333.93833661 278.54225008 330.03642611 280.50286475 323.69768047 280.50895119 C321.83225328 280.5216111 321.83225328 280.5216111 319.92914069 280.53452677 C318.55706612 280.52873207 317.18499274 280.52265107 315.81292057 280.51631451 C314.34913549 280.52048846 312.88535365 280.52596632 311.42157781 280.53263432 C307.4029556 280.54709976 303.38453829 280.5428408 299.36590481 280.53546751 C295.03041878 280.53074082 290.69497741 280.54324129 286.35950565 280.55348492 C277.86722955 280.57068835 269.37502738 280.57150969 260.88273837 280.56627201 C253.98029121 280.56223177 247.07786592 280.56367213 240.17541981 280.56902027 C239.19328929 280.56976869 238.21115877 280.57051712 237.19926672 280.57128822 C235.20410677 280.57281968 233.20894683 280.57435803 231.21378689 280.57590318 C212.49974535 280.58963394 193.78574561 280.5841866 175.07170503 280.57271797 C157.9508541 280.56278608 140.83011125 280.57572449 123.70927699 280.59965216 C106.13056425 280.62403469 88.55190186 280.63365305 70.97317255 280.62699944 C61.1036794 280.62350519 51.23426938 280.62575276 41.36478901 280.64325047 C32.96262568 280.65796189 24.56060399 280.65862181 16.15844347 280.64117955 C11.87185791 280.63265824 7.58552551 280.63054751 3.29895306 280.64583111 C-0.62675594 280.65965472 -4.55199437 280.65494532 -8.47767599 280.63559187 C-9.89620156 280.63182435 -11.31476462 280.63477556 -12.73325686 280.64520352 C-21.76244268 280.7068499 -28.26459188 280.31529502 -35.28439999 274.1637907 C-35.82322811 273.51281414 -36.36205624 272.86183758 -36.91721249 272.19113445 C-37.47150936 271.54273602 -38.02580624 270.89433758 -38.59689999 270.2262907 C-42.70424551 264.26508922 -42.88985915 258.15448927 -42.04221249 251.12863445 C-39.4697451 243.13521646 -35.42375945 238.51833667 -28.11423397 234.53171062 C-22.86606247 232.35305099 -17.36332635 232.64876605 -11.76486874 232.6169157 C-10.59838299 232.5989645 -9.43189724 232.5810133 -8.23006344 232.56251812 C-4.52164936 232.50854067 -0.81336311 232.47455872 2.89528751 232.44113445 C5.41678962 232.4079504 7.9382749 232.37345974 10.45974064 232.33761883 C16.62564163 232.25282123 22.79155942 232.18441814 28.95778751 232.12863445 C28.23986027 231.42955975 27.52193302 230.73048504 26.7822504 230.01022625 C21.25934792 224.58959418 16.02542575 219.16297808 11.39528751 212.94113445 C10.853559 212.21974285 10.31183048 211.49835125 9.75368595 210.7550993 C-7.13005384 187.9635412 -18.23458358 162.99751818 -23.91721249 135.19113445 C-24.2222369 133.70105877 -24.2222369 133.70105877 -24.53342342 132.18088055 C-27.25295602 117.92100902 -27.21548397 103.54065025 -27.24533749 89.08175945 C-27.24816486 88.14724705 -27.25099224 87.21273464 -27.2539053 86.24990368 C-27.26877444 81.31706249 -27.27808474 76.38424969 -27.28244686 71.45138836 C-27.28795512 66.38572658 -27.31206776 61.32033034 -27.34041882 56.25475216 C-27.3591006 52.32719444 -27.36425345 48.39970055 -27.36578274 44.47210217 C-27.36879046 42.60474201 -27.37675463 40.73738247 -27.38996792 38.87006664 C-27.54825887 14.81113236 -27.54825887 14.81113236 -18.87424374 5.75363445 C-13.2871365 0.79790608 -7.20330536 0.00481546 0 0 Z M330.95778751 48.12863445 C330.62778751 73.20863445 330.29778751 98.28863445 329.95778751 124.12863445 C344.05010661 124.62810331 344.05010661 124.62810331 355.95778751 120.12863445 C357.12567814 119.49248211 357.12567814 119.49248211 358.31716251 118.8434782 C367.35933048 113.39693743 373.15551896 105.27162822 375.95778751 95.12863445 C378.19379372 83.65266144 375.8859825 74.08385403 369.95778751 64.12863445 C363.88685473 55.35950931 355.00947255 50.93878296 344.95778751 48.12863445 C340.33778751 48.12863445 335.71778751 48.12863445 330.95778751 48.12863445 Z " fill="#000000" transform="translate(65.04221248626709,231.87136554718018)"/>
<path d="M0 0 C5.49602498 3.63331261 9.49280108 8.54193442 11.4375 14.875 C12.95887475 23.07440916 11.39155484 29.61020231 6.87890625 36.55859375 C4.24734897 39.97797692 1.2146118 42.87405358 -1.8828125 45.8671875 C-8.57260578 52.60635195 -10.53303695 59.5582349 -11 69 C-10.42848701 81.77608072 -2.47972285 89.7526427 6.18066406 98.19238281 C19.8151928 111.55943673 30.65149028 126.83266849 34 146 C34.12890625 146.6909375 34.2578125 147.381875 34.390625 148.09375 C34.69808722 150.06798111 34.87124076 152.00607117 35 154 C35.07605469 154.92554688 35.15210938 155.85109375 35.23046875 156.8046875 C35.5844619 164.32465012 34.40226017 169.81482446 30 176 C24.68813652 181.71499597 19.48963691 184.40573948 11.72265625 185.0234375 C4.66503232 184.96268321 -1.46081714 182.62224903 -6.53515625 177.703125 C-11.09469432 172.40190208 -12.1714647 167.54020961 -12.9375 160.625 C-14.4614034 147.59433447 -20.70914038 140.48266698 -29.63330078 131.32373047 C-48.0881186 112.33204522 -59.55807878 92.61598466 -59.35571289 65.40673828 C-58.71361682 40.79070354 -46.8082172 20.8866671 -29.38671875 4.10546875 C-21.25013375 -3.07230427 -10.0363738 -5.00969589 0 0 Z " fill="#000000" transform="translate(175,2)"/>
<path d="M0 0 C5.14870629 3.73894147 8.77339742 8.08778062 10.640625 14.19140625 C11.46261348 21.05957667 11.24678918 27.14235666 7.640625 33.19140625 C5.42939962 35.9719173 3.03682578 38.57027475 0.640625 41.19140625 C-7.71276726 50.55775139 -12.13978098 57.44181218 -11.6875 70.21875 C-10.4756834 81.19723133 -3.71230276 87.63918372 3.640625 95.19140625 C5.4206344 97.18103752 7.16333199 99.19726786 8.90234375 101.22265625 C10.16223916 102.64959397 11.46223271 104.04144847 12.78515625 105.41015625 C27.51726401 120.87008534 34.36691001 139.96605267 34.640625 161.19140625 C34.1687964 168.20592479 31.44729692 173.12025239 26.640625 178.19140625 C20.90363837 182.93065607 14.94273422 184.50969109 7.640625 184.12890625 C-0.11125738 183.09452931 -5.14720182 178.91222152 -10.1328125 173.1328125 C-13.82006007 167.29662765 -13.99878957 160.53913505 -14.69921875 153.84765625 C-16.68906664 142.82696024 -25.51091385 134.93349557 -33.234375 127.44140625 C-49.34139781 111.69341612 -59.33333812 92.76561696 -60.39453125 69.859375 C-60.16637863 46.05545145 -52.04593789 25.8798418 -35.171875 8.87890625 C-34.17800781 7.91984375 -34.17800781 7.91984375 -33.1640625 6.94140625 C-31.65270204 5.47584459 -30.21474043 3.93510002 -28.796875 2.37890625 C-21.07395837 -4.55191637 -8.91153898 -5.3731338 0 0 Z " fill="#000000" transform="translate(284.359375,2.80859375)"/>
</svg>
