<?xml version="1.0" encoding="UTF-8"?>
<svg version="1.1" xmlns="http://www.w3.org/2000/svg" width="512" height="512">
<path d="M0 0 C5.22955623 2.41507037 8.6591883 7.63352158 12.19921875 12.015625 C12.93011719 12.90121094 13.66101563 13.78679687 14.4140625 14.69921875 C15.87888626 16.48190662 17.33568511 18.27121319 18.78515625 20.06640625 C21.53783748 23.4293097 24.36103644 26.72492069 27.19921875 30.015625 C31.49917006 35.00483519 35.70407907 40.05784423 39.85546875 45.171875 C42.59223924 48.49248986 45.39024825 51.75609282 48.19921875 55.015625 C52.49894588 60.00503267 56.70407284 65.05783656 60.85546875 70.171875 C63.59223924 73.49248986 66.39024825 76.75609282 69.19921875 80.015625 C73.49894588 85.00503267 77.70407284 90.05783656 81.85546875 95.171875 C84.59223924 98.49248986 87.39024825 101.75609282 90.19921875 105.015625 C94.49843343 110.00443802 98.70515721 115.05471421 102.8515625 120.171875 C105.09351344 122.88758263 107.38387639 125.55156653 109.69433594 128.20874023 C124.70747893 145.51594761 124.70747893 145.51594761 125.94921875 151.828125 C124.15560208 159.45099585 119.25614146 162.82906078 113.3203125 167.53515625 C110.10032014 170.09422402 106.95587559 172.72515423 103.82421875 175.390625 C103.28240967 175.85025635 102.74060059 176.3098877 102.18237305 176.78344727 C100.5205481 178.19326512 98.85974362 179.6042762 97.19921875 181.015625 C91.0903384 186.20781522 84.98411234 191.39686081 78.76171875 196.453125 C74.51529493 199.90836651 70.34625581 203.44260334 66.19921875 207.015625 C61.18325472 211.33730042 56.10746767 215.57041541 50.96875 219.74609375 C45.65480209 224.10068294 40.43395109 228.56640935 35.19921875 233.015625 C29.0903384 238.20781522 22.98411234 243.39686081 16.76171875 248.453125 C11.8979285 252.41070688 7.14040644 256.48104946 2.39086914 260.57397461 C-1.99878475 264.34896891 -6.46192896 268.02290961 -10.95703125 271.671875 C-14.27764611 274.40864549 -17.54124907 277.2066545 -20.80078125 280.015625 C-25.79018892 284.31535213 -30.84299281 288.52047909 -35.95703125 292.671875 C-39.27764719 295.40864638 -42.54121834 298.20668885 -45.80078125 301.015625 C-50.81669814 305.33735363 -55.89253424 309.57041696 -61.03125 313.74609375 C-66.34519791 318.10068294 -71.56604891 322.56640935 -76.80078125 327.015625 C-77.91005984 327.95844678 -79.01943461 328.90115541 -80.12890625 329.84375 C-80.67466309 330.30749023 -81.22041992 330.77123047 -81.78271484 331.24902344 C-83.40671574 332.62447739 -85.03713977 333.99202945 -86.66796875 335.359375 C-88.73351321 337.09529776 -90.7405848 338.86319319 -92.74609375 340.671875 C-97.56097752 344.91004568 -101.19714003 347.95910203 -107.73046875 348.40625 C-112.86734588 347.4370279 -115.77286334 344.17481816 -118.86328125 340.203125 C-122.42045363 335.72262667 -126.05864228 331.34276924 -129.80078125 327.015625 C-134.1234649 322.0005517 -138.35560038 316.92383858 -142.53125 311.78515625 C-146.88583919 306.47120834 -151.3515656 301.25035734 -155.80078125 296.015625 C-160.99297147 289.90674465 -166.18201706 283.80051859 -171.23828125 277.578125 C-175.19586313 272.71433475 -179.26620571 267.95681269 -183.35913086 263.20727539 C-187.13412516 258.8176215 -190.80806586 254.35447729 -194.45703125 249.859375 C-197.19380174 246.53876014 -199.99181075 243.27515718 -202.80078125 240.015625 C-207.09573856 235.03175223 -211.29801604 229.98618938 -215.44140625 224.875 C-218.74303147 220.87369262 -222.13705169 216.95310001 -225.55273438 213.04882812 C-235.80078125 201.22840259 -235.80078125 201.22840259 -235.80078125 195.015625 C-233.95688825 190.60682956 -231.90533273 187.81029519 -228.30078125 184.703125 C-227.41003906 183.93097656 -226.51929688 183.15882813 -225.6015625 182.36328125 C-221.99613631 179.34115971 -218.36640323 176.35201496 -214.7109375 173.390625 C-211.58648336 170.84073491 -208.50105321 168.24938956 -205.42578125 165.640625 C-204.88348877 165.18075195 -204.34119629 164.72087891 -203.7824707 164.24707031 C-202.12130357 162.83729788 -200.46090156 161.42662996 -198.80078125 160.015625 C-192.6919009 154.82343478 -186.58567484 149.63438919 -180.36328125 144.578125 C-176.11685743 141.12288349 -171.94781831 137.58864666 -167.80078125 134.015625 C-162.78481722 129.69394958 -157.70903017 125.46083459 -152.5703125 121.28515625 C-147.25636459 116.93056706 -142.03551359 112.46484065 -136.80078125 108.015625 C-130.6919009 102.82343478 -124.58567484 97.63438919 -118.36328125 92.578125 C-113.499491 88.62054312 -108.74196894 84.55020054 -103.99243164 80.45727539 C-99.60277775 76.68228109 -95.13963354 73.00834039 -90.64453125 69.359375 C-87.32391531 66.62260362 -84.06034416 63.82456115 -80.80078125 61.015625 C-75.78486436 56.69389637 -70.70902826 52.46083304 -65.5703125 48.28515625 C-60.25636459 43.93056706 -55.03551359 39.46484065 -49.80078125 35.015625 C-42.81952131 29.08196327 -35.81635532 23.18890207 -28.69921875 17.41796875 C-26.50935176 15.60291727 -24.35495791 13.76670629 -22.21484375 11.89453125 C-21.59665771 11.35562256 -20.97847168 10.81671387 -20.34155273 10.26147461 C-19.13834391 9.20916222 -17.93964706 8.15166007 -16.74633789 7.08813477 C-11.88909881 2.84500508 -6.85310336 -1.20092478 0 0 Z " fill="#000000" transform="translate(376.80078125,93.984375)"/>
<path d="M0 0 C3.40102084 1.8714941 6.12176756 4.41408805 9 7 C10.53306226 8.29152511 12.0663194 9.58283034 13.60375977 10.86914062 C16.99601216 13.71454765 20.35777726 16.59603683 23.72314453 19.47314453 C30.01127709 24.84637971 36.29990701 30.13914823 43 35 C41.49775154 38.73892951 39.39834702 40.54093605 36.25 43 C31.75113397 46.5802494 27.34917639 50.23945187 23 54 C18.01138343 58.30062456 12.95775749 62.50487922 7.84375 66.65625 C4.52313514 69.39302049 1.25953218 72.1910295 -2 75 C-6.98940767 79.29972713 -12.04221156 83.50485409 -17.15625 87.65625 C-20.47686486 90.39302049 -23.74046782 93.1910295 -27 96 C-31.98940767 100.29972713 -37.04221156 104.50485409 -42.15625 108.65625 C-45.47686486 111.39302049 -48.74046782 114.1910295 -52 117 C-56.98940767 121.29972713 -62.04221156 125.50485409 -67.15625 129.65625 C-70.47686594 132.39302138 -73.74043709 135.19106385 -77 138 C-82.01591689 142.32172863 -87.09175299 146.55479196 -92.23046875 150.73046875 C-97.54441666 155.08505794 -102.76526766 159.55078435 -108 164 C-114.10888035 169.19219022 -120.21510641 174.38123581 -126.4375 179.4375 C-131.29525372 183.39017006 -136.04682767 187.45548069 -140.79077148 191.54296875 C-144.48934513 194.72322223 -148.22172616 197.85225193 -152 200.9375 C-152.87527344 201.65292969 -153.75054687 202.36835938 -154.65234375 203.10546875 C-156.069346 204.24897306 -157.4963207 205.38047925 -158.94140625 206.48828125 C-162.17986168 209.00881403 -164.10695896 210.93170191 -165 215 C-164.74291165 220.82180714 -162.26588431 223.59594238 -158.5 227.6875 C-157.39478077 228.93005416 -156.29062273 230.17355298 -155.1875 231.41796875 C-154.36958984 232.3313501 -154.36958984 232.3313501 -153.53515625 233.26318359 C-151.45250883 235.61941033 -149.47313476 238.05171698 -147.5 240.5 C-144.06792143 244.72792288 -140.55453161 248.87531796 -137 253 C-132.70027287 257.98940767 -128.49514591 263.04221156 -124.34375 268.15625 C-121.60697862 271.47686594 -118.80893615 274.74043709 -116 278 C-111.67827137 283.01591689 -107.44520804 288.09175299 -103.26953125 293.23046875 C-98.91494206 298.54441666 -94.44921565 303.76526766 -90 309 C-84.80780978 315.10888035 -79.61876419 321.21510641 -74.5625 327.4375 C-71.10724172 331.68394443 -67.57254013 335.85252964 -64 340 C-60.22244594 344.39400272 -56.45736437 348.7964994 -52.75 353.25 C-52.02296875 354.12140625 -51.2959375 354.9928125 -50.546875 355.890625 C-49 358 -49 358 -49 360 C-54.59296697 359.6456944 -57.58404473 357.28232942 -61.5625 353.625 C-62.79900894 352.52681407 -64.03599911 351.42916977 -65.2734375 350.33203125 C-65.89444336 349.77467285 -66.51544922 349.21731445 -67.15527344 348.64306641 C-69.95629704 346.14824258 -72.81855859 343.72856406 -75.6875 341.3125 C-76.2252002 340.8575415 -76.76290039 340.40258301 -77.31689453 339.93383789 C-80.66226707 337.10803112 -84.03930517 334.32477533 -87.4375 331.5625 C-92.30129025 327.60491812 -97.05881231 323.53457554 -101.80834961 319.44165039 C-105.33298919 316.41054711 -108.89039882 313.43014684 -112.5 310.5 C-117.34596789 306.5662143 -122.08098528 302.51552241 -126.80859375 298.44140625 C-130.33317903 295.41041716 -133.89048832 292.43007419 -137.5 289.5 C-141.7279248 286.06791987 -145.8752789 282.55448829 -150 279 C-155.01591689 274.67827137 -160.09175299 270.44520804 -165.23046875 266.26953125 C-170.54443937 261.91492345 -175.76458238 257.44844342 -181 253 C-183.33239551 251.01972514 -185.66596749 249.04084494 -188 247.0625 C-188.79156494 246.38985107 -188.79156494 246.38985107 -189.59912109 245.70361328 C-191.97195618 243.69220843 -194.35841017 241.72073875 -196.8125 239.80859375 C-199.09122282 237.92457827 -199.81077643 237.01707667 -200.34375 234.15234375 C-200.77127166 228.09222422 -199.22957628 225.1086482 -195.3203125 220.57421875 C-194.55460937 219.72472656 -193.78890625 218.87523437 -193 218 C-192.05668946 216.90509804 -191.11679995 215.80724275 -190.1796875 214.70703125 C-188.12143805 212.29101383 -186.05447575 209.88297055 -183.98046875 207.48046875 C-180.6721307 203.63422372 -177.46882705 199.70668265 -174.26953125 195.76953125 C-169.45311061 189.89200589 -164.505057 184.12388086 -159.58398438 178.33398438 C-154.8648039 172.77931966 -150.15924951 167.21940075 -145.5625 161.5625 C-141.60491812 156.69870975 -137.53457554 151.94118769 -133.44165039 147.19165039 C-130.41054711 143.66701081 -127.43014684 140.10960118 -124.5 136.5 C-121.06791987 132.2720752 -117.55448829 128.1247211 -114 124 C-109.67827137 118.98408311 -105.44520804 113.90824701 -101.26953125 108.76953125 C-96.45311061 102.89200589 -91.505057 97.12388086 -86.58398438 91.33398438 C-81.8648039 85.77931966 -77.15924951 80.21940075 -72.5625 74.5625 C-68.60491812 69.69870975 -64.53457554 64.94118769 -60.44165039 60.19165039 C-57.41054711 56.66701081 -54.43014684 53.10960118 -51.5 49.5 C-48.06791987 45.2720752 -44.55448829 41.1247211 -41 37 C-36.68729954 31.99456146 -32.46156402 26.93064455 -28.296875 21.80078125 C-25.17709298 17.99655725 -21.99509171 14.24656704 -18.80444336 10.50170898 C-16.75565902 8.09326344 -14.74545212 5.67356382 -12.80078125 3.1796875 C-9.36991601 -0.97307346 -5.06851755 -0.93388434 0 0 Z " fill="#000000" transform="translate(293,73)"/>
<path d="M0 0 C1.49285522 0.85984497 1.49285522 0.85984497 3.01586914 1.73706055 C6.07827835 3.50339486 9.13297209 5.28258 12.1875 7.0625 C14.09577172 8.16507118 16.00460298 9.26667466 17.9140625 10.3671875 C22.34426708 12.92252918 26.76778541 15.48906058 31.1875 18.0625 C29.30462299 22.0879425 26.66392773 25.18320402 23.75 28.5 C22.66109025 29.75488903 21.5725569 31.01010476 20.484375 32.265625 C19.93330078 32.89919922 19.38222656 33.53277344 18.81445312 34.18554688 C16.35526829 37.02261365 13.92457204 39.88334075 11.5 42.75 C11.04496094 43.28753906 10.58992187 43.82507813 10.12109375 44.37890625 C7.29604422 47.72500238 4.51231936 51.101751 1.75 54.5 C-2.20758188 59.36379025 -6.27792446 64.12131231 -10.37084961 68.87084961 C-13.40195289 72.39548919 -16.38235316 75.95289882 -19.3125 79.5625 C-22.74458013 83.7904248 -26.25801171 87.9377789 -29.8125 92.0625 C-34.13422863 97.07841689 -38.36729196 102.15425299 -42.54296875 107.29296875 C-47.35938939 113.17049411 -52.307443 118.93861914 -57.22851562 124.72851562 C-61.9476961 130.28318034 -66.65325049 135.84309925 -71.25 141.5 C-75.20758188 146.36379025 -79.27792446 151.12131231 -83.37084961 155.87084961 C-86.40195289 159.39548919 -89.38235316 162.95289882 -92.3125 166.5625 C-96.2462857 171.40846789 -100.29697759 176.14348528 -104.37109375 180.87109375 C-108.14783474 185.26287653 -111.82441788 189.72728842 -115.47265625 194.2265625 C-117.68095609 196.90306615 -119.93308556 199.53273503 -122.20581055 202.15429688 C-126.73136811 207.38033205 -131.20222069 212.64687386 -135.5 218.0625 C-136.30824219 219.073125 -137.11648437 220.08375 -137.94921875 221.125 C-139.99249626 224.34626769 -140.75795913 226.25455573 -140.8125 230.0625 C-139.11502998 234.71741779 -136.89427156 237.20987107 -133 240.1875 C-132.02417969 240.95320312 -131.04835937 241.71890625 -130.04296875 242.5078125 C-129.52009277 242.91676758 -128.9972168 243.32572266 -128.45849609 243.74707031 C-125.50803532 246.10498823 -122.66713842 248.59022456 -119.8125 251.0625 C-115.68880063 254.61812452 -111.54037509 258.13046022 -107.3125 261.5625 C-102.46653211 265.4962857 -97.73151472 269.54697759 -93.00390625 273.62109375 C-89.47932097 276.65208284 -85.92201168 279.63242581 -82.3125 282.5625 C-78.0845752 285.99458013 -73.9372211 289.50801171 -69.8125 293.0625 C-64.79658311 297.38422863 -59.72074701 301.61729196 -54.58203125 305.79296875 C-48.70450589 310.60938939 -42.93638086 315.557443 -37.14648438 320.47851562 C-31.59181966 325.1976961 -26.03190075 329.90325049 -20.375 334.5 C-15.33277986 338.59912447 -10.40170594 342.81898241 -5.49438477 347.07788086 C-3.00104149 349.23295097 -0.55861566 351.23175623 2.1875 353.0625 C2.1875 353.7225 2.1875 354.3825 2.1875 355.0625 C-1.49250793 356.20739135 -3.62030432 356.59298748 -7.20141602 354.99951172 C-8.06436279 354.50209473 -8.92730957 354.00467773 -9.81640625 353.4921875 C-11.2713147 352.66581787 -11.2713147 352.66581787 -12.75561523 351.82275391 C-14.26877319 350.95142822 -14.26877319 350.95142822 -15.8125 350.0625 C-17.79287992 348.96103715 -19.77466266 347.86209286 -21.7578125 346.765625 C-31.63683728 341.252985 -41.49901923 335.72281257 -51.22924805 329.95092773 C-57.5408517 326.20902161 -63.89242266 322.53817329 -70.25 318.875 C-71.91083618 317.91799194 -71.91083618 317.91799194 -73.60522461 316.94165039 C-75.87587068 315.63360523 -78.14662358 314.32574552 -80.41748047 313.01806641 C-85.8841998 309.86917946 -91.34824887 306.71566736 -96.8125 303.5625 C-98.97915311 302.3124765 -101.14581979 301.06247653 -103.3125 299.8125 C-107.64583333 297.3125 -111.97916667 294.8125 -116.3125 292.3125 C-117.38636963 291.6930249 -118.46023926 291.0735498 -119.56665039 290.43530273 C-121.71971037 289.19302194 -123.87254478 287.95035012 -126.02514648 286.70727539 C-131.05351461 283.80413888 -136.08389814 280.90471133 -141.12271118 278.01974487 C-142.89682545 277.00372816 -144.67019919 275.98643072 -146.44335938 274.96875 C-148.66065314 273.69667708 -150.87931075 272.42697715 -153.09960938 271.16015625 C-170.16414468 261.35921064 -170.16414468 261.35921064 -171.8125 258.0625 C-172.69197786 251.24698896 -171.20955497 246.7500749 -167.6875 241 C-167.02077271 239.85724609 -167.02077271 239.85724609 -166.34057617 238.69140625 C-165.36572877 237.02489805 -164.38219717 235.36344663 -163.39111328 233.70654297 C-161.75943542 230.97362134 -160.15594065 228.22577238 -158.55859375 225.47265625 C-156.21935255 221.44293329 -153.87126744 217.41859502 -151.515625 213.3984375 C-147.77615411 207.00968008 -144.07124966 200.60133924 -140.375 194.1875 C-139.75278564 193.10791016 -139.13057129 192.02832031 -138.48950195 190.91601562 C-137.22738483 188.7256748 -135.96542215 186.53524498 -134.70361328 184.34472656 C-131.57569852 178.91590058 -128.44391552 173.48930719 -125.3125 168.0625 C-124.06248121 165.89584417 -122.81248122 163.7291775 -121.5625 161.5625 C-99.0625 122.5625 -76.5625 83.5625 -54.0625 44.5625 C-53.44286377 43.48830811 -52.82322754 42.41411621 -52.18481445 41.30737305 C-50.94431188 39.15748131 -49.70327044 37.00790041 -48.46166992 34.85864258 C-45.53706618 29.79453521 -42.61796233 24.72749098 -39.71817017 19.6491394 C-38.35186128 17.25712883 -36.98244714 14.86690292 -35.61279297 12.47680664 C-34.65028986 10.79421037 -33.69227069 9.10905164 -32.734375 7.42382812 C-31.85458984 5.88952148 -31.85458984 5.88952148 -30.95703125 4.32421875 C-30.18903198 2.97783325 -30.18903198 2.97783325 -29.40551758 1.60424805 C-27.19891434 -1.91651001 -25.09402312 -5.11874912 -21.5625 -7.375 C-13.71511552 -8.98014682 -6.47332912 -3.79527533 0 0 Z " fill="#000000" transform="translate(219.8125,76.9375)"/>
<path d="M0 0 C1.82289272 0.6455856 3.64125267 1.30407238 5.45556641 1.97338867 C6.41991608 2.32141037 7.38426575 2.66943207 8.37783813 3.02799988 C10.40527634 3.76312729 12.43067297 4.50390704 14.45410156 5.25 C17.56190395 6.39311378 20.67788188 7.51140929 23.79541016 8.62768555 C25.76599814 9.34561735 27.73606959 10.06496887 29.70556641 10.78588867 C30.64089203 11.12038528 31.57621765 11.4548819 32.53988647 11.79951477 C33.39813019 12.11962021 34.2563739 12.43972565 35.140625 12.76953125 C36.27810684 13.18589592 36.27810684 13.18589592 37.43856812 13.610672 C39.18212891 14.57885742 39.18212891 14.57885742 40.18212891 17.57885742 C39.04907227 20.10888672 39.04907227 20.10888672 37.27197266 23.15307617 C36.6190625 24.28293945 35.96615234 25.41280273 35.29345703 26.5769043 C34.56903023 27.80682956 33.84441599 29.03664444 33.11962891 30.26635742 C32.37978487 31.53861412 31.64086281 32.81140738 30.90283203 34.0847168 C29.02635271 37.31676246 27.13835955 40.54190082 25.24627686 43.76483154 C23.67953916 46.43560936 22.12032642 49.11075828 20.56103516 51.78588867 C18.86759621 54.69028109 17.17321404 57.59408779 15.47485352 60.49560547 C10.99178846 68.16052705 6.57822038 75.86390164 2.18212891 83.57885742 C-3.35773042 93.30010248 -8.95162041 102.98780611 -14.60131836 112.64575195 C-20.75553851 123.16970367 -26.84157105 133.7326588 -32.92675781 144.29663086 C-36.05467258 149.72545685 -39.18645557 155.15205023 -42.31787109 160.57885742 C-43.56788988 162.74551325 -44.81788988 164.91217992 -46.06787109 167.07885742 C-53.5678711 180.07885742 -53.5678711 180.07885742 -55.44360352 183.33007812 C-56.69121849 185.49264325 -57.93877726 187.65524081 -59.1862793 189.81787109 C-62.34730558 195.29756113 -65.50936419 200.776651 -68.67333984 206.25463867 C-74.69725323 216.68610725 -80.71321524 227.12193991 -86.69287109 237.57885742 C-87.45216919 238.90590698 -87.45216919 238.90590698 -88.22680664 240.25976562 C-88.68740479 241.06631592 -89.14800293 241.87286621 -89.62255859 242.70385742 C-90.02458496 243.40768555 -90.42661133 244.11151367 -90.84082031 244.83666992 C-93.25410324 249.13981509 -93.33739324 252.50076883 -92.13037109 257.32885742 C-90.41615315 260.26751675 -88.96359924 260.38930574 -85.81787109 261.57885742 C-84.01635525 262.51930976 -82.23067901 263.49048305 -80.45849609 264.48510742 C-78.92237671 265.34543579 -78.92237671 265.34543579 -77.35522461 266.22314453 C-76.27039795 266.83552979 -75.18557129 267.44791504 -74.06787109 268.07885742 C-72.37778931 269.0293396 -72.37778931 269.0293396 -70.65356445 269.99902344 C-63.86269367 273.82886306 -57.10802363 277.71221343 -50.40258789 281.68945312 C-44.09062584 285.43190405 -37.73845508 289.10289221 -31.38037109 292.76635742 C-29.71953491 293.72336548 -29.71953491 293.72336548 -28.02514648 294.69970703 C-25.75450042 296.00775219 -23.48374752 297.3156119 -21.21289062 298.62329102 C-15.7461713 301.77217796 -10.28212222 304.92569006 -4.81787109 308.07885742 C-2.65121798 309.32888092 -0.4845513 310.57888089 1.68212891 311.82885742 C8.18212891 315.57885742 8.18212891 315.57885742 14.68212891 319.32885742 C15.75591797 319.94833252 16.82970703 320.56780762 17.93603516 321.20605469 C20.0897461 322.44861761 22.24339257 323.69129231 24.39697266 324.93408203 C29.41897153 327.83200365 34.44155698 330.72889091 39.46655273 333.62161255 C41.23258412 334.63832941 42.99840322 335.655414 44.76416016 336.67260742 C46.96947045 337.94286615 49.17517107 339.2124476 51.38134766 340.48120117 C54.3188606 342.17375024 57.25058199 343.87600316 60.18212891 345.57885742 C61.16181641 346.13814941 62.14150391 346.69744141 63.15087891 347.27368164 C64.52759766 348.07249756 64.52759766 348.07249756 65.93212891 348.88745117 C66.75197266 349.35852295 67.57181641 349.82959473 68.41650391 350.31494141 C68.99916016 350.73203369 69.58181641 351.14912598 70.18212891 351.57885742 C70.18212891 352.23885742 70.18212891 352.89885742 70.18212891 353.57885742 C62.49117544 354.06948378 56.78064365 352.42393908 49.61962891 349.72338867 C48.50084351 349.3146904 47.38205811 348.90599213 46.22937012 348.48490906 C43.17966678 347.36769424 40.13504907 346.23778214 37.0921936 345.1020813 C33.85463437 343.89740449 30.61082907 342.70977868 27.36767578 341.52026367 C21.28853221 339.287814 15.21471612 337.04125277 9.14302826 334.78861427 C1.16178817 331.82807712 -6.82708134 328.88829328 -14.81573486 325.9478302 C-20.64487359 323.80177246 -26.47266306 321.65221923 -32.29736328 319.49414062 C-44.19273656 315.09130967 -56.10514253 310.7442536 -68.05715942 306.49794006 C-70.09860582 305.77209616 -72.13939129 305.04442686 -74.17993164 304.31604004 C-75.17766602 303.95993023 -75.17766602 303.95993023 -76.19555664 303.59662628 C-77.52663775 303.12149583 -78.85769261 302.64629184 -80.1887207 302.17101288 C-83.42857503 301.01533588 -86.67031507 299.86559271 -89.91674805 298.72851562 C-93.49767603 297.47220965 -97.07221413 296.19907244 -100.64599609 294.92260742 C-101.70776062 294.55578857 -102.76952515 294.18896973 -103.86346436 293.81103516 C-109.99308913 291.60042109 -114.76957212 289.67545537 -117.81787109 283.57885742 C-117.4572345 276.30150026 -115.52320247 270.25193684 -112.93505859 263.48120117 C-112.33233627 261.86502647 -112.33233627 261.86502647 -111.71743774 260.21620178 C-110.84406476 257.87687582 -109.96615738 255.53923882 -109.08422852 253.203125 C-106.92113715 247.47144529 -104.78623588 241.72931972 -102.650383 235.98744583 C-101.89696191 233.9628023 -101.14237212 231.9385967 -100.38775635 229.91439819 C-95.14975778 215.84878331 -90.08806685 201.72107554 -85.03616714 187.58779526 C-77.04303091 165.23250905 -68.93100554 142.92568258 -60.69400024 120.65887451 C-54.93064985 105.07669775 -49.23396749 89.47312309 -43.62765503 73.83374023 C-40.36864652 64.74485069 -37.09682764 55.66056789 -33.81787109 46.57885742 C-33.44603699 45.54889648 -33.07420288 44.51893555 -32.69110107 43.45776367 C-30.47400524 37.32348577 -28.2431276 31.19449708 -25.99380493 25.07196045 C-25.3005665 23.18004379 -24.61116817 21.28671502 -23.9258728 19.39190674 C-22.98634806 16.79656833 -22.03293987 14.20676116 -21.07568359 11.61791992 C-20.80356552 10.85692993 -20.53144745 10.09593994 -20.25108337 9.31188965 C-16.35039554 -1.10190826 -10.13373078 -3.31219361 0 0 Z " fill="#000000" transform="translate(127.81787109375,82.421142578125)"/>
</svg>
