<?xml version="1.0" encoding="UTF-8"?>
<svg version="1.1" xmlns="http://www.w3.org/2000/svg" width="512" height="512">
<path d="M0 0 C4.81816339 3.84651426 9.26699622 8.08332019 13.70214844 12.35888672 C14.66701172 13.24640625 14.66701172 13.24640625 15.65136719 14.15185547 C26.14247685 24.0560499 36.68163706 38.23809833 42.70214844 51.35888672 C43.36214844 51.35888672 44.02214844 51.35888672 44.70214844 51.35888672 C46.11693049 49.15438796 47.41968737 46.95147098 48.70214844 44.67138672 C55.9196042 32.27951161 64.84474609 21.72218997 74.70214844 11.35888672 C75.58966797 10.39208984 75.58966797 10.39208984 76.49511719 9.40576172 C95.33310192 -10.50203449 124.66525809 -24.49202248 152.07275391 -25.80224609 C184.11268074 -26.18702946 184.11268074 -26.18702946 196.70214844 -22.64111328 C197.52328125 -22.41004883 198.34441406 -22.17898437 199.19042969 -21.94091797 C222.00527255 -15.30189891 240.59101297 -4.13407188 257.70214844 12.35888672 C258.76175781 13.32375 258.76175781 13.32375 259.84277344 14.30810547 C284.94723907 37.83078567 298.88115312 75.60964954 299.99172974 109.4896698 C300.07099055 113.11315163 300.08779451 116.73463849 300.07714844 120.35888672 C300.07593994 121.1251236 300.07473145 121.89136047 300.07348633 122.68081665 C300.01849466 135.58692587 299.11874999 147.85301092 295.70214844 160.35888672 C295.44433594 161.30699219 295.18652344 162.25509766 294.92089844 163.23193359 C289.3574973 182.92276772 280.41975565 201.56364971 268.70214844 218.35888672 C267.95707031 219.44814453 267.21199219 220.53740234 266.44433594 221.65966797 C261.44775927 228.87152957 256.08462598 235.65073371 250.34277344 242.28076172 C247.94109186 245.05565425 245.66382665 247.91576098 243.38964844 250.79638672 C238.18646092 257.20392867 232.31546724 262.92668649 226.41210938 268.68066406 C222.46518441 272.55433086 218.57830977 276.48852366 214.68261719 280.41357422 C213.24380386 281.85976945 211.80450363 283.30547816 210.36499023 284.75097656 C209.38589077 285.73509872 208.40769149 286.72011733 207.43041992 287.70605469 C201.70218369 293.48351418 195.888482 299.07176504 189.70214844 304.35888672 C187.86345695 306.01964032 186.02949273 307.6856558 184.20214844 309.35888672 C178.69315769 314.37802193 173.11491327 319.30009108 167.44824219 324.14013672 C166.24117531 325.17134502 165.03414506 326.2025962 163.82714844 327.23388672 C163.2185498 327.75362061 162.60995117 328.27335449 161.98291016 328.80883789 C158.44571886 331.83794267 154.9581379 334.91044975 151.51464844 338.04638672 C147.27506801 341.89739677 142.87282732 345.50732627 138.42089844 349.10888672 C135.78067114 351.29390241 133.23485123 353.55060063 130.70214844 355.85888672 C126.40223053 359.77779924 121.94295297 363.45059541 117.42089844 367.10888672 C113.92306693 370.00364383 110.5842944 373.05478211 107.22949219 376.11279297 C104.63252451 378.4207627 101.96810831 380.61444535 99.26464844 382.79638672 C95.46127341 385.8722526 91.80132192 389.04641838 88.20214844 392.35888672 C83.73363508 396.47144453 79.11483717 400.32776854 74.38964844 404.14013672 C71.73515224 406.33163939 69.18213959 408.60136354 66.63964844 410.92138672 C51.26822694 424.91552885 51.26822694 424.91552885 40.77636719 424.74169922 C35.72441396 424.11261229 33.33564343 421.75796268 29.70214844 418.35888672 C28.59548702 417.39721478 27.48439224 416.44063267 26.37011719 415.48779297 C23.77831925 413.26853832 21.19965561 411.03553509 18.63183594 408.78857422 C15.00907578 405.62110449 11.36072657 402.4848541 7.70214844 399.35888672 C2.85270292 395.21063185 -1.97856884 391.0421409 -6.79785156 386.85888672 C-13.36393999 381.16025727 -19.95777833 375.49483654 -26.56396484 369.84277344 C-29.47679202 367.34993148 -32.38719217 364.85425905 -35.29785156 362.35888672 C-36.46450674 361.35887332 -37.63117341 360.35887331 -38.79785156 359.35888672 C-41.1311849 357.35888672 -43.46451823 355.35888672 -45.79785156 353.35888672 C-46.66458496 352.61602417 -46.66458496 352.61602417 -47.54882812 351.8581543 C-48.71237754 350.86075662 -49.87578961 349.86319869 -51.0390625 348.86547852 C-54.00230221 346.32431371 -56.96807127 343.78620473 -59.93847656 341.25341797 C-66.05884066 336.03010319 -72.12383359 330.76232533 -78.08691406 325.35888672 C-82.42683192 321.43302463 -86.83531362 317.59189536 -91.30957031 313.81982422 C-105.65106903 301.71127153 -119.11588489 288.71033582 -132.29785156 275.35888672 C-135.09744777 272.54565612 -137.91498506 269.75250222 -140.75097656 266.97607422 C-147.23621627 260.60135905 -153.50321229 254.24102168 -159.13378906 247.08154297 C-161.11637874 244.58720181 -163.17708258 242.18152894 -165.2734375 239.78271484 C-199.80822335 200.01830685 -215.72728446 152.52964451 -212.08251953 100.27148438 C-211.55606058 94.86404166 -210.59597384 89.63120686 -209.29785156 84.35888672 C-208.99186035 83.0969751 -208.99186035 83.0969751 -208.6796875 81.80957031 C-199.76016551 46.06007426 -179.7398952 14.39565691 -148.29785156 -5.64111328 C-147.18925781 -6.34880859 -146.08066406 -7.05650391 -144.93847656 -7.78564453 C-99.80711905 -34.97884727 -41.67188803 -31.95472929 0 0 Z " fill="#E61E14" transform="translate(212.2978515625,56.64111328125)"/>
<path d="M0 0 C4.81816339 3.84651426 9.26699622 8.08332019 13.70214844 12.35888672 C14.66701172 13.24640625 14.66701172 13.24640625 15.65136719 14.15185547 C25.69175019 23.63053872 33.28087124 35.81165174 40.70214844 47.35888672 C41.23344354 48.11969345 41.76473865 48.88050018 42.31213361 49.66436166 C43.99810104 52.93258686 44.07499597 55.11554896 44.07129192 58.78378773 C44.07726507 60.08956612 44.08323821 61.39534452 44.08939236 62.74069196 C44.08083365 64.18803555 44.07199687 65.63537751 44.06291199 67.0827179 C44.06422014 68.62146053 44.06684675 70.16020252 44.07067949 71.69894093 C44.07739444 75.9291151 44.06537794 80.15906182 44.0503453 84.38920701 C44.03740375 88.95017056 44.04177307 93.51112103 44.04405212 98.07209778 C44.04562605 105.97490292 44.03620438 113.87763383 44.01933861 121.7804203 C43.99496934 133.206546 43.98714546 144.63263576 43.98337463 156.05878463 C43.9768069 174.59642039 43.95683698 193.13401658 43.9284668 211.67163086 C43.90093457 229.68041791 43.87969689 247.68919421 43.86694336 265.69799805 C43.86615519 266.80784678 43.86536702 267.91769552 43.86455496 269.06117604 C43.86063988 274.62889731 43.85684875 280.19661865 43.85311925 285.76434004 C43.82201331 331.96254968 43.76916873 378.16071616 43.70214844 424.35888672 C37.08944774 424.48135449 37.08944774 424.48135449 34.26464844 422.17138672 C33.58789062 421.62353516 32.91113281 421.07568359 32.21386719 420.51123047 C31.385 419.80095703 30.55613281 419.09068359 29.70214844 418.35888672 C29.17443848 417.90787598 28.64672852 417.45686523 28.10302734 416.9921875 C24.93072424 414.27496041 21.7762312 411.5380325 18.63183594 408.78857422 C15.00907578 405.62110449 11.36072657 402.4848541 7.70214844 399.35888672 C2.85270292 395.21063185 -1.97856884 391.0421409 -6.79785156 386.85888672 C-13.36393999 381.16025727 -19.95777833 375.49483654 -26.56396484 369.84277344 C-29.47679202 367.34993148 -32.38719217 364.85425905 -35.29785156 362.35888672 C-36.46450674 361.35887332 -37.63117341 360.35887331 -38.79785156 359.35888672 C-41.1311849 357.35888672 -43.46451823 355.35888672 -45.79785156 353.35888672 C-46.66458496 352.61602417 -46.66458496 352.61602417 -47.54882812 351.8581543 C-48.71237754 350.86075662 -49.87578961 349.86319869 -51.0390625 348.86547852 C-54.00230221 346.32431371 -56.96807127 343.78620473 -59.93847656 341.25341797 C-66.05884066 336.03010319 -72.12383359 330.76232533 -78.08691406 325.35888672 C-82.42683192 321.43302463 -86.83531362 317.59189536 -91.30957031 313.81982422 C-105.65106903 301.71127153 -119.11588489 288.71033582 -132.29785156 275.35888672 C-135.09744777 272.54565612 -137.91498506 269.75250222 -140.75097656 266.97607422 C-147.23621627 260.60135905 -153.50321229 254.24102168 -159.13378906 247.08154297 C-161.11637874 244.58720181 -163.17708258 242.18152894 -165.2734375 239.78271484 C-199.80822335 200.01830685 -215.72728446 152.52964451 -212.08251953 100.27148438 C-211.55606058 94.86404166 -210.59597384 89.63120686 -209.29785156 84.35888672 C-208.99186035 83.0969751 -208.99186035 83.0969751 -208.6796875 81.80957031 C-199.76016551 46.06007426 -179.7398952 14.39565691 -148.29785156 -5.64111328 C-147.18925781 -6.34880859 -146.08066406 -7.05650391 -144.93847656 -7.78564453 C-99.80711905 -34.97884727 -41.67188803 -31.95472929 0 0 Z " fill="#FD3018" transform="translate(212.2978515625,56.64111328125)"/>
</svg>
