<?xml version="1.0" encoding="UTF-8"?>
<svg version="1.1" xmlns="http://www.w3.org/2000/svg" width="512" height="512">
<path d="M0 0 C1.5419175 -0.00543118 3.0838298 -0.01255939 4.62573242 -0.02124023 C8.78030731 -0.0393477 12.9344813 -0.03246152 17.08906245 -0.01972389 C21.44737057 -0.00954331 25.80564611 -0.01900235 30.16395569 -0.02526855 C37.47281011 -0.03252489 44.78150229 -0.02300468 52.09033203 -0.00390625 C60.53903121 0.01791577 68.98734504 0.01076458 77.4360351 -0.01121187 C84.70253484 -0.02935543 91.96891857 -0.03193105 99.23543364 -0.0214572 C103.57039532 -0.01522382 107.90517564 -0.01438345 112.24012566 -0.02760315 C116.3090539 -0.03914792 120.37748343 -0.03116165 124.44635773 -0.00802612 C125.93951908 -0.00273406 127.43272237 -0.00426137 128.92586708 -0.01307678 C130.96231723 -0.02399282 132.99885906 -0.00788184 135.03526306 0.00964355 C136.17506087 0.01115166 137.31485868 0.01265976 138.48919582 0.01421356 C142.03862805 0.62747067 143.21323642 1.7150207 145.40258789 4.51757812 C145.93383789 6.51757813 145.93383789 6.51757813 145.90258789 8.51757812 C145.91805664 9.50757812 145.91805664 9.50757812 145.93383789 10.51757812 C145.15369288 13.45459464 143.74408347 14.61321589 141.40258789 16.51757812 C138.62416553 17.01980019 138.62416553 17.01980019 135.36347961 17.02310181 C134.1256926 17.0341243 132.88790558 17.04514679 131.61260986 17.0565033 C130.24352819 17.04860054 128.87444859 17.04033328 127.50537109 17.03173828 C126.0612666 17.03719947 124.61716791 17.04444111 123.17308044 17.05332947 C120.06387294 17.06867153 116.95499545 17.07146649 113.84575844 17.06456375 C108.92391199 17.05377485 104.00240989 17.0711641 99.08061218 17.09237671 C91.2893136 17.12265075 83.49811692 17.13433206 75.7067644 17.13795316 C61.77231694 17.14459222 47.8379412 17.17373157 33.90358037 17.22304952 C29.01709455 17.23949508 24.13075692 17.24497419 19.24424613 17.24145913 C16.19440591 17.24102001 13.14462091 17.24861785 10.09479713 17.25813484 C8.68758875 17.26080261 7.28036896 17.26009165 5.87316513 17.25562477 C-8.7972671 17.08010259 -8.7972671 17.08010259 -21.59741211 23.51757812 C-28.10105498 30.07541802 -29.71476845 36.99325925 -29.73112488 46.03791809 C-29.73538986 47.11017136 -29.73965485 48.18242462 -29.74404907 49.28717041 C-29.74359589 50.44835388 -29.7431427 51.60953735 -29.74267578 52.8059082 C-29.74603439 54.04078476 -29.74939301 55.27566132 -29.75285339 56.54795837 C-29.76071018 59.92415162 -29.76403007 63.30028336 -29.76466918 66.67648149 C-29.76538168 68.78955423 -29.76751981 70.9026206 -29.7701664 73.01569176 C-29.77940884 80.398242 -29.78350271 87.78077424 -29.78271484 95.16333008 C-29.78211451 102.02747097 -29.79266051 108.89153317 -29.80845851 115.75565416 C-29.821567 121.66330164 -29.82689735 127.57092351 -29.82625943 133.47858542 C-29.8260054 137.00052549 -29.82880415 140.52239558 -29.83943748 144.04432106 C-29.85098638 147.97659966 -29.84635143 151.9087717 -29.84033203 155.84106445 C-29.84595154 156.99617523 -29.85157104 158.15128601 -29.85736084 159.34140015 C-29.82257171 168.30484128 -29.46878111 176.34146046 -23.59741211 183.51757812 C-14.77662346 192.2654677 -4.06429475 191.84581459 7.66748047 192.0324707 C9.18711344 192.06395816 10.70650642 192.11155457 12.22509766 192.17602539 C22.48718898 192.6040316 29.13340271 191.60406944 37.56152344 185.52856445 C48.2496575 177.96319878 60.69685641 176.33452871 73.40258789 175.51757812 C72.84571289 175.01871094 72.28883789 174.51984375 71.71508789 174.00585938 C58.78786738 161.8429171 49.78250548 144.83980848 49.06665039 126.91601562 C48.75964534 106.67871009 52.16837846 88.71171793 65.84008789 73.08007812 C67.3377064 71.53637904 68.85809858 70.01438166 70.40258789 68.51757812 C71.12317383 67.79957031 71.84375977 67.0815625 72.58618164 66.34179688 C86.37634835 53.28907223 104.58256811 47.63757829 123.26196289 47.48632812 C141.27925681 48.23393368 156.97669541 54.55150262 170.40258789 66.51757812 C171.56081055 67.51724609 171.56081055 67.51724609 172.74243164 68.53710938 C184.22991588 79.12130426 192.34951042 95.62141167 193.62573242 111.25024414 C194.50223157 133.54405678 190.71827499 152.34738194 175.40258789 169.51757812 C173.42480463 171.54145775 171.41783348 173.53059685 169.40258789 175.51757812 C170.49055664 175.61554688 171.57852539 175.71351563 172.69946289 175.81445312 C189.09160034 177.42090132 201.7428233 182.4110684 215.40258789 191.51757812 C217.91210642 191.71325928 220.30758761 191.79771452 222.81665039 191.78320312 C223.91026382 191.7860733 223.91026382 191.7860733 225.02597046 191.78900146 C226.5709467 191.79036226 228.11593441 191.78667315 229.66088867 191.77832031 C231.9982356 191.76771135 234.33479759 191.77817048 236.67211914 191.79101562 C251.46352983 191.97788797 251.46352983 191.97788797 264.40258789 185.51757812 C270.90623076 178.95973823 272.51994423 172.041897 272.53630066 162.99723816 C272.54056564 161.92498489 272.54483063 160.85273163 272.54922485 159.74798584 C272.54854507 158.00621063 272.54854507 158.00621063 272.54785156 156.22924805 C272.55121017 154.99437149 272.55456879 153.75949493 272.55802917 152.48719788 C272.56588596 149.11100463 272.56920585 145.73487289 272.56984496 142.35867476 C272.57055747 140.24560202 272.57269559 138.13253565 272.57534218 136.01946449 C272.58458462 128.63691425 272.58867849 121.25438201 272.58789062 113.87182617 C272.58729029 107.00768528 272.59783629 100.14362308 272.61363429 93.27950209 C272.62674278 87.37185461 272.63207313 81.46423274 272.63143522 75.55657083 C272.63118118 72.03463076 272.63397993 68.51276067 272.64461327 64.99083519 C272.65616216 61.05855659 272.65152721 57.12638455 272.64550781 53.1940918 C272.65112732 52.03898102 272.65674683 50.88387024 272.66253662 49.6937561 C272.6277475 40.73031497 272.27395689 32.69369579 266.40258789 25.51757812 C259.49247849 18.66457706 252.29571133 17.43674545 242.83227539 17.34179688 C241.60637695 17.31794922 240.38047852 17.29410156 239.11743164 17.26953125 C236.54989483 17.22643424 233.98213129 17.19525414 231.41430664 17.17578125 C229.57932617 17.13420898 229.57932617 17.13420898 227.70727539 17.09179688 C226.59336426 17.07721436 225.47945313 17.06263184 224.33178711 17.04760742 C220.78406694 16.40565872 219.60019408 15.31842951 217.40258789 12.51757812 C216.87133789 10.51757812 216.87133789 10.51757812 216.90258789 8.51757812 C216.88711914 7.52757813 216.88711914 7.52757813 216.87133789 6.51757812 C217.67232818 3.50208528 218.93338829 2.42292555 221.40258789 0.51757812 C224.23504952 0.11877234 226.67034451 -0.04405397 229.50024414 -0.01367188 C230.2897496 -0.01749878 231.07925507 -0.02132568 231.89268494 -0.02526855 C233.56453729 -0.0279878 235.23643217 -0.02062557 236.90820312 -0.00390625 C239.43272377 0.01730618 241.95433335 -0.00360045 244.47875977 -0.02929688 C257.86330506 -0.05339989 268.3875641 1.95692214 278.40258789 11.51757812 C288.08327701 21.6583396 290.00470243 32.33393888 289.92016602 45.99414062 C289.92559896 47.41632805 289.93272815 48.83850983 289.94140625 50.26068115 C289.9595036 54.09136749 289.95262903 57.92161863 289.93988991 61.75231171 C289.92969112 65.78036078 289.93917453 69.80837509 289.94543457 73.83642578 C289.95269111 80.59804911 289.94317591 87.3594971 289.92407227 94.12109375 C289.90230727 101.91415015 289.90936007 109.7067878 289.93137789 117.49983406 C289.94958902 124.21698121 289.95206243 130.93400303 289.94162321 137.65116692 C289.93541952 141.65156787 289.93446571 145.65177266 289.94776917 149.65216064 C289.95941077 153.41497435 289.95115251 157.1772535 289.92819214 160.94001007 C289.92046812 162.96193223 289.93218959 164.98390014 289.94470215 167.00579834 C289.83307105 179.15624522 286.88309705 188.63403487 278.40258789 197.51757812 C268.40432604 207.06223263 257.69757626 209.10767799 244.21508789 209.26757812 C242.97694336 209.29722656 241.73879883 209.326875 240.46313477 209.35742188 C237.44288995 209.42738894 234.42338425 209.48044637 231.40258789 209.51757812 C232.10834961 210.93296875 232.10834961 210.93296875 232.82836914 212.37695312 C238.51661986 223.99255909 241.59794412 233.86132075 241.46899414 246.91210938 C241.46180359 248.30024841 241.46180359 248.30024841 241.45446777 249.71643066 C241.44203113 251.98355695 241.42460969 254.25052809 241.40258789 256.51757812 C241.9920369 256.50869568 242.5814859 256.49981323 243.188797 256.49066162 C249.37023132 256.40159228 255.55148089 256.34159877 261.73339844 256.29785156 C264.03490616 256.27783986 266.33636371 256.25062182 268.63769531 256.21582031 C271.96179651 256.16684114 275.28522065 256.14450412 278.60961914 256.12695312 C279.62466019 256.10630798 280.63970123 256.08566284 281.6855011 256.06439209 C293.01145928 256.06090107 302.1970873 259.68434978 310.40258789 267.51757812 C322.03744549 279.70537945 322.0074306 292.87672093 321.93383789 308.79492188 C321.93653614 310.85470258 321.94042133 312.91448205 321.94543457 314.97425842 C321.95130466 319.27015428 321.942841 323.56571553 321.92407227 327.86157227 C321.9011833 333.3686172 321.91448435 338.87488654 321.93836212 344.38190365 C321.95280162 348.6258176 321.94822432 352.86954682 321.93785095 357.11346626 C321.93518377 359.14486343 321.93845311 361.17627739 321.94776917 363.20765495 C321.95791529 366.03920049 321.94246544 368.86947693 321.92016602 371.70092773 C321.92826294 372.53888382 321.93635986 373.3768399 321.94470215 374.2401886 C321.89513795 377.63307933 321.81984758 379.9468255 319.78353119 382.73222017 C316.63280445 385.0948027 314.71949398 385.0187983 310.79956055 385.02094269 C310.13430107 385.02675645 309.4690416 385.03257021 308.78362274 385.03856015 C306.5442671 385.05321112 304.30599886 385.03925242 302.06665039 385.0255127 C300.44912148 385.03011963 298.83159674 385.03647115 297.21408081 385.04442167 C292.76131038 385.06116677 288.30888151 385.05284524 283.85610962 385.0404768 C279.05712534 385.03144974 274.258201 385.04538435 269.45922852 385.05639648 C260.05492517 385.07421141 250.65074929 385.0703285 241.24644089 385.05874592 C233.60544536 385.04972355 225.96448565 385.04848241 218.32348633 385.05284119 C217.23724157 385.05345412 216.15099682 385.05406705 215.03183556 385.05469856 C212.82536061 385.05597742 210.61888567 385.05727427 208.41241074 385.05858892 C187.70745774 385.07000343 167.00257551 385.05686736 146.29763412 385.03538746 C128.52008326 385.0175157 110.74263687 385.02061956 92.96508789 385.0390625 C72.3357674 385.06045384 51.70650898 385.06890471 31.07717896 385.05661345 C28.87868246 385.05533921 26.68018596 385.05408173 24.48168945 385.05284119 C23.39990103 385.05222408 22.3181126 385.05160698 21.20354271 385.05097118 C13.56902963 385.04751307 5.93455582 385.05335655 -1.69995117 385.0627594 C-11.00002351 385.07396148 -20.29996075 385.07097712 -29.60001755 385.04963642 C-34.34784127 385.03910184 -39.09543951 385.03504503 -43.84326172 385.04823303 C-48.18579556 385.06011311 -52.52789395 385.05366735 -56.87038803 385.03232282 C-58.445022 385.02783806 -60.01969242 385.03016481 -61.59430313 385.03982598 C-63.7281932 385.05191884 -65.86057465 385.03959025 -67.99438477 385.02094269 C-69.18150055 385.02029328 -70.36861633 385.01964387 -71.59170532 385.01897478 C-75.24417171 384.40968899 -76.43051344 383.481591 -78.59741211 380.51757812 C-78.99203959 377.45832606 -79.14454678 374.75975496 -79.11499023 371.70092773 C-79.12199951 370.81093079 -79.12900879 369.92093384 -79.13623047 369.00396729 C-79.15384575 366.05896863 -79.14216814 363.11493052 -79.12866211 360.16992188 C-79.13135768 358.11690589 -79.13524064 356.06389114 -79.14025879 354.01087952 C-79.14616002 349.70252356 -79.13757683 345.39449907 -79.11889648 341.08618164 C-79.09620718 335.5874687 -79.10916242 330.08954105 -79.13318634 324.59085751 C-79.14771335 320.34664614 -79.14300508 316.10261754 -79.13267517 311.85840034 C-79.13002168 309.83278878 -79.13322871 307.80716018 -79.14259338 305.78156853 C-79.19649051 290.83447112 -78.42948421 278.86444177 -67.59741211 267.51757812 C-58.36264517 258.70177981 -48.36132295 255.87155601 -35.80444336 256.12695312 C-34.73240158 256.13261292 -33.6603598 256.13827271 -32.55583191 256.144104 C-29.17338023 256.16627298 -25.79203686 256.2164325 -22.40991211 256.26757812 C-20.09938067 256.28766829 -17.78883241 256.30591462 -15.47827148 256.32226562 C-9.85094814 256.36607347 -4.22425934 256.43278679 1.40258789 256.51757812 C1.39407806 255.95361328 1.38556824 255.38964844 1.37680054 254.80859375 C1.34267005 252.21161942 1.3217713 249.61469253 1.30102539 247.01757812 C1.28740967 246.13070312 1.27379395 245.24382812 1.25976562 244.33007812 C1.18132592 231.20047845 5.45285717 221.034101 11.40258789 209.51757812 C10.64228271 209.50823242 9.88197754 209.49888672 9.09863281 209.48925781 C5.59516956 209.43499416 2.09296237 209.35145747 -1.40991211 209.26757812 C-2.60551758 209.25339844 -3.80112305 209.23921875 -5.03295898 209.22460938 C-18.38349478 208.86083456 -28.2882234 205.17413422 -37.57006836 195.45117188 C-45.82352242 185.65567119 -47.19221976 175.52050077 -47.11499023 163.04101562 C-47.12042318 161.6188282 -47.12755237 160.19664642 -47.13623047 158.7744751 C-47.15432782 154.94378876 -47.14745325 151.11353762 -47.13471413 147.28284454 C-47.12451534 143.25479547 -47.13399875 139.22678116 -47.14025879 135.19873047 C-47.14751533 128.43710714 -47.13800013 121.67565915 -47.11889648 114.9140625 C-47.09713149 107.1210061 -47.10418429 99.32836845 -47.12620211 91.53532219 C-47.14441323 84.81817504 -47.14688665 78.10115322 -47.13644743 71.38398933 C-47.13024374 67.38358838 -47.12928993 63.38338359 -47.14259338 59.38299561 C-47.15423499 55.6201819 -47.14597673 51.85790275 -47.12301636 48.09514618 C-47.11529234 46.07322402 -47.12701381 44.05125611 -47.13952637 42.02935791 C-47.02789527 29.87891103 -44.07792127 20.40112138 -35.59741211 11.51757812 C-25.14196884 1.53648388 -13.95035604 -0.08322172 0 0 Z M81.37524414 81.45898438 C69.60184239 94.21135608 65.41530389 108.62928106 66.02368164 125.70117188 C66.72007114 136.85868519 70.88703363 145.58031344 77.40258789 154.51757812 C77.84086914 155.15179688 78.27915039 155.78601563 78.73071289 156.43945312 C86.50927966 166.65467937 99.14465253 172.78153252 111.40258789 175.51757812 C128.06412931 176.93288188 141.72007906 174.57003359 155.40258789 164.51757812 C156.1102832 164.01742187 156.81797852 163.51726562 157.54711914 163.00195312 C167.31535588 155.37232443 174.45543199 142.6647361 176.40258789 130.51757812 C177.94936739 113.86591544 175.45639331 100.20192439 165.40258789 86.51757812 C164.90243164 85.80988281 164.40227539 85.1021875 163.88696289 84.37304688 C154.76290388 72.69148648 140.26254504 66.51290539 125.90258789 64.64257812 C109.11676592 63.669487 93.43516878 69.91027042 81.37524414 81.45898438 Z M-56.84741211 281.95507812 C-62.52759536 288.92553799 -62.59741211 295.66347972 -62.59741211 304.51757812 C58.84258789 304.51757812 180.28258789 304.51757812 305.40258789 304.51757812 C305.40258789 295.5307142 305.26105584 288.64274184 299.40258789 281.51757812 C292.33859035 274.50403771 285.642084 272.39620761 275.69188213 272.38894367 C274.57079955 272.38571923 273.44971696 272.38249478 272.29466218 272.37917262 C271.07317485 272.38072123 269.85168752 272.38226983 268.59318542 272.38386536 C267.28767221 272.3815998 265.982159 272.37933424 264.63708478 272.37700003 C261.01950643 272.37088951 257.40195121 272.37101475 253.78436887 272.37219441 C249.88037662 272.3723986 245.97639176 272.36687786 242.07240295 272.36213684 C234.42604238 272.35383384 226.77968952 272.35108216 219.13332482 272.35052446 C212.91739175 272.35004914 206.70146122 272.34799357 200.48552895 272.34482384 C182.85855842 272.33601824 165.23159399 272.33140432 147.60462125 272.33215431 C146.17949877 272.33221425 146.17949877 272.33221425 144.72558594 272.33227539 C143.77434301 272.33231627 142.82310009 272.33235715 141.84303162 272.33239927 C126.42681707 272.33280572 111.01062693 272.32323618 95.59441944 272.30913702 C79.76158055 272.29477119 63.92875356 272.28786695 48.09590799 272.2887308 C39.20841554 272.2890627 30.32094871 272.28631881 21.43346214 272.27555275 C13.86652603 272.26644504 6.29962714 272.26427473 -1.26731209 272.27106217 C-5.12662763 272.274326 -8.98587177 272.27438903 -12.84518051 272.26570892 C-17.03252722 272.25638802 -21.21970878 272.26262354 -25.40705872 272.27033997 C-27.22925146 272.26262462 -27.22925146 272.26262462 -29.08825618 272.25475341 C-40.34797639 272.30062185 -48.9673419 273.22054247 -56.84741211 281.95507812 Z " fill="#000000" transform="translate(134.597412109375,95.482421875)"/>
<path d="M0 0 C1.10794922 -0.01260864 2.21589844 -0.02521729 3.35742188 -0.03820801 C4.54916016 -0.03011108 5.74089844 -0.02201416 6.96875 -0.01367188 C8.19658203 -0.01749878 9.42441406 -0.02132568 10.68945312 -0.02526855 C13.28516459 -0.02799029 15.88090336 -0.02061099 18.4765625 -0.00390625 C22.45374599 0.01749738 26.42912282 -0.0037015 30.40625 -0.02929688 C32.92708733 -0.02665365 35.44792353 -0.02152878 37.96875 -0.01367188 C39.16048828 -0.0217688 40.35222656 -0.02986572 41.58007812 -0.03820801 C43.24200195 -0.01929504 43.24200195 -0.01929504 44.9375 0 C45.91138672 0.00318237 46.88527344 0.00636475 47.88867188 0.00964355 C51.23002689 0.66744911 52.41029858 1.8469506 54.46875 4.51757812 C55.17502571 8.36999108 55.56287766 10.86626474 53.36035156 14.19042969 C46.98491966 21.19504226 40.25023639 27.84498995 33.53125 34.51757812 C32.26213627 35.78166663 30.99325411 37.04598768 29.72460938 38.31054688 C26.6419868 41.38224536 23.55624572 44.45077821 20.46875 47.51757812 C21.8005127 47.53159668 21.8005127 47.53159668 23.15917969 47.54589844 C26.46220919 47.58998493 29.76395007 47.65162558 33.06640625 47.72509766 C34.49401937 47.75327423 35.92178753 47.7745054 37.34960938 47.78857422 C39.40575332 47.81005205 41.46004002 47.85671787 43.515625 47.90820312 C44.75151367 47.92915039 45.98740234 47.95009766 47.26074219 47.97167969 C51.00013723 48.60800292 52.1917946 49.54515681 54.46875 52.51757812 C55 54.51757812 55 54.51757812 54.96875 56.51757812 C54.98421875 57.50757812 54.98421875 57.50757812 55 58.51757812 C54.2245785 61.43681202 52.78007479 62.6111988 50.46875 64.51757812 C47.88867188 65.0255127 47.88867188 65.0255127 44.9375 65.03515625 C43.82955078 65.04776489 42.72160156 65.06037354 41.58007812 65.07336426 C40.38833984 65.06526733 39.19660156 65.05717041 37.96875 65.04882812 C36.12700195 65.05456848 36.12700195 65.05456848 34.24804688 65.0604248 C31.65233541 65.06314654 29.05659664 65.05576724 26.4609375 65.0390625 C22.48375401 65.01765887 18.50837718 65.03885775 14.53125 65.06445312 C12.01041267 65.0618099 9.48957647 65.05668503 6.96875 65.04882812 C5.18114258 65.06097351 5.18114258 65.06097351 3.35742188 65.07336426 C2.24947266 65.06075562 1.14152344 65.04814697 0 65.03515625 C-0.97388672 65.03197388 -1.94777344 65.0287915 -2.95117188 65.0255127 C-6.29252689 64.36770714 -7.47279858 63.18820565 -9.53125 60.51757812 C-10.23752571 56.66516517 -10.62537766 54.16889151 -8.42285156 50.84472656 C-2.04741966 43.84011399 4.68726361 37.1901663 11.40625 30.51757812 C12.67536373 29.25348962 13.94424589 27.98916857 15.21289062 26.72460938 C18.2955132 23.65291089 21.38125428 20.58437804 24.46875 17.51757812 C23.5809082 17.50823242 22.69306641 17.49888672 21.77832031 17.48925781 C18.47529081 17.44517132 15.17354993 17.38353067 11.87109375 17.31005859 C10.44348063 17.28188202 9.01571247 17.26065085 7.58789062 17.24658203 C5.53174668 17.2251042 3.47745998 17.17843838 1.421875 17.12695312 C0.18598633 17.10600586 -1.04990234 17.08505859 -2.32324219 17.06347656 C-6.06263723 16.42715333 -7.2542946 15.48999944 -9.53125 12.51757812 C-10.0625 10.51757812 -10.0625 10.51757812 -10.03125 8.51757812 C-10.04671875 7.52757812 -10.04671875 7.52757812 -10.0625 6.51757812 C-8.67664018 1.3002235 -4.95665502 0.01619688 0 0 Z " fill="#000000" transform="translate(369.53125,15.482421875)"/>
<path d="M0 0 C1.05026367 -0.0038269 2.10052734 -0.00765381 3.18261719 -0.01159668 C5.40170247 -0.01431696 7.62081974 -0.00694777 9.83984375 0.00976562 C13.23770595 0.03117255 16.63345361 0.00996675 20.03125 -0.015625 C22.18750467 -0.01298175 24.34375802 -0.00785682 26.5 0 C27.51674805 -0.00809692 28.53349609 -0.01619385 29.58105469 -0.02453613 C36.57369573 0.06848906 36.57369573 0.06848906 39.87890625 2.33007812 C41.54442504 5.00392382 41.99372973 7.26679127 41.81933594 10.41308594 C41.12774206 12.98609987 40.12364763 14.21074082 38.328125 16.171875 C37.69479248 16.86442383 37.06145996 17.55697266 36.40893555 18.27050781 C32.44227509 22.42421988 28.39373769 26.49035915 24.3125 30.53125 C23.43787109 31.40136719 22.56324219 32.27148438 21.66210938 33.16796875 C19.52702551 35.29138549 17.38962795 37.41241378 15.25 39.53125 C15.89549805 39.5405957 16.54099609 39.54994141 17.20605469 39.55957031 C20.13813944 39.61334101 23.06864008 39.6969734 26 39.78125 C27.01578125 39.79542969 28.0315625 39.80960938 29.078125 39.82421875 C36.564875 40.07049342 36.564875 40.07049342 39.921875 42.328125 C41.31270108 44.63526002 41.79174495 45.8595729 41.75 48.53125 C41.7603125 49.19125 41.770625 49.85125 41.78125 50.53125 C40.9489357 53.66466854 39.90683918 54.60990886 37.25 56.53125 C33.67231501 57.14709573 30.12279111 57.09135028 26.5 57.0625 C24.92460449 57.06824036 24.92460449 57.06824036 23.31738281 57.07409668 C21.09829753 57.07681696 18.87918026 57.06944777 16.66015625 57.05273438 C13.26229405 57.03132745 9.86654639 57.05253325 6.46875 57.078125 C4.31249533 57.07548175 2.15624198 57.07035682 0 57.0625 C-1.01674805 57.07059692 -2.03349609 57.07869385 -3.08105469 57.08703613 C-10.07369573 56.99401094 -10.07369573 56.99401094 -13.37890625 54.73242188 C-15.04442504 52.05857618 -15.49372973 49.79570873 -15.31933594 46.64941406 C-14.62774206 44.07640013 -13.62364763 42.85175918 -11.828125 40.890625 C-10.87812622 39.85180176 -10.87812622 39.85180176 -9.90893555 38.79199219 C-5.94227509 34.63828012 -1.89373769 30.57214085 2.1875 26.53125 C3.06212891 25.66113281 3.93675781 24.79101562 4.83789062 23.89453125 C6.97297449 21.77111451 9.11037205 19.65008622 11.25 17.53125 C10.60450195 17.5219043 9.95900391 17.51255859 9.29394531 17.50292969 C6.36186056 17.44915899 3.43135992 17.3655266 0.5 17.28125 C-0.51578125 17.26707031 -1.5315625 17.25289062 -2.578125 17.23828125 C-10.064875 16.99200658 -10.064875 16.99200658 -13.421875 14.734375 C-14.81270108 12.42723998 -15.29174495 11.2029271 -15.25 8.53125 C-15.26546875 7.54125 -15.26546875 7.54125 -15.28125 6.53125 C-13.27705847 -1.01394163 -6.37452488 -0.05076385 0 0 Z " fill="#000000" transform="translate(302.75,79.46875)"/>
<path d="M0 0 C0.87269531 -0.0038269 1.74539063 -0.00765381 2.64453125 -0.01159668 C4.48699092 -0.0143149 6.32948924 -0.00695994 8.171875 0.00976562 C10.99045934 0.03117752 13.80649485 0.00996199 16.625 -0.015625 C18.41667229 -0.01298171 20.20834299 -0.00785669 22 0 C22.84175781 -0.00809692 23.68351562 -0.01619385 24.55078125 -0.02453613 C28.34840276 0.03625844 30.36750599 0.0796787 33.51953125 2.33007812 C35.31140907 4.9942553 35.75138654 7.19717524 35.5625 10.40234375 C34.41232376 14.75544134 31.14199511 17.46968138 28 20.53125 C27.02698649 21.51268058 26.05573631 22.49586145 25.0859375 23.48046875 C22.41165359 26.18583392 19.71183415 28.86355058 17 31.53125 C18.44632812 31.56992188 18.44632812 31.56992188 19.921875 31.609375 C21.81679688 31.69445312 21.81679688 31.69445312 23.75 31.78125 C25.62945312 31.85085937 25.62945312 31.85085937 27.546875 31.921875 C31.45703292 32.61190287 32.71085229 33.33550914 35 36.53125 C35.53125 38.53125 35.53125 38.53125 35.5 40.53125 C35.5103125 41.19125 35.520625 41.85125 35.53125 42.53125 C34.72011424 45.58493756 33.53019712 46.62236769 31 48.53125 C28.00263779 49.13239553 25.04890723 49.09182764 22 49.0625 C21.12730469 49.0663269 20.25460937 49.07015381 19.35546875 49.07409668 C17.51300908 49.0768149 15.67051076 49.06945994 13.828125 49.05273438 C11.00954066 49.03132248 8.19350515 49.05253801 5.375 49.078125 C3.58332771 49.07548171 1.79165701 49.07035669 0 49.0625 C-0.84175781 49.07059692 -1.68351562 49.07869385 -2.55078125 49.08703613 C-6.34840276 49.02624156 -8.36750599 48.9828213 -11.51953125 46.73242188 C-13.31140907 44.0682447 -13.75138654 41.86532476 -13.5625 38.66015625 C-12.41232376 34.30705866 -9.14199511 31.59281862 -6 28.53125 C-5.02698649 27.54981942 -4.05573631 26.56663855 -3.0859375 25.58203125 C-0.41165359 22.87666608 2.28816585 20.19894942 5 17.53125 C3.55367188 17.49257812 3.55367188 17.49257812 2.078125 17.453125 C0.81484375 17.39640625 -0.4484375 17.3396875 -1.75 17.28125 C-3.00296875 17.23484375 -4.2559375 17.1884375 -5.546875 17.140625 C-9.45703292 16.45059713 -10.71085229 15.72699086 -13 12.53125 C-13.53125 10.53125 -13.53125 10.53125 -13.5 8.53125 C-13.51546875 7.54125 -13.51546875 7.54125 -13.53125 6.53125 C-11.69061453 -0.39820116 -5.94975317 -0.05723107 0 0 Z " fill="#000000" transform="translate(357,151.46875)"/>
</svg>
