<?xml version="1.0" encoding="UTF-8"?>
<svg version="1.1" xmlns="http://www.w3.org/2000/svg" width="512" height="512">
<path d="M0 0 C0.88842087 -0.00686325 1.77684174 -0.0137265 2.69218445 -0.02079773 C5.6231595 -0.0390693 8.55359946 -0.03522767 11.48461914 -0.02954102 C13.52576369 -0.03410267 15.56690671 -0.0394082 17.60804749 -0.04542542 C21.88426964 -0.05435725 26.16030504 -0.05193254 30.43652344 -0.04199219 C35.91213103 -0.03050312 41.38709367 -0.0507129 46.86261654 -0.07990932 C51.07743921 -0.09826965 55.29210729 -0.09797916 59.50695992 -0.0922718 C61.52554796 -0.09211857 63.54414648 -0.09816495 65.56269646 -0.11056328 C68.38725935 -0.12546793 71.21063024 -0.11479996 74.03515625 -0.09765625 C74.86599731 -0.10732422 75.69683838 -0.11699219 76.55285645 -0.12695312 C81.86511627 -0.05955556 84.84504085 0.91937879 89.08227539 4.40405273 C93.22594069 9.00867015 92.46365794 14.54445814 92.37524414 20.39233398 C92.3709993 21.4506694 92.36675446 22.50900482 92.36238098 23.59941101 C92.34561901 26.97205285 92.30797051 30.34409218 92.26977539 33.71655273 C92.25472538 36.00625763 92.24103753 38.29597192 92.22875977 40.58569336 C92.19572362 46.19201793 92.14554856 51.79799228 92.08227539 57.40405273 C92.86731445 57.59016113 93.65235352 57.77626953 94.46118164 57.96801758 C100.1577962 59.34935924 105.64896999 60.79565076 111.08227539 63.02905273 C111.68112549 63.27413574 112.27997559 63.51921875 112.89697266 63.77172852 C121.7192589 67.43037272 130.39304518 71.44296161 139.08227539 75.40405273 C140.00041016 74.47544434 140.91854492 73.54683594 141.86450195 72.59008789 C145.27363215 69.14474564 148.6893868 65.70603628 152.10717773 62.26928711 C153.58523049 60.78117957 155.06148287 59.29128155 156.53588867 57.79956055 C158.65600858 55.6551699 160.78252887 53.51731076 162.91040039 51.38061523 C163.56784241 50.71285065 164.22528442 50.04508606 164.90264893 49.35708618 C165.52299011 48.73659393 166.1433313 48.11610168 166.7824707 47.47680664 C167.59521454 46.65740097 167.59521454 46.65740097 168.42437744 45.82144165 C171.74070768 42.98620699 174.63375263 42.09639733 178.95727539 42.02905273 C180.1909082 41.98651367 180.1909082 41.98651367 181.44946289 41.94311523 C187.5494723 43.0110694 191.93312743 47.96373771 196.14770508 52.21069336 C197.00739143 53.06512276 197.00739143 53.06512276 197.88444519 53.93681335 C199.762716 55.80633727 201.63364159 57.68301515 203.50415039 59.56030273 C204.81328623 60.86809028 206.12271875 62.17558089 207.43243408 63.48278809 C210.16907526 66.21648786 212.9020842 68.95375436 215.63256836 71.69360352 C219.13182336 75.204275 222.64001103 78.70586102 226.15095139 82.20484161 C228.85343352 84.9000979 231.55113552 87.60009805 234.24741364 90.30155945 C235.53933181 91.59481093 236.83273498 92.88658072 238.1276474 94.17683411 C239.93479067 95.97889786 241.73539816 97.78724924 243.53442383 99.59741211 C244.33703896 100.39395454 244.33703896 100.39395454 245.15586853 101.20658875 C249.30694054 105.40538745 251.36488549 108.34762102 251.45727539 114.27905273 C251.48563477 115.10147461 251.51399414 115.92389648 251.54321289 116.77124023 C250.40988017 123.24468308 244.84594912 127.91135037 240.34790039 132.33374023 C239.39086212 133.28653366 239.39086212 133.28653366 238.41448975 134.25857544 C236.39176367 136.27017879 234.36216818 138.2746841 232.33227539 140.27905273 C230.95290804 141.64838008 229.57399691 143.01816715 228.19555664 144.38842773 C224.82971773 147.73231125 221.45770349 151.06985027 218.08227539 154.40405273 C218.34680511 154.98077225 218.61133484 155.55749176 218.88388062 156.15168762 C223.11736299 165.38929978 227.29648266 174.63412621 231.01977539 184.09155273 C231.30151611 184.79586426 231.58325684 185.50017578 231.87353516 186.22583008 C233.26886152 189.83380025 234.35695466 193.37611459 235.17041016 197.16113281 C235.3433107 197.95932938 235.51621124 198.75752594 235.6943512 199.57991028 C235.88637367 200.48286079 235.88637367 200.48286079 236.08227539 201.40405273 C236.67029938 201.39517029 237.25832336 201.38628784 237.86416626 201.37713623 C243.99617776 201.28849491 250.12800661 201.2282489 256.26049805 201.18432617 C258.54768265 201.16423757 260.83481607 201.13696146 263.12182617 201.10229492 C266.41345873 201.05365715 269.70441096 201.03105594 272.99633789 201.01342773 C274.01531158 200.99278259 275.03428528 200.97213745 276.08413696 200.9508667 C281.90800036 200.94903489 285.59550288 201.28876285 290.08227539 205.40405273 C293.60339509 209.90763425 293.51592522 213.84591741 293.48632812 219.32177734 C293.496623 220.65440865 293.496623 220.65440865 293.50712585 222.01396179 C293.52539743 224.94493684 293.5215558 227.8753768 293.51586914 230.80639648 C293.5204308 232.84754104 293.52573633 234.88868405 293.53175354 236.92982483 C293.54068538 241.20604698 293.53826067 245.48208239 293.52832031 249.75830078 C293.51683125 255.23390837 293.53704103 260.70887102 293.56623745 266.18439388 C293.58459777 270.39921655 293.58430729 274.61388463 293.57859993 278.82873726 C293.57844669 280.84732531 293.58449308 282.86592382 293.5968914 284.8844738 C293.61179606 287.70903669 293.60112808 290.53240759 293.58398438 293.35693359 C293.59365234 294.18777466 293.60332031 295.01861572 293.61328125 295.87463379 C293.54588369 301.18689361 292.56694933 304.1668182 289.08227539 308.40405273 C284.47765797 312.54771804 278.94186998 311.78543529 273.09399414 311.69702148 C271.50649101 311.69065422 271.50649101 311.69065422 269.88691711 311.68415833 C266.51427527 311.66739636 263.14223594 311.62974785 259.76977539 311.59155273 C257.48007049 311.57650273 255.19035621 311.56281488 252.90063477 311.55053711 C247.29431019 311.51750096 241.68833585 311.46732591 236.08227539 311.40405273 C235.80311279 312.58161133 235.80311279 312.58161133 235.51831055 313.78295898 C234.13696889 319.47957354 232.69067737 324.97074734 230.45727539 330.40405273 C230.21219238 331.00290283 229.96710938 331.60175293 229.71459961 332.21875 C226.05595541 341.04103625 222.04336652 349.71482252 218.08227539 358.40405273 C219.01088379 359.3221875 219.93949219 360.24032227 220.89624023 361.1862793 C224.34158249 364.5954095 227.78029184 368.01116414 231.21704102 371.42895508 C232.70514856 372.90700784 234.19504658 374.38326022 235.68676758 375.85766602 C237.83115822 377.97778593 239.96901737 380.10430621 242.10571289 382.23217773 C243.10735977 383.21834076 243.10735977 383.21834076 244.12924194 384.22442627 C244.74973419 384.84476746 245.37022644 385.46510864 246.00952148 386.10424805 C246.55579193 386.64607727 247.10206238 387.18790649 247.66488647 387.74615479 C250.50012113 391.06248503 251.3899308 393.95552997 251.45727539 398.27905273 C251.48563477 399.10147461 251.51399414 399.92389648 251.54321289 400.77124023 C250.47525872 406.87124964 245.52259042 411.25490478 241.27563477 415.46948242 C240.42120537 416.32916878 240.42120537 416.32916878 239.54951477 417.20622253 C237.67999086 419.08449335 235.80331298 420.95541894 233.92602539 422.82592773 C232.61823785 424.13506357 231.31074724 425.4444961 230.00354004 426.75421143 C227.26984026 429.49085261 224.53257377 432.22386154 221.79272461 434.9543457 C218.28205312 438.4536007 214.7804671 441.96178838 211.28148651 445.47272873 C208.58623023 448.17521086 205.88623007 450.87291287 203.18476868 453.56919098 C201.89151719 454.86110915 200.5997474 456.15451232 199.30949402 457.44942474 C197.50743026 459.25656801 195.69907888 461.0571755 193.88891602 462.85620117 C193.35788773 463.39127792 192.82685944 463.92635468 192.27973938 464.47764587 C188.08094068 468.62871788 185.1387071 470.68666283 179.20727539 470.77905273 C178.38485352 470.80741211 177.56243164 470.83577148 176.71508789 470.86499023 C170.24164504 469.73165751 165.57497776 464.16772647 161.15258789 459.66967773 C160.19979446 458.71263947 160.19979446 458.71263947 159.22775269 457.73626709 C157.21614934 455.71354101 155.21164402 453.68394552 153.20727539 451.65405273 C151.83794805 450.27468539 150.46816098 448.89577426 149.09790039 447.51733398 C145.75401688 444.15149508 142.41647786 440.77948084 139.08227539 437.40405273 C138.50555588 437.66858246 137.92883636 437.93311218 137.3346405 438.20565796 C128.09702835 442.43914033 118.85220191 446.61826001 109.39477539 450.34155273 C108.69046387 450.62329346 107.98615234 450.90503418 107.26049805 451.1953125 C103.65252788 452.59063887 100.11021354 453.678732 96.32519531 454.4921875 C95.52699875 454.66508804 94.72880219 454.83798859 93.90641785 455.01612854 C93.30445084 455.14414352 92.70248383 455.27215851 92.08227539 455.40405273 C92.09115784 455.99207672 92.10004028 456.58010071 92.10919189 457.1859436 C92.19783322 463.31795511 92.25807922 469.44978396 92.30200195 475.58227539 C92.32209056 477.86946 92.34936667 480.15659341 92.3840332 482.44360352 C92.43267097 485.73523608 92.45527218 489.02618831 92.47290039 492.31811523 C92.49354553 493.33708893 92.51419067 494.35606262 92.53546143 495.40591431 C92.53729323 501.2297777 92.19756527 504.91728022 88.08227539 509.40405273 C83.57869387 512.92517244 79.64041071 512.83770256 74.16455078 512.80810547 C72.83191948 512.81840034 72.83191948 512.81840034 71.47236633 512.8289032 C68.54139128 512.84717477 65.61095132 512.84333314 62.67993164 512.83764648 C60.63878709 512.84220814 58.59764408 512.84751367 56.5565033 512.85353088 C52.28028114 512.86246272 48.00424574 512.86003801 43.72802734 512.85009766 C38.25241975 512.83860859 32.77745711 512.85881837 27.30193424 512.88801479 C23.08711157 512.90637512 18.8724435 512.90608463 14.65759087 512.90037727 C12.63900282 512.90022404 10.6204043 512.90627042 8.60185432 512.91866875 C5.77729143 512.9335734 2.95392054 512.92290543 0.12939453 512.90576172 C-0.70144653 512.91542969 -1.5322876 512.92509766 -2.38830566 512.93505859 C-7.70056549 512.86766103 -10.68049007 511.88872668 -14.91772461 508.40405273 C-19.06138991 503.79943532 -18.29910716 498.26364732 -18.21069336 492.41577148 C-18.20644852 491.35743607 -18.20220367 490.29910065 -18.1978302 489.20869446 C-18.18106823 485.83605262 -18.14341972 482.46401329 -18.10522461 479.09155273 C-18.0901746 476.80184784 -18.07648675 474.51213355 -18.06420898 472.22241211 C-18.03117284 466.61608754 -17.98099778 461.01011319 -17.91772461 455.40405273 C-19.0952832 455.12489014 -19.0952832 455.12489014 -20.29663086 454.84008789 C-25.99324541 453.45874623 -31.48441921 452.01245471 -36.91772461 449.77905273 C-37.51657471 449.53396973 -38.1154248 449.28888672 -38.73242188 449.03637695 C-47.55470812 445.37773275 -56.2284944 441.36514386 -64.91772461 437.40405273 C-65.83585938 438.33266113 -66.75399414 439.26126953 -67.69995117 440.21801758 C-71.10908137 443.66335983 -74.52483602 447.10206919 -77.94262695 450.53881836 C-79.42067971 452.0269259 -80.89693209 453.51682392 -82.37133789 455.00854492 C-84.4914578 457.15293557 -86.61797809 459.29079471 -88.74584961 461.42749023 C-89.40329163 462.09525482 -90.06073364 462.76301941 -90.73809814 463.45101929 C-91.35843933 464.07151154 -91.97878052 464.69200378 -92.61791992 465.33129883 C-93.15974915 465.87756927 -93.70157837 466.42383972 -94.25982666 466.98666382 C-97.5761569 469.82189848 -100.46920185 470.71170814 -104.79272461 470.77905273 C-105.61514648 470.80741211 -106.43756836 470.83577148 -107.28491211 470.86499023 C-113.38492152 469.79703607 -117.76857665 464.84436776 -121.9831543 460.59741211 C-122.55627853 460.02779251 -123.12940277 459.45817291 -123.71989441 458.87129211 C-125.59816522 457.0017682 -127.46909081 455.12509032 -129.33959961 453.24780273 C-130.64873545 451.94001519 -131.95816797 450.63252458 -133.2678833 449.32531738 C-136.00452448 446.59161761 -138.73753342 443.85435111 -141.46801758 441.11450195 C-144.96727258 437.60383047 -148.47546025 434.10224444 -151.9864006 430.60326385 C-154.68888274 427.90800757 -157.38658474 425.20800742 -160.08286285 422.50654602 C-161.37478103 421.21329454 -162.6681842 419.92152474 -163.96309662 418.63127136 C-165.77023988 416.82920761 -167.57084738 415.02085623 -169.36987305 413.21069336 C-169.9049498 412.67966507 -170.44002655 412.14863678 -170.99131775 411.60151672 C-175.14238975 407.40271802 -177.20033471 404.46048444 -177.29272461 398.52905273 C-177.32108398 397.70663086 -177.34944336 396.88420898 -177.37866211 396.03686523 C-176.24532938 389.56342238 -170.68139834 384.8967551 -166.18334961 380.47436523 C-165.5453241 379.83916962 -164.90729858 379.203974 -164.24993896 378.54953003 C-162.22721289 376.53792668 -160.1976174 374.53342137 -158.16772461 372.52905273 C-156.78835726 371.15972539 -155.40944613 369.78993832 -154.03100586 368.41967773 C-150.66516695 365.07579422 -147.29315271 361.7382552 -143.91772461 358.40405273 C-144.18225433 357.82733322 -144.44678406 357.25061371 -144.71932983 356.65641785 C-148.95281221 347.41880569 -153.13193188 338.17397925 -156.85522461 328.71655273 C-157.13696533 328.01224121 -157.41870605 327.30792969 -157.70898438 326.58227539 C-159.10431074 322.97430522 -160.19240388 319.43199088 -161.00585938 315.64697266 C-161.17875992 314.84877609 -161.35166046 314.05057953 -161.52980042 313.22819519 C-161.6578154 312.62622818 -161.78583038 312.02426117 -161.91772461 311.40405273 C-162.5057486 311.41293518 -163.09377258 311.42181763 -163.69961548 311.43096924 C-169.83162698 311.51961056 -175.96345583 311.57985657 -182.09594727 311.6237793 C-184.38313187 311.6438679 -186.67026529 311.67114401 -188.95727539 311.70581055 C-192.24890795 311.75444832 -195.53986018 311.77704953 -198.83178711 311.79467773 C-200.36024765 311.82564545 -200.36024765 311.82564545 -201.91958618 311.85723877 C-207.74344958 311.85907058 -211.43095209 311.51934262 -215.91772461 307.40405273 C-219.43884431 302.90047121 -219.35137444 298.96218806 -219.32177734 293.48632812 C-219.32864059 292.59790726 -219.33550385 291.70948639 -219.34257507 290.79414368 C-219.36084664 287.86316862 -219.35700501 284.93272867 -219.35131836 282.00170898 C-219.35588002 279.96056443 -219.36118554 277.91942142 -219.36720276 275.87828064 C-219.3761346 271.60205849 -219.37370989 267.32602308 -219.36376953 263.04980469 C-219.35228047 257.5741971 -219.37249025 252.09923445 -219.40168667 246.62371159 C-219.42004699 242.40888892 -219.41975651 238.19422084 -219.41404915 233.97936821 C-219.41389591 231.96078016 -219.4199423 229.94218165 -219.43234062 227.92363167 C-219.44724528 225.09906878 -219.4365773 222.27569788 -219.41943359 219.45117188 C-219.43393555 218.20491028 -219.43393555 218.20491028 -219.44873047 216.93347168 C-219.38133291 211.62121186 -218.40239855 208.64128727 -214.91772461 204.40405273 C-210.31310719 200.26038743 -204.7773192 201.02267018 -198.92944336 201.11108398 C-197.87110794 201.11532883 -196.81277252 201.11957367 -195.72236633 201.12394714 C-192.34972449 201.14070911 -188.97768516 201.17835762 -185.60522461 201.21655273 C-183.31551971 201.23160274 -181.02580543 201.24529059 -178.73608398 201.25756836 C-173.12975941 201.2906045 -167.52378507 201.34077956 -161.91772461 201.40405273 C-161.73161621 200.61901367 -161.54550781 199.83397461 -161.35375977 199.02514648 C-159.97241811 193.32853193 -158.52612659 187.83735813 -156.29272461 182.40405273 C-156.0476416 181.80520264 -155.80255859 181.20635254 -155.55004883 180.58935547 C-151.89140463 171.76706922 -147.87881574 163.09328295 -143.91772461 154.40405273 C-144.84633301 153.48591797 -145.77494141 152.5677832 -146.73168945 151.62182617 C-150.17703171 148.21269597 -153.61574106 144.79694133 -157.05249023 141.37915039 C-158.54059777 139.90109763 -160.03049579 138.42484525 -161.5222168 136.95043945 C-163.66660744 134.83031954 -165.80446659 132.70379926 -167.94116211 130.57592773 C-168.6089267 129.91848572 -169.27669128 129.2610437 -169.96469116 128.5836792 C-170.58518341 127.96333801 -171.20567566 127.34299683 -171.8449707 126.70385742 C-172.39124115 126.1620282 -172.9375116 125.62019897 -173.50033569 125.06195068 C-176.33557035 121.74562044 -177.22538002 118.8525755 -177.29272461 114.52905273 C-177.32108398 113.70663086 -177.34944336 112.88420898 -177.37866211 112.03686523 C-176.31070794 105.93685583 -171.35803964 101.55320069 -167.11108398 97.33862305 C-166.54146439 96.76549881 -165.97184479 96.19237457 -165.38496399 95.60188293 C-163.51544007 93.72361212 -161.6387622 91.85268653 -159.76147461 89.98217773 C-158.45368707 88.6730419 -157.14619645 87.36360937 -155.83898926 86.05389404 C-153.10528948 83.31725286 -150.36802298 80.58424392 -147.62817383 77.85375977 C-144.11750234 74.35450476 -140.61591632 70.84631709 -137.11693573 67.33537674 C-134.42167945 64.63289461 -131.72167929 61.9351926 -129.0202179 59.23891449 C-127.72696641 57.94699632 -126.43519662 56.65359315 -125.14494324 55.35868073 C-123.34287948 53.55153746 -121.5345281 51.75092997 -119.72436523 49.9519043 C-119.19333694 49.41682755 -118.66230865 48.88175079 -118.1151886 48.33045959 C-113.9163899 44.17938759 -110.97415632 42.12144264 -105.04272461 42.02905273 C-104.22030273 42.00069336 -103.39788086 41.97233398 -102.55053711 41.94311523 C-96.07709426 43.07644796 -91.41042698 48.640379 -86.98803711 53.13842773 C-86.35284149 53.77645325 -85.71764587 54.41447876 -85.0632019 55.07183838 C-83.05159856 57.09456446 -81.04709324 59.12415995 -79.04272461 61.15405273 C-77.67339727 62.53342008 -76.3036102 63.91233121 -74.93334961 65.29077148 C-71.58946609 68.65661039 -68.25192708 72.02862463 -64.91772461 75.40405273 C-64.3410051 75.13952301 -63.76428558 74.87499329 -63.17008972 74.60244751 C-53.93247757 70.36896514 -44.68765113 66.18984546 -35.23022461 62.46655273 C-34.52591309 62.18481201 -33.82160156 61.90307129 -33.09594727 61.61279297 C-29.4879771 60.2174666 -25.94566276 59.12937346 -22.16064453 58.31591797 C-21.36244797 58.14301743 -20.5642514 57.97011688 -19.74186707 57.79197693 C-19.13990005 57.66396194 -18.53793304 57.53594696 -17.91772461 57.40405273 C-17.92660706 56.81602875 -17.9354895 56.22800476 -17.94464111 55.62216187 C-18.03328244 49.49015036 -18.09352844 43.35832151 -18.13745117 37.22583008 C-18.15753977 34.93864547 -18.18481589 32.65151205 -18.21948242 30.36450195 C-18.26812019 27.07286939 -18.2907214 23.78191716 -18.30834961 20.48999023 C-18.32899475 19.47101654 -18.34963989 18.45204285 -18.37091064 17.40219116 C-18.37274245 11.57832776 -18.03301449 7.89082525 -13.91772461 3.40405273 C-9.41414309 -0.11706697 -5.47585993 -0.0295971 0 0 Z M8.08227539 145.40405273 C6.84993164 145.7559668 5.61758789 146.10788086 4.34790039 146.47045898 C-15.24914763 152.37432914 -31.48443926 163.17934087 -45.91772461 177.40405273 C-46.62413086 178.09756836 -47.33053711 178.79108398 -48.05834961 179.50561523 C-62.38877907 194.59334381 -72.21354498 214.98514521 -75.91772461 235.40405273 C-76.09948242 236.38760742 -76.28124023 237.37116211 -76.46850586 238.38452148 C-78.53928758 253.54494228 -78.25713682 270.69536235 -73.91772461 285.40405273 C-73.56581055 286.63639648 -73.21389648 287.86874023 -72.85131836 289.13842773 C-66.94744821 308.73547576 -56.14243647 324.97076738 -41.91772461 339.40405273 C-41.22420898 340.11045898 -40.53069336 340.81686523 -39.81616211 341.54467773 C-24.72843353 355.87510719 -4.33663213 365.69987311 16.08227539 369.40405273 C17.06583008 369.58581055 18.04938477 369.76756836 19.06274414 369.95483398 C34.22316494 372.02561571 51.37358501 371.74346494 66.08227539 367.40405273 C67.31461914 367.05213867 68.54696289 366.70022461 69.81665039 366.33764648 C89.41369841 360.43377633 105.64899004 349.6287646 120.08227539 335.40405273 C120.78868164 334.71053711 121.49508789 334.01702148 122.22290039 333.30249023 C136.55332985 318.21476166 146.37809577 297.82296026 150.08227539 277.40405273 C150.2640332 276.42049805 150.44579102 275.43694336 150.63305664 274.42358398 C152.70383836 259.26316319 152.4216876 242.11274311 148.08227539 227.40405273 C147.73036133 226.17170898 147.37844727 224.93936523 147.01586914 223.66967773 C141.11199899 204.07262971 130.30698726 187.83733809 116.08227539 173.40405273 C115.38875977 172.69764648 114.69524414 171.99124023 113.98071289 171.26342773 C98.89298432 156.93299828 78.50118291 147.10823236 58.08227539 143.40405273 C57.0987207 143.22229492 56.11516602 143.04053711 55.10180664 142.85327148 C39.94138584 140.78248976 22.79096577 141.06464053 8.08227539 145.40405273 Z " fill="#FEFEFE" transform="translate(218.917724609375,-0.404052734375)"/>
</svg>
