<?xml version="1.0" encoding="UTF-8"?>
<svg id="Capa_2" data-name="Capa 2" xmlns="http://www.w3.org/2000/svg" xmlns:xlink="http://www.w3.org/1999/xlink" viewBox="0 0 162.36 142.59">
  <defs>
    <style>
      .cls-1 {
        fill: url(#Nueva_muestra_de_degradado_1-4);
      }

      .cls-1, .cls-2, .cls-3, .cls-4, .cls-5, .cls-6, .cls-7, .cls-8, .cls-9, .cls-10, .cls-11 {
        stroke-width: 0px;
      }

      .cls-2 {
        fill: url(#Nueva_muestra_de_degradado_1-2);
      }

      .cls-3 {
        fill: url(#Degradado_sin_nombre_336);
      }

      .cls-4 {
        fill: url(#Nueva_muestra_de_degradado_1-3);
      }

      .cls-5 {
        fill: url(#Degradado_sin_nombre_336-4);
      }

      .cls-6 {
        fill: url(#Degradado_sin_nombre_336-3);
      }

      .cls-7 {
        fill: url(#Degradado_sin_nombre_336-2);
      }

      .cls-8 {
        fill: url(#Nueva_muestra_de_degradado_1);
      }

      .cls-9 {
        fill: url(#rojo-musedmx-2);
      }

      .cls-10 {
        fill: url(#rojo-musedmx);
      }

      .cls-11 {
        fill: url(#rojo-musedmx-3);
      }
    </style>
    <linearGradient id="rojo-musedmx" x1="112.42" y1="97.98" x2="112.42" y2="0" gradientUnits="userSpaceOnUse">
      <stop offset="0" stop-color="#e25111"/>
      <stop offset=".3" stop-color="#b74015"/>
      <stop offset=".97" stop-color="#4e1822"/>
      <stop offset="1" stop-color="#491623"/>
    </linearGradient>
    <linearGradient id="rojo-musedmx-2" data-name="rojo-musedmx" x1="50.6" y1="98.05" x2="50.6" y2=".17" xlink:href="#rojo-musedmx"/>
    <linearGradient id="Nueva_muestra_de_degradado_1" data-name="Nueva muestra de degradado 1" x1="39.89" y1="142.59" x2="39.89" y2="45.34" gradientUnits="userSpaceOnUse">
      <stop offset="0" stop-color="#062b4b"/>
      <stop offset=".48" stop-color="#1f434d"/>
      <stop offset="1" stop-color="#2581c4"/>
    </linearGradient>
    <linearGradient id="Nueva_muestra_de_degradado_1-2" data-name="Nueva muestra de degradado 1" x1="122.79" y1="142.36" x2="122.79" y2="47.29" xlink:href="#Nueva_muestra_de_degradado_1"/>
    <linearGradient id="Degradado_sin_nombre_336" data-name="Degradado sin nombre 336" x1="71.04" y1="37.43" x2="71.04" y2="65.41" gradientUnits="userSpaceOnUse">
      <stop offset=".12" stop-color="#ffef26"/>
      <stop offset=".25" stop-color="#fed019"/>
      <stop offset=".44" stop-color="#fdac0b"/>
      <stop offset=".59" stop-color="#fd9603"/>
      <stop offset=".68" stop-color="#fd8f00"/>
      <stop offset=".76" stop-color="#fd7500"/>
      <stop offset=".84" stop-color="#fd6300"/>
      <stop offset=".89" stop-color="#fd5d00"/>
    </linearGradient>
    <linearGradient id="Degradado_sin_nombre_336-2" data-name="Degradado sin nombre 336" x1="92.36" y1="37.1" x2="92.36" y2="65.82" xlink:href="#Degradado_sin_nombre_336"/>
    <linearGradient id="Nueva_muestra_de_degradado_1-3" data-name="Nueva muestra de degradado 1" x1="144.53" y1="134.03" x2="144.53" y2="122.67" xlink:href="#Nueva_muestra_de_degradado_1"/>
    <linearGradient id="Degradado_sin_nombre_336-3" data-name="Degradado sin nombre 336" x1="19.46" y1="122.85" x2="19.46" y2="134.21" xlink:href="#Degradado_sin_nombre_336"/>
    <linearGradient id="rojo-musedmx-3" data-name="rojo-musedmx" x1="81.21" y1="18.25" x2="81.21" y2="2.96" xlink:href="#rojo-musedmx"/>
    <linearGradient id="Nueva_muestra_de_degradado_1-4" data-name="Nueva muestra de degradado 1" x1="11.61" y1="24.73" x2="11.61" y2="13.5" xlink:href="#Nueva_muestra_de_degradado_1"/>
    <linearGradient id="Degradado_sin_nombre_336-4" data-name="Degradado sin nombre 336" x1="150.32" y1="14.36" x2="150.32" y2="24.92" xlink:href="#Degradado_sin_nombre_336"/>
  </defs>
  <g id="Capa_1-2" data-name="Capa 1">
    <g>
      <path class="cls-10" d="M104.3,0c22,4.99,42.28,27.86,35.67,57.82-6.59,29.86-28.96,43.33-56.38,39.54v-27.81c2.46-.95,4.91-1.83,7.3-2.85,17.43-7.43,22.27-22.68,21.14-38.49-.61-8.63-3.03-16.76-6.69-24.57-.49-1.04-1.26-2.03-1.05-3.64Z"/>
      <path class="cls-9" d="M57.71.17c-1.44,3.57-2.67,6.57-3.86,9.59-3.89,9.88-5.16,20.07-3.52,30.58,2.2,14.05,10.44,22.84,23.72,27.26,1.73.58,3.61.74,5.43,2.01.86,9.11.36,18.39.52,27.58-26.62,4.79-51.01-10.89-57.29-37.89C15.14,26.75,37.22,5.08,57.71.17Z"/>
      <path class="cls-8" d="M14.14,45.34c-.6,5.81-.31,10.84.81,15.83,4.43,19.82,17.03,32.36,35.39,39.72,4.5,1.8,9.33,1.33,14.05,1.43,4.95.11,9.91.02,15.18.02.22,9.49.89,18.19-2.37,26.47-2.92,7.4-8.58,11.84-16.33,13.43-10.23,2.09-19.17-5.56-19.99-17.11-.25-3.5-.04-7.04-.04-10.95-22.14-.38-35.26-12.01-40.07-33.07-3-13.13,2.98-28.93,13.37-35.78Z"/>
      <path class="cls-2" d="M83.45,101.84c7.59,0,14.8-.09,21.99.04,3.51.06,6.67-.71,9.81-2.29,7.9-3.97,15.69-8,21.48-14.98,7.75-9.37,11.52-20.2,12.01-32.25.07-1.69-.13-3.4.42-5.06,6.95,2.53,14.64,18.62,12.97,31.26-1.33,10.01-5.62,18.56-13.11,25.36-7.45,6.75-16.34,9.75-26.01,8.95-1.18,1.64-.62,2.76-.42,3.9.64,3.66.71,7.34-.18,10.96-4.32,17.57-20.13,17.55-29.79,9.29-4.56-3.9-7.41-8.92-8.36-14.81-1.03-6.35-1.28-12.78-.79-20.36Z"/>
      <path class="cls-3" d="M63.04,37.43c4.87,3.93,10.37,6.57,16.41,8.62.5,6.46-.21,12.87.72,19.16-7.42,1.39-16.48-4.74-17.71-11.66-.91-5.13-.69-12.58.57-16.12Z"/>
      <path class="cls-7" d="M83.6,65.58v-20.06c6-1.66,11.36-4.19,15.92-8.42,4.36,12.25-.5,24.36-10.83,27.93-1.6.55-3.21,1.13-5.09.56Z"/>
      <path class="cls-4" d="M150.46,128.28c.04,3.29-2.58,5.78-6.03,5.75-3.28-.03-5.81-2.46-5.83-5.59-.03-3.2,2.49-5.79,5.61-5.77,3.59.03,6.22,2.39,6.26,5.61Z"/>
      <path class="cls-6" d="M25.3,128.6c-.06,3.29-2.5,5.65-5.82,5.61-3.45-.04-5.82-2.29-5.86-5.57-.03-2.91,2.87-5.8,5.82-5.8,3.06,0,5.91,2.81,5.86,5.75Z"/>
      <path class="cls-11" d="M81.32,18.25c-4.85-2.57-6.16-10.41-2.34-14.07,1.76-1.69,3.54-1.58,5.14.17,3.04,3.32,1.29,11.85-2.8,13.91Z"/>
      <path class="cls-1" d="M11.27,13.5c3.27-.08,5.84,2.33,5.92,5.57.09,3.22-2.07,5.55-5.24,5.66-3.46.12-5.9-2.11-5.94-5.41-.03-3.09,2.36-5.74,5.25-5.81Z"/>
      <path class="cls-5" d="M150.08,24.92c-3.1.04-4.91-1.7-4.97-4.79-.07-3.18,2.18-5.68,5.18-5.76,2.87-.08,5.2,2.22,5.26,5.19.06,3.17-2.13,5.32-5.47,5.37Z"/>
    </g>
  </g>
</svg>